STARTFONT 2.1
COMMENT
COMMENT Converted from TrueType font "LucidaSansRegular.ttf" by "ttf2bdf 2.6".
COMMENT
FONT -FreeType-Lucida Sans-Medium-R-Normal--25-180-100-100-P-138-ISO10646-1
SIZE 18 100 100
FONTBOUNDINGBOX 57 48 -16 -18
STARTPROPERTIES 22
FOUNDRY "FreeType"
FAMILY_NAME "Lucida Sans"
WEIGHT_NAME "Medium"
SLANT "R"
SETWIDTH_NAME "Normal"
ADD_STYLE_NAME ""
PIXEL_SIZE 25
POINT_SIZE 180
RESOLUTION_X 100
RESOLUTION_Y 100
SPACING "P"
AVERAGE_WIDTH 138
CHARSET_REGISTRY "ISO10646"
CHARSET_ENCODING "1"
FONT_ASCENT 23
FONT_DESCENT 5
COPYRIGHT "Copyright (c) 1999 by Bigelow & Holmes Inc. Pat. Des. 289,420."
_TTF_FONTFILE "LucidaSansRegular.ttf"
_TTF_PSNAME "LucidaSans"
_XFREE86_GLYPH_RANGES "32_126 160_383 402 506_511 536_539 592_680 688_734 736_745 768_837 884_885 890 894 900_906 908 910_929 931_974 976_982 986 988 990 992 994_1011 1025_1036 1038_1103 1105_1116 1118_1158 1168_1220 1223_1224 1227_1228 1232_1259 1262_1269 1272_1273 1425_1441 1443_1465 1467_1476 1488_1514 1520_1524 1548 1563 1567 1569_1594 1600_1618 1632_1645 1648_1719 1722_1726 1728_1742 1744_1773 1776_1785 2305_2307 2309_2361 2364_2381 2384_2388 2392_2416 3585_3642 3647_3675 7808_7813 7922_7923 8192_8238"
_XFREE86_GLYPH_RANGES "8240_8262 8298_8304 8308_8334 8337 8352_8364 8448_8504 8531_8578 8592_8682 8704_8945 8962 8976 8992_8993 9312_9321 9472 9474 9484 9488 9492 9496 9500 9508 9516 9524 9532 9552_9580 9600 9604 9608 9612 9616_9619 9632_9633 9642_9644 9650 9658 9660 9668 9670 9674_9676 9679 9687_9689 9702 9733 9742 9755 9758 9786_9788 9792 9794 9824 9827 9829_9830 9834_9835 9985_9988 9990_9993 9996_10023 10025_10059 10061 10063_10066 10070 10072_10078 10081_10087 10102_10132 10136_10159 10161_10174"
_XFREE86_GLYPH_RANGES "61440_61442 62977_62981 62986_62998 63488_63495 63498_63499 63502_63505 63508_63509 63519_63520 63539 64256_64260 64286_64287 64297_64310 64312_64316 64318 64320_64321 64323_64324 64326_64334 64606_64610 65136_65138 65140 65142_65276 65279"
ENDPROPERTIES
CHARS 2388
STARTCHAR 0020
ENCODING 32
SWIDTH 280 0
DWIDTH 7 0
BBX 1 1 0 0
BITMAP
00
ENDCHAR
STARTCHAR 0021
ENCODING 33
SWIDTH 320 0
DWIDTH 8 0
BBX 2 18 3 0
BITMAP
C0
C0
C0
C0
C0
C0
C0
C0
C0
C0
C0
C0
C0
00
00
C0
C0
C0
ENDCHAR
STARTCHAR 0022
ENCODING 34
SWIDTH 360 0
DWIDTH 9 0
BBX 7 6 1 13
BITMAP
C6
C6
C6
C6
C6
C6
ENDCHAR
STARTCHAR 0023
ENCODING 35
SWIDTH 640 0
DWIDTH 16 0
BBX 15 18 0 0
BITMAP
0198
0198
0330
0330
0330
7FFE
7FFE
0660
0660
0CC0
0CC0
FFFC
FFFC
1980
1980
1980
3300
3300
ENDCHAR
STARTCHAR 0024
ENCODING 36
SWIDTH 640 0
DWIDTH 16 0
BBX 9 22 3 -2
BITMAP
0800
0800
3F00
7F80
E880
C800
C800
C800
E800
7800
3C00
1E00
0F00
0B80
0980
0980
0980
8B80
FF00
7E00
0800
0800
ENDCHAR
STARTCHAR 0025
ENCODING 37
SWIDTH 680 0
DWIDTH 17 0
BBX 16 18 0 0
BITMAP
3C03
7E06
E70C
C318
C318
C330
E760
7EC0
3D80
01BC
037E
06E7
0CC3
1CC3
18C3
30E7
607E
C03C
ENDCHAR
STARTCHAR 0026
ENCODING 38
SWIDTH 680 0
DWIDTH 17 0
BBX 14 18 1 0
BITMAP
0780
0FC0
1860
1860
1860
18C0
0D80
0F00
3E00
670C
C30C
C38C
C188
C0D8
E0F0
7070
3FF8
1F98
ENDCHAR
STARTCHAR 0027
ENCODING 39
SWIDTH 240 0
DWIDTH 6 0
BBX 2 6 2 13
BITMAP
C0
C0
C0
C0
C0
C0
ENDCHAR
STARTCHAR 0028
ENCODING 40
SWIDTH 320 0
DWIDTH 8 0
BBX 6 23 1 -4
BITMAP
04
0C
18
30
30
60
60
40
C0
C0
C0
C0
C0
C0
C0
40
60
60
30
30
18
0C
04
ENDCHAR
STARTCHAR 0029
ENCODING 41
SWIDTH 320 0
DWIDTH 8 0
BBX 6 23 1 -4
BITMAP
80
C0
60
30
30
18
18
08
0C
0C
0C
0C
0C
0C
0C
08
18
18
30
30
60
C0
80
ENDCHAR
STARTCHAR 002A
ENCODING 42
SWIDTH 480 0
DWIDTH 12 0
BBX 10 9 1 9
BITMAP
0C00
0C00
CCC0
EDC0
3300
0000
1200
7380
2100
ENDCHAR
STARTCHAR 002B
ENCODING 43
SWIDTH 800 0
DWIDTH 20 0
BBX 14 14 3 0
BITMAP
0300
0300
0300
0300
0300
0300
FFFC
FFFC
0300
0300
0300
0300
0300
0300
ENDCHAR
STARTCHAR 002C
ENCODING 44
SWIDTH 320 0
DWIDTH 8 0
BBX 3 7 2 -4
BITMAP
E0
E0
E0
20
20
40
80
ENDCHAR
STARTCHAR 002D
ENCODING 45
SWIDTH 560 0
DWIDTH 14 0
BBX 10 2 2 6
BITMAP
FFC0
FFC0
ENDCHAR
STARTCHAR 002E
ENCODING 46
SWIDTH 320 0
DWIDTH 8 0
BBX 3 3 2 0
BITMAP
E0
E0
E0
ENDCHAR
STARTCHAR 002F
ENCODING 47
SWIDTH 520 0
DWIDTH 13 0
BBX 8 22 2 -4
BITMAP
03
03
07
06
06
06
0C
0C
0C
18
18
18
18
30
30
30
60
60
60
E0
C0
C0
ENDCHAR
STARTCHAR 0030
ENCODING 48
SWIDTH 640 0
DWIDTH 16 0
BBX 13 18 1 0
BITMAP
0F80
1FC0
3060
6030
6030
C018
C018
C018
C018
C018
C018
C018
C018
6030
6030
3060
1FC0
0F80
ENDCHAR
STARTCHAR 0031
ENCODING 49
SWIDTH 640 0
DWIDTH 16 0
BBX 10 18 3 0
BITMAP
0C00
7C00
FC00
CC00
0C00
0C00
0C00
0C00
0C00
0C00
0C00
0C00
0C00
0C00
0C00
0C00
FFC0
FFC0
ENDCHAR
STARTCHAR 0032
ENCODING 50
SWIDTH 640 0
DWIDTH 16 0
BBX 11 18 2 0
BITMAP
7F00
FFC0
C0C0
0060
0060
0060
0060
00C0
0180
0300
0600
0C00
1800
3000
6000
C000
FFE0
FFE0
ENDCHAR
STARTCHAR 0033
ENCODING 51
SWIDTH 640 0
DWIDTH 16 0
BBX 11 18 2 0
BITMAP
7E00
FF80
81C0
00C0
00C0
00C0
0180
0380
3E00
3F80
01C0
00E0
0060
0060
0060
81C0
FFC0
7F00
ENDCHAR
STARTCHAR 0034
ENCODING 52
SWIDTH 640 0
DWIDTH 16 0
BBX 13 18 1 0
BITMAP
0060
00E0
01E0
03E0
0760
0660
0C60
1860
3060
7060
6060
FFF8
FFF8
0060
0060
0060
0060
0060
ENDCHAR
STARTCHAR 0035
ENCODING 53
SWIDTH 640 0
DWIDTH 16 0
BBX 11 18 2 0
BITMAP
FFE0
FFE0
C000
C000
C000
C000
C000
FC00
FF80
03C0
00C0
0060
0060
0060
00E0
81C0
FF80
7E00
ENDCHAR
STARTCHAR 0036
ENCODING 54
SWIDTH 640 0
DWIDTH 16 0
BBX 13 18 1 0
BITMAP
07E0
1FF0
3810
7000
6000
C000
C000
CFC0
DFE0
F070
E038
C018
C018
4018
6038
3070
3FE0
0F80
ENDCHAR
STARTCHAR 0037
ENCODING 55
SWIDTH 640 0
DWIDTH 16 0
BBX 12 18 2 0
BITMAP
FFF0
FFF0
0070
0060
00C0
0180
0180
0300
0600
0600
0C00
0C00
1800
3800
3000
3000
6000
6000
ENDCHAR
STARTCHAR 0038
ENCODING 56
SWIDTH 640 0
DWIDTH 16 0
BBX 13 18 1 0
BITMAP
0F80
3FE0
7070
6030
6030
7030
3860
1FC0
0F80
3BE0
60F0
C038
C018
C018
E018
7070
7FE0
1F80
ENDCHAR
STARTCHAR 0039
ENCODING 57
SWIDTH 640 0
DWIDTH 16 0
BBX 13 18 1 0
BITMAP
0F80
3FC0
70E0
6030
C010
C018
C018
C018
E038
7078
3FD8
0F98
0010
0030
0060
60E0
7FC0
3F00
ENDCHAR
STARTCHAR 003A
ENCODING 58
SWIDTH 320 0
DWIDTH 8 0
BBX 2 13 3 0
BITMAP
C0
C0
C0
00
00
00
00
00
00
00
C0
C0
C0
ENDCHAR
STARTCHAR 003B
ENCODING 59
SWIDTH 320 0
DWIDTH 8 0
BBX 2 17 3 -4
BITMAP
C0
C0
C0
00
00
00
00
00
00
00
C0
C0
C0
40
40
40
80
ENDCHAR
STARTCHAR 003C
ENCODING 60
SWIDTH 800 0
DWIDTH 20 0
BBX 15 15 2 0
BITMAP
0002
000E
003C
00F0
03C0
0F00
3C00
F000
3C00
0F00
03C0
00F0
003C
000E
0002
ENDCHAR
STARTCHAR 003D
ENCODING 61
SWIDTH 800 0
DWIDTH 20 0
BBX 15 7 2 3
BITMAP
FFFE
FFFE
0000
0000
0000
FFFE
FFFE
ENDCHAR
STARTCHAR 003E
ENCODING 62
SWIDTH 800 0
DWIDTH 20 0
BBX 15 15 3 0
BITMAP
8000
E000
7800
1E00
0780
01E0
0078
001E
0078
01E0
0780
1E00
7800
E000
8000
ENDCHAR
STARTCHAR 003F
ENCODING 63
SWIDTH 440 0
DWIDTH 11 0
BBX 10 18 0 0
BITMAP
7E00
FF80
81C0
00C0
00C0
01C0
0180
0300
0600
0C00
1800
1800
1800
0000
0000
1800
1800
1800
ENDCHAR
STARTCHAR 0040
ENCODING 64
SWIDTH 840 0
DWIDTH 21 0
BBX 19 18 1 0
BITMAP
00FC00
030300
040080
080040
10FC40
210C20
421820
461820
841820
8C3820
8C5040
8C7080
8CB100
873E00
400000
200000
181000
07E000
ENDCHAR
STARTCHAR 0041
ENCODING 65
SWIDTH 680 0
DWIDTH 17 0
BBX 17 18 0 0
BITMAP
008000
01C000
01C000
036000
036000
077000
063000
063000
0C1800
0C1800
180C00
1FFC00
3FFE00
300600
300600
600300
600300
C00180
ENDCHAR
STARTCHAR 0042
ENCODING 66
SWIDTH 560 0
DWIDTH 14 0
BBX 11 18 2 0
BITMAP
FF00
FF80
C1C0
C0C0
C0C0
C0C0
C180
C380
FE00
FF00
C3C0
C0C0
C060
C060
C060
C1E0
FFC0
FF00
ENDCHAR
STARTCHAR 0043
ENCODING 67
SWIDTH 680 0
DWIDTH 17 0
BBX 14 18 1 0
BITMAP
07F0
1FFC
3C0C
7000
6000
E000
C000
C000
C000
C000
C000
C000
E000
6000
7004
3C1C
1FF8
07E0
ENDCHAR
STARTCHAR 0044
ENCODING 68
SWIDTH 760 0
DWIDTH 19 0
BBX 15 18 2 0
BITMAP
FFC0
FFF0
C078
C01C
C00C
C00E
C006
C006
C006
C006
C006
C006
C00C
C00C
C018
C078
FFF0
FFC0
ENDCHAR
STARTCHAR 0045
ENCODING 69
SWIDTH 560 0
DWIDTH 14 0
BBX 11 18 2 0
BITMAP
FFC0
FFC0
C000
C000
C000
C000
C000
C000
FF80
FF80
C000
C000
C000
C000
C000
C000
FFE0
FFE0
ENDCHAR
STARTCHAR 0046
ENCODING 70
SWIDTH 520 0
DWIDTH 13 0
BBX 9 18 2 0
BITMAP
FF80
FF80
C000
C000
C000
C000
C000
C000
FF00
FF00
C000
C000
C000
C000
C000
C000
C000
C000
ENDCHAR
STARTCHAR 0047
ENCODING 71
SWIDTH 720 0
DWIDTH 18 0
BBX 14 18 1 0
BITMAP
07F0
1FFC
3C0C
7000
6000
E000
C000
C000
C000
C000
C00C
C00C
E00C
600C
700C
3C0C
1FFC
07F0
ENDCHAR
STARTCHAR 0048
ENCODING 72
SWIDTH 720 0
DWIDTH 18 0
BBX 13 18 2 0
BITMAP
C018
C018
C018
C018
C018
C018
C018
C018
FFF8
FFF8
C018
C018
C018
C018
C018
C018
C018
C018
ENDCHAR
STARTCHAR 0049
ENCODING 73
SWIDTH 280 0
DWIDTH 7 0
BBX 2 18 2 0
BITMAP
C0
C0
C0
C0
C0
C0
C0
C0
C0
C0
C0
C0
C0
C0
C0
C0
C0
C0
ENDCHAR
STARTCHAR 004A
ENCODING 74
SWIDTH 320 0
DWIDTH 8 0
BBX 7 22 -2 -4
BITMAP
06
06
06
06
06
06
06
06
06
06
06
06
06
06
06
06
06
06
06
0C
FC
F0
ENDCHAR
STARTCHAR 004B
ENCODING 75
SWIDTH 640 0
DWIDTH 16 0
BBX 13 18 2 0
BITMAP
C030
C060
C0C0
C180
C300
C600
CC00
D800
F000
D800
CC00
C600
C300
C180
C0C0
C060
C030
C018
ENDCHAR
STARTCHAR 004C
ENCODING 76
SWIDTH 520 0
DWIDTH 13 0
BBX 10 18 2 0
BITMAP
C000
C000
C000
C000
C000
C000
C000
C000
C000
C000
C000
C000
C000
C000
C000
C000
FFC0
FFC0
ENDCHAR
STARTCHAR 004D
ENCODING 77
SWIDTH 880 0
DWIDTH 22 0
BBX 17 18 2 0
BITMAP
E00380
E00380
F00780
F00780
F80F80
D80D80
D80D80
CC1980
CC1980
CE3980
C63180
C63180
C36180
C36180
C1E180
C1C180
C1C180
C00180
ENDCHAR
STARTCHAR 004E
ENCODING 78
SWIDTH 720 0
DWIDTH 18 0
BBX 13 18 2 0
BITMAP
E018
E018
F018
F018
D818
DC18
CC18
C618
C618
C318
C318
C198
C0D8
C0D8
C078
C078
C038
C038
ENDCHAR
STARTCHAR 004F
ENCODING 79
SWIDTH 760 0
DWIDTH 19 0
BBX 16 18 1 0
BITMAP
07E0
1FF8
381C
700E
6006
E007
C003
C003
C003
C003
C003
C003
E007
6006
700E
381C
1FF8
07E0
ENDCHAR
STARTCHAR 0050
ENCODING 80
SWIDTH 560 0
DWIDTH 14 0
BBX 11 18 2 0
BITMAP
FF00
FFC0
C0E0
C060
C060
C060
C0E0
C1C0
FF80
FE00
C000
C000
C000
C000
C000
C000
C000
C000
ENDCHAR
STARTCHAR 0051
ENCODING 81
SWIDTH 760 0
DWIDTH 19 0
BBX 18 22 1 -4
BITMAP
07E000
1FF800
381C00
700E00
600600
E00600
C00300
C00300
C00300
C00300
C00300
C00300
E00700
600600
700E00
381C00
1FF800
07F000
003C00
000F00
0007C0
000180
ENDCHAR
STARTCHAR 0052
ENCODING 82
SWIDTH 640 0
DWIDTH 16 0
BBX 13 18 2 0
BITMAP
FF00
FFC0
C0E0
C060
C060
C060
C0E0
C1C0
FF80
FE00
C300
C300
C180
C0C0
C060
C060
C030
C018
ENDCHAR
STARTCHAR 0053
ENCODING 83
SWIDTH 520 0
DWIDTH 13 0
BBX 10 18 1 0
BITMAP
1F00
7F80
E080
C000
C000
C000
6000
7800
3E00
0F00
0380
01C0
00C0
00C0
00C0
C180
FF80
7E00
ENDCHAR
STARTCHAR 0054
ENCODING 84
SWIDTH 640 0
DWIDTH 16 0
BBX 14 18 1 0
BITMAP
FFFC
FFFC
0300
0300
0300
0300
0300
0300
0300
0300
0300
0300
0300
0300
0300
0300
0300
0300
ENDCHAR
STARTCHAR 0055
ENCODING 85
SWIDTH 680 0
DWIDTH 17 0
BBX 12 18 2 0
BITMAP
C030
C030
C030
C030
C030
C030
C030
C030
C030
C030
C030
C030
C030
C030
E070
70E0
3FC0
1F80
ENDCHAR
STARTCHAR 0056
ENCODING 86
SWIDTH 640 0
DWIDTH 16 0
BBX 15 18 0 0
BITMAP
C006
600C
600C
600C
3018
3018
3838
1830
1830
1C70
0C60
0C60
06C0
06C0
07C0
0380
0380
0380
ENDCHAR
STARTCHAR 0057
ENCODING 87
SWIDTH 840 0
DWIDTH 21 0
BBX 21 18 0 0
BITMAP
C07018
C07018
607030
607830
60D830
60D830
30D860
31DC60
318C60
318C60
198EC0
1B06C0
1B06C0
1B06C0
0F0780
0E0380
0E0380
0E0380
ENDCHAR
STARTCHAR 0058
ENCODING 88
SWIDTH 640 0
DWIDTH 16 0
BBX 15 18 0 0
BITMAP
C006
600C
3018
3838
1830
0C60
06E0
07C0
0380
0380
07C0
0EC0
0C60
1830
3838
3018
600C
C006
ENDCHAR
STARTCHAR 0059
ENCODING 89
SWIDTH 640 0
DWIDTH 16 0
BBX 14 18 1 0
BITMAP
C00C
6018
3038
3030
1860
1C60
0CC0
06C0
0780
0300
0300
0300
0300
0300
0300
0300
0300
0300
ENDCHAR
STARTCHAR 005A
ENCODING 90
SWIDTH 600 0
DWIDTH 15 0
BBX 12 18 1 0
BITMAP
7FF0
7FF0
0070
0060
00C0
01C0
0180
0300
0600
0600
0C00
1800
3800
3000
6000
E000
FFF0
FFF0
ENDCHAR
STARTCHAR 005B
ENCODING 91
SWIDTH 320 0
DWIDTH 8 0
BBX 5 23 2 -4
BITMAP
F8
F8
C0
C0
C0
C0
C0
C0
C0
C0
C0
C0
C0
C0
C0
C0
C0
C0
C0
C0
C0
F8
F8
ENDCHAR
STARTCHAR 005C
ENCODING 92
SWIDTH 520 0
DWIDTH 13 0
BBX 8 22 3 -4
BITMAP
C0
C0
E0
60
60
60
30
30
30
18
18
18
18
0C
0C
0C
06
06
06
07
03
03
ENDCHAR
STARTCHAR 005D
ENCODING 93
SWIDTH 320 0
DWIDTH 8 0
BBX 5 23 1 -4
BITMAP
F8
F8
18
18
18
18
18
18
18
18
18
18
18
18
18
18
18
18
18
18
18
F8
F8
ENDCHAR
STARTCHAR 005E
ENCODING 94
SWIDTH 640 0
DWIDTH 16 0
BBX 13 13 1 5
BITMAP
0200
0200
0700
0700
0D80
0D80
18C0
18C0
3060
3060
6030
6030
C018
ENDCHAR
STARTCHAR 005F
ENCODING 95
SWIDTH 520 0
DWIDTH 13 0
BBX 11 2 1 -2
BITMAP
FFE0
FFE0
ENDCHAR
STARTCHAR 0060
ENCODING 96
SWIDTH 600 0
DWIDTH 15 0
BBX 6 4 5 16
BITMAP
E0
70
18
0C
ENDCHAR
STARTCHAR 0061
ENCODING 97
SWIDTH 560 0
DWIDTH 14 0
BBX 12 13 1 0
BITMAP
3F00
7F80
41C0
00C0
00C0
1FC0
7FC0
E0C0
C0C0
C0C0
E1C0
7FF0
3C70
ENDCHAR
STARTCHAR 0062
ENCODING 98
SWIDTH 640 0
DWIDTH 16 0
BBX 12 19 2 0
BITMAP
C000
C000
C000
C000
C000
C000
CF80
DFC0
F0E0
E070
C030
C030
C030
C030
C030
C060
F0E0
FFC0
CF80
ENDCHAR
STARTCHAR 0063
ENCODING 99
SWIDTH 520 0
DWIDTH 13 0
BBX 10 13 1 0
BITMAP
1F80
3FC0
7040
6000
C000
C000
C000
C000
C000
6000
7040
3FC0
1F80
ENDCHAR
STARTCHAR 0064
ENCODING 100
SWIDTH 640 0
DWIDTH 16 0
BBX 12 19 1 0
BITMAP
0030
0030
0030
0030
0030
0030
1F30
3FF0
70F0
6030
C030
C030
C030
C030
C030
E070
70F0
3FB0
1F30
ENDCHAR
STARTCHAR 0065
ENCODING 101
SWIDTH 560 0
DWIDTH 14 0
BBX 11 13 1 0
BITMAP
1F00
3FC0
70C0
6060
C060
FFE0
FFE0
C000
C000
6000
7020
3FE0
1FC0
ENDCHAR
STARTCHAR 0066
ENCODING 102
SWIDTH 360 0
DWIDTH 9 0
BBX 8 19 1 0
BITMAP
0E
1F
31
30
30
30
FE
FE
30
30
30
30
30
30
30
30
30
30
30
ENDCHAR
STARTCHAR 0067
ENCODING 103
SWIDTH 640 0
DWIDTH 16 0
BBX 12 18 1 -5
BITMAP
1F30
3FF0
70F0
6030
C030
C030
C030
C030
C030
E070
70F0
3FB0
1F30
0030
0070
60E0
7FC0
3F80
ENDCHAR
STARTCHAR 0068
ENCODING 104
SWIDTH 640 0
DWIDTH 16 0
BBX 11 19 2 0
BITMAP
C000
C000
C000
C000
C000
C000
C780
DFC0
F8E0
E060
C060
C060
C060
C060
C060
C060
C060
C060
C060
ENDCHAR
STARTCHAR 0069
ENCODING 105
SWIDTH 280 0
DWIDTH 7 0
BBX 2 18 2 0
BITMAP
C0
C0
00
00
00
C0
C0
C0
C0
C0
C0
C0
C0
C0
C0
C0
C0
C0
ENDCHAR
STARTCHAR 006A
ENCODING 106
SWIDTH 320 0
DWIDTH 8 0
BBX 7 23 -2 -5
BITMAP
06
06
00
00
00
06
06
06
06
06
06
06
06
06
06
06
06
06
06
06
8E
FC
78
ENDCHAR
STARTCHAR 006B
ENCODING 107
SWIDTH 600 0
DWIDTH 15 0
BBX 12 19 2 0
BITMAP
C000
C000
C000
C000
C000
C000
C0E0
C1C0
C380
C700
CC00
D800
F800
DC00
C600
C300
C180
C0C0
C070
ENDCHAR
STARTCHAR 006C
ENCODING 108
SWIDTH 280 0
DWIDTH 7 0
BBX 2 19 2 0
BITMAP
C0
C0
C0
C0
C0
C0
C0
C0
C0
C0
C0
C0
C0
C0
C0
C0
C0
C0
C0
ENDCHAR
STARTCHAR 006D
ENCODING 109
SWIDTH 920 0
DWIDTH 23 0
BBX 18 13 2 0
BITMAP
CF0F00
DF9F80
F1F1C0
E0E0C0
C0C0C0
C0C0C0
C0C0C0
C0C0C0
C0C0C0
C0C0C0
C0C0C0
C0C0C0
C0C0C0
ENDCHAR
STARTCHAR 006E
ENCODING 110
SWIDTH 640 0
DWIDTH 16 0
BBX 11 13 2 0
BITMAP
C780
DFC0
F8E0
E060
C060
C060
C060
C060
C060
C060
C060
C060
C060
ENDCHAR
STARTCHAR 006F
ENCODING 111
SWIDTH 600 0
DWIDTH 15 0
BBX 12 13 1 0
BITMAP
1F80
3FC0
70E0
6060
C030
C030
C030
C030
C030
6060
70E0
3FC0
1F80
ENDCHAR
STARTCHAR 0070
ENCODING 112
SWIDTH 640 0
DWIDTH 16 0
BBX 12 18 2 -5
BITMAP
CF80
DFC0
F0E0
E070
C030
C030
C030
C030
C030
C060
F0E0
FFC0
CF80
C000
C000
C000
C000
C000
ENDCHAR
STARTCHAR 0071
ENCODING 113
SWIDTH 640 0
DWIDTH 16 0
BBX 12 18 1 -5
BITMAP
1F30
3FF0
70F0
6030
C030
C030
C030
C030
C030
E070
70F0
3FB0
1F30
0030
0030
0030
0030
0030
ENDCHAR
STARTCHAR 0072
ENCODING 114
SWIDTH 400 0
DWIDTH 10 0
BBX 7 13 2 0
BITMAP
CE
DE
F0
E0
C0
C0
C0
C0
C0
C0
C0
C0
C0
ENDCHAR
STARTCHAR 0073
ENCODING 115
SWIDTH 520 0
DWIDTH 13 0
BBX 8 13 2 0
BITMAP
3C
7E
C2
C0
E0
78
3E
0F
03
03
87
FE
7C
ENDCHAR
STARTCHAR 0074
ENCODING 116
SWIDTH 360 0
DWIDTH 9 0
BBX 7 16 0 0
BITMAP
30
30
30
FE
FE
30
30
30
30
30
30
30
30
30
3E
1E
ENDCHAR
STARTCHAR 0075
ENCODING 117
SWIDTH 640 0
DWIDTH 16 0
BBX 11 13 2 0
BITMAP
C060
C060
C060
C060
C060
C060
C060
C060
C060
C0E0
E3E0
7F60
3C60
ENDCHAR
STARTCHAR 0076
ENCODING 118
SWIDTH 520 0
DWIDTH 13 0
BBX 11 13 0 0
BITMAP
C060
60C0
60C0
60C0
3180
3180
3180
1B00
1B00
1B00
0E00
0E00
0E00
ENDCHAR
STARTCHAR 0077
ENCODING 119
SWIDTH 760 0
DWIDTH 19 0
BBX 19 13 0 0
BITMAP
C0E060
60E0C0
60E0C0
61B0C0
31B180
31B180
33B980
1B1B00
1B1B00
1B1B00
0E0E00
0E0E00
0E0E00
ENDCHAR
STARTCHAR 0078
ENCODING 120
SWIDTH 600 0
DWIDTH 15 0
BBX 12 13 1 0
BITMAP
C030
6060
30E0
18C0
1D80
0F00
0700
0F00
1B80
39C0
30C0
6060
C030
ENDCHAR
STARTCHAR 0079
ENCODING 121
SWIDTH 520 0
DWIDTH 13 0
BBX 12 18 0 -5
BITMAP
C030
C070
6060
6060
30E0
30C0
30C0
1980
1980
1B80
0F00
0F00
0600
0600
0E00
0C00
1C00
1800
ENDCHAR
STARTCHAR 007A
ENCODING 122
SWIDTH 560 0
DWIDTH 14 0
BBX 11 13 1 0
BITMAP
FFE0
FFE0
00E0
01C0
0380
0700
0E00
1C00
3800
7000
E000
FFE0
FFE0
ENDCHAR
STARTCHAR 007B
ENCODING 123
SWIDTH 320 0
DWIDTH 8 0
BBX 6 23 0 -4
BITMAP
0C
1C
30
30
30
38
18
18
18
30
F0
F0
30
18
18
18
18
38
30
30
30
1C
0C
ENDCHAR
STARTCHAR 007C
ENCODING 124
SWIDTH 360 0
DWIDTH 9 0
BBX 2 23 3 -4
BITMAP
C0
C0
C0
C0
C0
C0
C0
C0
C0
C0
C0
C0
C0
C0
C0
C0
C0
C0
C0
C0
C0
C0
C0
ENDCHAR
STARTCHAR 007D
ENCODING 125
SWIDTH 320 0
DWIDTH 8 0
BBX 6 23 2 -4
BITMAP
C0
E0
30
30
30
70
60
60
60
30
3C
3C
30
60
60
60
60
70
30
30
30
E0
C0
ENDCHAR
STARTCHAR 007E
ENCODING 126
SWIDTH 640 0
DWIDTH 16 0
BBX 13 4 1 5
BITMAP
3818
7F18
C7F0
C0E0
ENDCHAR
STARTCHAR 00A0
ENCODING 160
SWIDTH 280 0
DWIDTH 7 0
BBX 1 1 0 0
BITMAP
00
ENDCHAR
STARTCHAR 00A1
ENCODING 161
SWIDTH 320 0
DWIDTH 8 0
BBX 2 18 3 -5
BITMAP
C0
C0
C0
00
00
C0
C0
C0
C0
C0
C0
C0
C0
C0
C0
C0
C0
C0
ENDCHAR
STARTCHAR 00A2
ENCODING 162
SWIDTH 640 0
DWIDTH 16 0
BBX 10 18 3 0
BITMAP
0400
0400
0400
1F80
3FC0
74C0
E400
C400
C400
C400
C400
C400
6400
7440
3FC0
1F80
0400
0400
ENDCHAR
STARTCHAR 00A3
ENCODING 163
SWIDTH 640 0
DWIDTH 16 0
BBX 11 18 3 0
BITMAP
03C0
0FE0
0C20
1800
1800
1800
1800
1800
FF00
FF00
1800
1800
1800
1800
3000
6000
FFE0
FFE0
ENDCHAR
STARTCHAR 00A4
ENCODING 164
SWIDTH 640 0
DWIDTH 16 0
BBX 13 13 1 2
BITMAP
4010
EFB8
7FF0
38E0
7070
6030
6030
6030
7070
38E0
7FF0
EFB8
4010
ENDCHAR
STARTCHAR 00A5
ENCODING 165
SWIDTH 640 0
DWIDTH 16 0
BBX 14 18 1 0
BITMAP
E01C
6018
3030
3870
1860
0CC0
0FC0
0780
0300
3FF0
3FF0
0300
3FF0
3FF0
0300
0300
0300
0300
ENDCHAR
STARTCHAR 00A6
ENCODING 166
SWIDTH 360 0
DWIDTH 9 0
BBX 2 23 3 -4
BITMAP
C0
C0
C0
C0
C0
C0
C0
C0
C0
00
00
00
00
00
C0
C0
C0
C0
C0
C0
C0
C0
C0
ENDCHAR
STARTCHAR 00A7
ENCODING 167
SWIDTH 640 0
DWIDTH 16 0
BBX 10 22 3 -4
BITMAP
1F00
7F80
E080
C000
C000
E000
7800
3E00
4F80
C1C0
C0C0
C0C0
E0C0
7D80
1F00
0780
01C0
00C0
00C0
C1C0
FF80
7E00
ENDCHAR
STARTCHAR 00A8
ENCODING 168
SWIDTH 600 0
DWIDTH 15 0
BBX 7 2 4 16
BITMAP
C6
C6
ENDCHAR
STARTCHAR 00A9
ENCODING 169
SWIDTH 840 0
DWIDTH 21 0
BBX 19 19 1 0
BITMAP
03F800
0C0600
100100
200080
41F040
431840
860020
8C0020
8C0020
8C0020
8C0020
8C0020
860020
430840
41F040
200080
100100
0C0600
03F800
ENDCHAR
STARTCHAR 00AA
ENCODING 170
SWIDTH 480 0
DWIDTH 12 0
BBX 8 9 2 10
BITMAP
7C
86
06
06
3E
E6
C6
C6
7B
ENDCHAR
STARTCHAR 00AB
ENCODING 171
SWIDTH 520 0
DWIDTH 13 0
BBX 11 11 1 1
BITMAP
0420
0C60
18C0
3180
6300
C600
6300
3180
18C0
0840
0420
ENDCHAR
STARTCHAR 00AC
ENCODING 172
SWIDTH 800 0
DWIDTH 20 0
BBX 15 7 2 4
BITMAP
FFFE
FFFE
0006
0006
0006
0006
0006
ENDCHAR
STARTCHAR 00AD
ENCODING 173
SWIDTH 560 0
DWIDTH 14 0
BBX 10 2 2 6
BITMAP
FFC0
FFC0
ENDCHAR
STARTCHAR 00AE
ENCODING 174
SWIDTH 640 0
DWIDTH 16 0
BBX 11 11 2 8
BITMAP
1F00
3180
5E40
9160
9120
9E20
9220
9220
5140
2180
1F00
ENDCHAR
STARTCHAR 00AF
ENCODING 175
SWIDTH 520 0
DWIDTH 13 0
BBX 10 2 1 18
BITMAP
FFC0
FFC0
ENDCHAR
STARTCHAR 00B0
ENCODING 176
SWIDTH 440 0
DWIDTH 11 0
BBX 7 7 2 13
BITMAP
38
7C
C6
C6
C6
7C
38
ENDCHAR
STARTCHAR 00B1
ENCODING 177
SWIDTH 800 0
DWIDTH 20 0
BBX 16 14 2 0
BITMAP
0180
0180
0180
0180
FFFF
FFFF
0180
0180
0180
0180
0000
0000
FFFF
FFFF
ENDCHAR
STARTCHAR 00B2
ENCODING 178
SWIDTH 440 0
DWIDTH 11 0
BBX 7 11 2 7
BITMAP
78
8C
06
06
06
0C
18
30
60
C0
FE
ENDCHAR
STARTCHAR 00B3
ENCODING 179
SWIDTH 440 0
DWIDTH 11 0
BBX 7 11 2 7
BITMAP
7C
8E
06
06
0C
78
0C
06
06
8E
7C
ENDCHAR
STARTCHAR 00B4
ENCODING 180
SWIDTH 600 0
DWIDTH 15 0
BBX 6 4 5 16
BITMAP
1C
30
60
C0
ENDCHAR
STARTCHAR 00B5
ENCODING 181
SWIDTH 640 0
DWIDTH 16 0
BBX 11 18 2 -5
BITMAP
C060
C060
C060
C060
C060
C060
C060
C060
C060
C0E0
E3E0
FF60
DE60
C000
C000
C000
C000
C000
ENDCHAR
STARTCHAR 00B6
ENCODING 182
SWIDTH 640 0
DWIDTH 16 0
BBX 11 22 3 -4
BITMAP
3FE0
7FE0
FE60
FE60
FE60
FE60
7E60
7E60
1E60
0660
0660
0660
0660
0660
0660
0660
0660
0660
0660
0660
0660
0660
ENDCHAR
STARTCHAR 00B7
ENCODING 183
SWIDTH 320 0
DWIDTH 8 0
BBX 3 3 2 6
BITMAP
E0
E0
E0
ENDCHAR
STARTCHAR 00B8
ENCODING 184
SWIDTH 600 0
DWIDTH 15 0
BBX 4 5 7 -5
BITMAP
40
E0
30
30
E0
ENDCHAR
STARTCHAR 00B9
ENCODING 185
SWIDTH 440 0
DWIDTH 11 0
BBX 6 11 3 7
BITMAP
30
F0
30
30
30
30
30
30
30
30
FC
ENDCHAR
STARTCHAR 00BA
ENCODING 186
SWIDTH 480 0
DWIDTH 12 0
BBX 9 9 1 10
BITMAP
3E00
6300
C180
C180
C180
C180
C180
6300
3E00
ENDCHAR
STARTCHAR 00BB
ENCODING 187
SWIDTH 520 0
DWIDTH 13 0
BBX 11 11 1 1
BITMAP
8400
C600
6300
3180
18C0
0C60
18C0
3180
6300
4200
8400
ENDCHAR
STARTCHAR 00BC
ENCODING 188
SWIDTH 800 0
DWIDTH 20 0
BBX 18 18 1 0
BITMAP
300100
F00200
300400
300800
300800
301000
302000
304300
308700
308B00
311B00
021300
042300
084300
087FC0
100300
200300
400300
ENDCHAR
STARTCHAR 00BD
ENCODING 189
SWIDTH 800 0
DWIDTH 20 0
BBX 18 18 1 0
BITMAP
300200
F00400
300800
301000
301000
302000
304000
308F00
3111C0
3100C0
3200C0
0400C0
080180
100300
100600
200C00
401800
801FC0
ENDCHAR
STARTCHAR 00BE
ENCODING 190
SWIDTH 800 0
DWIDTH 20 0
BBX 18 18 1 0
BITMAP
7C0080
8E0100
060200
060400
0C0400
780800
0C1000
062300
064700
8E4B00
7C9B00
011300
022300
044300
047FC0
080300
100300
200300
ENDCHAR
STARTCHAR 00BF
ENCODING 191
SWIDTH 440 0
DWIDTH 11 0
BBX 10 18 0 -5
BITMAP
0600
0600
0600
0000
0000
0600
0600
0600
0C00
1800
3000
6000
E000
C000
C000
E040
7FC0
1F80
ENDCHAR
STARTCHAR 00C0
ENCODING 192
SWIDTH 680 0
DWIDTH 17 0
BBX 17 24 0 0
BITMAP
070000
038000
00C000
006000
000000
000000
008000
01C000
01C000
036000
036000
077000
063000
063000
0C1800
0C1800
180C00
1FFC00
3FFE00
300600
300600
600300
600300
C00180
ENDCHAR
STARTCHAR 00C1
ENCODING 193
SWIDTH 680 0
DWIDTH 17 0
BBX 17 24 0 0
BITMAP
003800
006000
00C000
018000
000000
000000
008000
01C000
01C000
036000
036000
077000
063000
063000
0C1800
0C1800
180C00
1FFC00
3FFE00
300600
300600
600300
600300
C00180
ENDCHAR
STARTCHAR 00C2
ENCODING 194
SWIDTH 680 0
DWIDTH 17 0
BBX 17 24 0 0
BITMAP
01C000
036000
036000
063000
000000
000000
008000
01C000
01C000
036000
036000
077000
063000
063000
0C1800
0C1800
180C00
1FFC00
3FFE00
300600
300600
600300
600300
C00180
ENDCHAR
STARTCHAR 00C3
ENCODING 195
SWIDTH 680 0
DWIDTH 17 0
BBX 17 23 0 0
BITMAP
039800
07F800
067000
000000
000000
008000
01C000
01C000
036000
036000
077000
063000
063000
0C1800
0C1800
180C00
1FFC00
3FFE00
300600
300600
600300
600300
C00180
ENDCHAR
STARTCHAR 00C4
ENCODING 196
SWIDTH 680 0
DWIDTH 17 0
BBX 17 22 0 0
BITMAP
063000
063000
000000
000000
008000
01C000
01C000
036000
036000
077000
063000
063000
0C1800
0C1800
180C00
1FFC00
3FFE00
300600
300600
600300
600300
C00180
ENDCHAR
STARTCHAR 00C5
ENCODING 197
SWIDTH 680 0
DWIDTH 17 0
BBX 17 24 0 0
BITMAP
01E000
033000
021000
021000
033000
01E000
008000
01C000
01C000
036000
036000
077000
063000
063000
0C1800
0C1800
180C00
1FFC00
3FFE00
300600
300600
600300
600300
C00180
ENDCHAR
STARTCHAR 00C6
ENCODING 198
SWIDTH 920 0
DWIDTH 23 0
BBX 22 18 0 0
BITMAP
003FF8
003FF8
007800
00F800
00D800
019800
019800
031800
071FF0
061FF0
0C1800
0FF800
1FF800
381800
301800
601800
601FFC
C01FFC
ENDCHAR
STARTCHAR 00C7
ENCODING 199
SWIDTH 680 0
DWIDTH 17 0
BBX 14 23 1 -5
BITMAP
07F0
1FFC
3C0C
7000
6000
E000
C000
C000
C000
C000
C000
C000
E000
6000
7004
3C1C
1FF8
07E0
0080
01C0
0060
0060
01C0
ENDCHAR
STARTCHAR 00C8
ENCODING 200
SWIDTH 560 0
DWIDTH 14 0
BBX 11 24 2 0
BITMAP
3800
1C00
0600
0300
0000
0000
FFC0
FFC0
C000
C000
C000
C000
C000
C000
FF80
FF80
C000
C000
C000
C000
C000
C000
FFE0
FFE0
ENDCHAR
STARTCHAR 00C9
ENCODING 201
SWIDTH 560 0
DWIDTH 14 0
BBX 11 24 2 0
BITMAP
01C0
0300
0600
0C00
0000
0000
FFC0
FFC0
C000
C000
C000
C000
C000
C000
FF80
FF80
C000
C000
C000
C000
C000
C000
FFE0
FFE0
ENDCHAR
STARTCHAR 00CA
ENCODING 202
SWIDTH 560 0
DWIDTH 14 0
BBX 11 24 2 0
BITMAP
0E00
1B00
1B00
3180
0000
0000
FFC0
FFC0
C000
C000
C000
C000
C000
C000
FF80
FF80
C000
C000
C000
C000
C000
C000
FFE0
FFE0
ENDCHAR
STARTCHAR 00CB
ENCODING 203
SWIDTH 560 0
DWIDTH 14 0
BBX 11 22 2 0
BITMAP
3180
3180
0000
0000
FFC0
FFC0
C000
C000
C000
C000
C000
C000
FF80
FF80
C000
C000
C000
C000
C000
C000
FFE0
FFE0
ENDCHAR
STARTCHAR 00CC
ENCODING 204
SWIDTH 280 0
DWIDTH 7 0
BBX 6 24 -1 0
BITMAP
E0
70
18
0C
00
00
18
18
18
18
18
18
18
18
18
18
18
18
18
18
18
18
18
18
ENDCHAR
STARTCHAR 00CD
ENCODING 205
SWIDTH 280 0
DWIDTH 7 0
BBX 6 24 1 0
BITMAP
1C
30
60
C0
00
00
60
60
60
60
60
60
60
60
60
60
60
60
60
60
60
60
60
60
ENDCHAR
STARTCHAR 00CE
ENCODING 206
SWIDTH 280 0
DWIDTH 7 0
BBX 7 24 0 0
BITMAP
38
6C
6C
C6
00
00
30
30
30
30
30
30
30
30
30
30
30
30
30
30
30
30
30
30
ENDCHAR
STARTCHAR 00CF
ENCODING 207
SWIDTH 280 0
DWIDTH 7 0
BBX 7 22 0 0
BITMAP
C6
C6
00
00
30
30
30
30
30
30
30
30
30
30
30
30
30
30
30
30
30
30
ENDCHAR
STARTCHAR 00D0
ENCODING 208
SWIDTH 760 0
DWIDTH 19 0
BBX 18 18 -1 0
BITMAP
1FF800
1FFE00
180F00
180380
180180
1801C0
1800C0
1800C0
FF80C0
FF80C0
1800C0
1800C0
180180
180180
180300
180F00
1FFE00
1FF800
ENDCHAR
STARTCHAR 00D1
ENCODING 209
SWIDTH 720 0
DWIDTH 18 0
BBX 13 23 2 0
BITMAP
0E60
1FE0
19C0
0000
0000
E018
E018
F018
F018
D818
DC18
CC18
C618
C618
C318
C318
C198
C0D8
C0D8
C078
C078
C038
C038
ENDCHAR
STARTCHAR 00D2
ENCODING 210
SWIDTH 760 0
DWIDTH 19 0
BBX 16 24 1 0
BITMAP
0E00
0700
0180
00C0
0000
0000
07E0
1FF8
381C
700E
6006
E007
C003
C003
C003
C003
C003
C003
E007
6006
700E
381C
1FF8
07E0
ENDCHAR
STARTCHAR 00D3
ENCODING 211
SWIDTH 760 0
DWIDTH 19 0
BBX 16 24 1 0
BITMAP
0070
00C0
0180
0300
0000
0000
07E0
1FF8
381C
700E
6006
E007
C003
C003
C003
C003
C003
C003
E007
6006
700E
381C
1FF8
07E0
ENDCHAR
STARTCHAR 00D4
ENCODING 212
SWIDTH 760 0
DWIDTH 19 0
BBX 16 24 1 0
BITMAP
01C0
0360
0360
0630
0000
0000
07E0
1FF8
381C
700E
6006
E007
C003
C003
C003
C003
C003
C003
E007
6006
700E
381C
1FF8
07E0
ENDCHAR
STARTCHAR 00D5
ENCODING 213
SWIDTH 760 0
DWIDTH 19 0
BBX 16 23 1 0
BITMAP
0730
0FF0
0CE0
0000
0000
07E0
1FF8
381C
700E
6006
E007
C003
C003
C003
C003
C003
C003
E007
6006
700E
381C
1FF8
07E0
ENDCHAR
STARTCHAR 00D6
ENCODING 214
SWIDTH 760 0
DWIDTH 19 0
BBX 16 22 1 0
BITMAP
0630
0630
0000
0000
07E0
1FF8
381C
700E
6006
E007
C003
C003
C003
C003
C003
C003
E007
6006
700E
381C
1FF8
07E0
ENDCHAR
STARTCHAR 00D7
ENCODING 215
SWIDTH 800 0
DWIDTH 20 0
BBX 14 14 3 0
BITMAP
4008
E01C
7038
3870
1CE0
0FC0
0780
0780
0FC0
1CE0
3870
7038
E01C
4008
ENDCHAR
STARTCHAR 00D8
ENCODING 216
SWIDTH 760 0
DWIDTH 19 0
BBX 16 18 1 0
BITMAP
07E3
1FFE
381C
701E
603E
E037
C063
C0C3
C1C3
C383
C303
C603
EC07
7C06
780E
381C
7FF8
C7E0
ENDCHAR
STARTCHAR 00D9
ENCODING 217
SWIDTH 680 0
DWIDTH 17 0
BBX 12 24 2 0
BITMAP
3800
1C00
0600
0300
0000
0000
C030
C030
C030
C030
C030
C030
C030
C030
C030
C030
C030
C030
C030
C030
E070
70E0
3FC0
1F80
ENDCHAR
STARTCHAR 00DA
ENCODING 218
SWIDTH 680 0
DWIDTH 17 0
BBX 12 24 2 0
BITMAP
01C0
0300
0600
0C00
0000
0000
C030
C030
C030
C030
C030
C030
C030
C030
C030
C030
C030
C030
C030
C030
E070
70E0
3FC0
1F80
ENDCHAR
STARTCHAR 00DB
ENCODING 219
SWIDTH 680 0
DWIDTH 17 0
BBX 12 24 2 0
BITMAP
0700
0D80
0D80
18C0
0000
0000
C030
C030
C030
C030
C030
C030
C030
C030
C030
C030
C030
C030
C030
C030
E070
70E0
3FC0
1F80
ENDCHAR
STARTCHAR 00DC
ENCODING 220
SWIDTH 680 0
DWIDTH 17 0
BBX 12 22 2 0
BITMAP
18C0
18C0
0000
0000
C030
C030
C030
C030
C030
C030
C030
C030
C030
C030
C030
C030
C030
C030
E070
70E0
3FC0
1F80
ENDCHAR
STARTCHAR 00DD
ENCODING 221
SWIDTH 640 0
DWIDTH 16 0
BBX 14 24 1 0
BITMAP
00E0
0180
0300
0600
0000
0000
C00C
6018
3038
3030
1860
1C60
0CC0
06C0
0780
0300
0300
0300
0300
0300
0300
0300
0300
0300
ENDCHAR
STARTCHAR 00DE
ENCODING 222
SWIDTH 560 0
DWIDTH 14 0
BBX 11 18 2 0
BITMAP
C000
C000
C000
C000
FF00
FFC0
C1E0
C060
C060
C060
C0E0
C1C0
FF80
FE00
C000
C000
C000
C000
ENDCHAR
STARTCHAR 00DF
ENCODING 223
SWIDTH 600 0
DWIDTH 15 0
BBX 12 19 2 0
BITMAP
3E00
7F00
E380
C180
C180
C300
C600
CC00
CC00
CC00
C600
C380
C1C0
C060
C030
C030
C870
CFE0
C7C0
ENDCHAR
STARTCHAR 00E0
ENCODING 224
SWIDTH 560 0
DWIDTH 14 0
BBX 12 20 1 0
BITMAP
3800
1C00
0600
0300
0000
0000
0000
3F00
7F80
41C0
00C0
00C0
1FC0
7FC0
E0C0
C0C0
C0C0
E1C0
7FF0
3C70
ENDCHAR
STARTCHAR 00E1
ENCODING 225
SWIDTH 560 0
DWIDTH 14 0
BBX 12 20 1 0
BITMAP
0380
0600
0C00
1800
0000
0000
0000
3F00
7F80
41C0
00C0
00C0
1FC0
7FC0
E0C0
C0C0
C0C0
E1C0
7FF0
3C70
ENDCHAR
STARTCHAR 00E2
ENCODING 226
SWIDTH 560 0
DWIDTH 14 0
BBX 12 20 1 0
BITMAP
0E00
1B00
1B00
3180
0000
0000
0000
3F00
7F80
41C0
00C0
00C0
1FC0
7FC0
E0C0
C0C0
C0C0
E1C0
7FF0
3C70
ENDCHAR
STARTCHAR 00E3
ENCODING 227
SWIDTH 560 0
DWIDTH 14 0
BBX 12 19 1 0
BITMAP
1CC0
3FC0
3380
0000
0000
0000
3F00
7F80
41C0
00C0
00C0
1FC0
7FC0
E0C0
C0C0
C0C0
E1C0
7FF0
3C70
ENDCHAR
STARTCHAR 00E4
ENCODING 228
SWIDTH 560 0
DWIDTH 14 0
BBX 12 18 1 0
BITMAP
3180
3180
0000
0000
0000
3F00
7F80
41C0
00C0
00C0
1FC0
7FC0
E0C0
C0C0
C0C0
E1C0
7FF0
3C70
ENDCHAR
STARTCHAR 00E5
ENCODING 229
SWIDTH 560 0
DWIDTH 14 0
BBX 12 22 1 0
BITMAP
0F00
1980
1080
1080
1980
0F00
0000
0000
0000
3F00
7F80
41C0
00C0
00C0
1FC0
7FC0
E0C0
C0C0
C0C0
E1C0
7FF0
3C70
ENDCHAR
STARTCHAR 00E6
ENCODING 230
SWIDTH 840 0
DWIDTH 21 0
BBX 18 13 1 0
BITMAP
3F1E00
7FBF80
41E180
00C0C0
00C0C0
1FFFC0
7FFFC0
E0C000
C0C000
C0E000
E1F040
7F3FC0
3C1F80
ENDCHAR
STARTCHAR 00E7
ENCODING 231
SWIDTH 520 0
DWIDTH 13 0
BBX 10 18 1 -5
BITMAP
1F80
3FC0
7040
6000
C000
C000
C000
C000
C000
6000
7040
3FC0
1F80
0200
0700
0180
0180
0700
ENDCHAR
STARTCHAR 00E8
ENCODING 232
SWIDTH 560 0
DWIDTH 14 0
BBX 11 20 1 0
BITMAP
3800
1C00
0600
0300
0000
0000
0000
1F00
3FC0
70C0
6060
C060
FFE0
FFE0
C000
C000
6000
7020
3FE0
1FC0
ENDCHAR
STARTCHAR 00E9
ENCODING 233
SWIDTH 560 0
DWIDTH 14 0
BBX 11 20 1 0
BITMAP
01C0
0300
0600
0C00
0000
0000
0000
1F00
3FC0
70C0
6060
C060
FFE0
FFE0
C000
C000
6000
7020
3FE0
1FC0
ENDCHAR
STARTCHAR 00EA
ENCODING 234
SWIDTH 560 0
DWIDTH 14 0
BBX 11 20 1 0
BITMAP
0700
0D80
0D80
18C0
0000
0000
0000
1F00
3FC0
70C0
6060
C060
FFE0
FFE0
C000
C000
6000
7020
3FE0
1FC0
ENDCHAR
STARTCHAR 00EB
ENCODING 235
SWIDTH 560 0
DWIDTH 14 0
BBX 11 18 1 0
BITMAP
18C0
18C0
0000
0000
0000
1F00
3FC0
70C0
6060
C060
FFE0
FFE0
C000
C000
6000
7020
3FE0
1FC0
ENDCHAR
STARTCHAR 00EC
ENCODING 236
SWIDTH 280 0
DWIDTH 7 0
BBX 6 20 -1 0
BITMAP
E0
70
18
0C
00
00
00
18
18
18
18
18
18
18
18
18
18
18
18
18
ENDCHAR
STARTCHAR 00ED
ENCODING 237
SWIDTH 280 0
DWIDTH 7 0
BBX 6 20 1 0
BITMAP
1C
30
60
C0
00
00
00
60
60
60
60
60
60
60
60
60
60
60
60
60
ENDCHAR
STARTCHAR 00EE
ENCODING 238
SWIDTH 280 0
DWIDTH 7 0
BBX 7 20 0 0
BITMAP
38
6C
6C
C6
00
00
00
30
30
30
30
30
30
30
30
30
30
30
30
30
ENDCHAR
STARTCHAR 00EF
ENCODING 239
SWIDTH 280 0
DWIDTH 7 0
BBX 7 18 0 0
BITMAP
C6
C6
00
00
00
30
30
30
30
30
30
30
30
30
30
30
30
30
ENDCHAR
STARTCHAR 00F0
ENCODING 240
SWIDTH 600 0
DWIDTH 15 0
BBX 12 20 1 0
BITMAP
0200
F700
FE00
1F00
3B80
1180
00C0
0FE0
3FE0
70F0
6070
C030
C030
C030
C030
C030
6060
70E0
3FC0
1F00
ENDCHAR
STARTCHAR 00F1
ENCODING 241
SWIDTH 640 0
DWIDTH 16 0
BBX 11 19 2 0
BITMAP
1CC0
3FC0
3380
0000
0000
0000
C780
DFC0
F8E0
E060
C060
C060
C060
C060
C060
C060
C060
C060
C060
ENDCHAR
STARTCHAR 00F2
ENCODING 242
SWIDTH 600 0
DWIDTH 15 0
BBX 12 20 1 0
BITMAP
3800
1C00
0600
0300
0000
0000
0000
1F80
3FC0
70E0
6060
C030
C030
C030
C030
C030
6060
70E0
3FC0
1F80
ENDCHAR
STARTCHAR 00F3
ENCODING 243
SWIDTH 600 0
DWIDTH 15 0
BBX 12 20 1 0
BITMAP
01C0
0300
0600
0C00
0000
0000
0000
1F80
3FC0
70E0
6060
C030
C030
C030
C030
C030
6060
70E0
3FC0
1F80
ENDCHAR
STARTCHAR 00F4
ENCODING 244
SWIDTH 600 0
DWIDTH 15 0
BBX 12 20 1 0
BITMAP
0700
0D80
0D80
18C0
0000
0000
0000
1F80
3FC0
70E0
6060
C030
C030
C030
C030
C030
6060
70E0
3FC0
1F80
ENDCHAR
STARTCHAR 00F5
ENCODING 245
SWIDTH 600 0
DWIDTH 15 0
BBX 12 19 1 0
BITMAP
1CC0
3FC0
3380
0000
0000
0000
1F80
3FC0
70E0
6060
C030
C030
C030
C030
C030
6060
70E0
3FC0
1F80
ENDCHAR
STARTCHAR 00F6
ENCODING 246
SWIDTH 600 0
DWIDTH 15 0
BBX 12 18 1 0
BITMAP
18C0
18C0
0000
0000
0000
1F80
3FC0
70E0
6060
C030
C030
C030
C030
C030
6060
70E0
3FC0
1F80
ENDCHAR
STARTCHAR 00F7
ENCODING 247
SWIDTH 800 0
DWIDTH 20 0
BBX 15 14 2 0
BITMAP
0380
0380
0380
0000
0000
0000
FFFE
FFFE
0000
0000
0000
0380
0380
0380
ENDCHAR
STARTCHAR 00F8
ENCODING 248
SWIDTH 600 0
DWIDTH 15 0
BBX 12 13 1 0
BITMAP
1F70
3FE0
70E0
E1E0
C3B0
C330
C630
CC30
DC30
F870
70E0
7FC0
EF80
ENDCHAR
STARTCHAR 00F9
ENCODING 249
SWIDTH 640 0
DWIDTH 16 0
BBX 11 20 2 0
BITMAP
3800
1C00
0600
0300
0000
0000
0000
C060
C060
C060
C060
C060
C060
C060
C060
C060
C0E0
E3E0
7F60
3C60
ENDCHAR
STARTCHAR 00FA
ENCODING 250
SWIDTH 640 0
DWIDTH 16 0
BBX 11 20 2 0
BITMAP
01C0
0300
0600
0C00
0000
0000
0000
C060
C060
C060
C060
C060
C060
C060
C060
C060
C0E0
E3E0
7F60
3C60
ENDCHAR
STARTCHAR 00FB
ENCODING 251
SWIDTH 640 0
DWIDTH 16 0
BBX 11 20 2 0
BITMAP
0E00
1B00
1B00
3180
0000
0000
0000
C060
C060
C060
C060
C060
C060
C060
C060
C060
C0E0
E3E0
7F60
3C60
ENDCHAR
STARTCHAR 00FC
ENCODING 252
SWIDTH 640 0
DWIDTH 16 0
BBX 11 18 2 0
BITMAP
3180
3180
0000
0000
0000
C060
C060
C060
C060
C060
C060
C060
C060
C060
C0E0
E3E0
7F60
3C60
ENDCHAR
STARTCHAR 00FD
ENCODING 253
SWIDTH 520 0
DWIDTH 13 0
BBX 12 25 0 -5
BITMAP
01C0
0300
0600
0C00
0000
0000
0000
C030
C070
6060
6060
30E0
30C0
30C0
1980
1980
1B80
0F00
0F00
0600
0600
0E00
0C00
1C00
1800
ENDCHAR
STARTCHAR 00FE
ENCODING 254
SWIDTH 640 0
DWIDTH 16 0
BBX 12 24 2 -5
BITMAP
C000
C000
C000
C000
C000
C000
CF80
DFC0
F0E0
C070
C030
C030
C030
C030
C030
C060
F0E0
FFC0
CF80
C000
C000
C000
C000
C000
ENDCHAR
STARTCHAR 00FF
ENCODING 255
SWIDTH 520 0
DWIDTH 13 0
BBX 12 23 0 -5
BITMAP
18C0
18C0
0000
0000
0000
C030
C070
6060
6060
30E0
30C0
30C0
1980
1980
1B80
0F00
0F00
0600
0600
0E00
0C00
1C00
1800
ENDCHAR
STARTCHAR 0100
ENCODING 256
SWIDTH 680 0
DWIDTH 17 0
BBX 17 21 0 0
BITMAP
07F800
07F800
000000
008000
01C000
01C000
036000
036000
077000
063000
063000
0C1800
0C1800
180C00
1FFC00
3FFE00
300600
300600
600300
600300
C00180
ENDCHAR
STARTCHAR 0101
ENCODING 257
SWIDTH 560 0
DWIDTH 14 0
BBX 12 18 1 0
BITMAP
3FC0
3FC0
0000
0000
0000
3F00
7F80
41C0
00C0
00C0
1FC0
7FC0
E0C0
C0C0
C0C0
E1C0
7FF0
3C70
ENDCHAR
STARTCHAR 0102
ENCODING 258
SWIDTH 680 0
DWIDTH 17 0
BBX 17 23 0 0
BITMAP
061800
073800
03F000
01E000
000000
008000
01C000
01C000
036000
036000
077000
063000
063000
0C1800
0C1800
180C00
1FFC00
3FFE00
300600
300600
600300
600300
C00180
ENDCHAR
STARTCHAR 0103
ENCODING 259
SWIDTH 560 0
DWIDTH 14 0
BBX 12 20 1 0
BITMAP
30C0
39C0
1F80
0F00
0000
0000
0000
3F00
7F80
41C0
00C0
00C0
1FC0
7FC0
E0C0
C0C0
C0C0
E1C0
7FF0
3C70
ENDCHAR
STARTCHAR 0104
ENCODING 260
SWIDTH 680 0
DWIDTH 17 0
BBX 17 23 0 -5
BITMAP
008000
01C000
01C000
036000
036000
077000
063000
063000
0C1800
0C1800
180C00
1FFC00
3FFE00
300600
700600
600300
600300
C00180
000100
000200
000600
000600
000380
ENDCHAR
STARTCHAR 0105
ENCODING 261
SWIDTH 560 0
DWIDTH 14 0
BBX 12 18 1 -5
BITMAP
3F00
7F80
41C0
00C0
00C0
1FC0
7FC0
E0C0
C0C0
C0C0
E1C0
7FF0
3C70
0020
0040
00C0
00C0
0070
ENDCHAR
STARTCHAR 0106
ENCODING 262
SWIDTH 680 0
DWIDTH 17 0
BBX 14 23 1 0
BITMAP
0038
0060
00C0
0180
0000
07F0
1FFC
3C0C
7000
6000
E000
C000
C000
C000
C000
C000
C000
E000
6000
7004
3C1C
1FF8
07E0
ENDCHAR
STARTCHAR 0107
ENCODING 263
SWIDTH 520 0
DWIDTH 13 0
BBX 10 20 1 0
BITMAP
01C0
0300
0600
0C00
0000
0000
0000
1F80
3FC0
7040
6000
C000
C000
C000
C000
C000
6000
7040
3FC0
1F80
ENDCHAR
STARTCHAR 0108
ENCODING 264
SWIDTH 680 0
DWIDTH 17 0
BBX 14 24 1 0
BITMAP
01C0
0360
0360
0630
0000
0000
07F0
1FFC
3C0C
7000
6000
E000
C000
C000
C000
C000
C000
C000
E000
6000
7004
3C1C
1FF8
07E0
ENDCHAR
STARTCHAR 0109
ENCODING 265
SWIDTH 520 0
DWIDTH 13 0
BBX 10 20 1 0
BITMAP
0E00
1B00
1B00
3180
0000
0000
0000
1F80
3FC0
7040
6000
C000
C000
C000
C000
C000
6000
7040
3FC0
1F80
ENDCHAR
STARTCHAR 010A
ENCODING 266
SWIDTH 680 0
DWIDTH 17 0
BBX 14 21 1 0
BITMAP
00C0
00C0
0000
07F0
1FFC
3C0C
7000
6000
E000
C000
C000
C000
C000
C000
C000
E000
6000
7004
3C1C
1FF8
07E0
ENDCHAR
STARTCHAR 010B
ENCODING 267
SWIDTH 520 0
DWIDTH 13 0
BBX 10 18 1 0
BITMAP
0600
0600
0000
0000
0000
1F80
3FC0
7040
6000
C000
C000
C000
C000
C000
6000
7040
3FC0
1F80
ENDCHAR
STARTCHAR 010C
ENCODING 268
SWIDTH 680 0
DWIDTH 17 0
BBX 14 24 1 0
BITMAP
0630
0360
0360
01C0
0000
0000
07F0
1FFC
3C0C
7000
6000
E000
C000
C000
C000
C000
C000
C000
E000
6000
7004
3C1C
1FF8
07E0
ENDCHAR
STARTCHAR 010D
ENCODING 269
SWIDTH 520 0
DWIDTH 13 0
BBX 10 20 1 0
BITMAP
18C0
0D80
0D80
0700
0000
0000
0000
1F80
3FC0
7040
6000
C000
C000
C000
C000
C000
6000
7040
3FC0
1F80
ENDCHAR
STARTCHAR 010E
ENCODING 270
SWIDTH 760 0
DWIDTH 19 0
BBX 15 24 2 0
BITMAP
18C0
0D80
0D80
0700
0000
0000
FFC0
FFF0
C078
C01C
C00C
C00E
C006
C006
C006
C006
C006
C006
C00C
C00C
C018
C078
FFF0
FFC0
ENDCHAR
STARTCHAR 010F
ENCODING 271
SWIDTH 720 0
DWIDTH 18 0
BBX 17 19 1 0
BITMAP
003180
003180
003080
003080
003100
003000
1F3000
3FF000
70F000
603000
C03000
C03000
C03000
C03000
C03000
E07000
70F000
3FB000
1F3000
ENDCHAR
STARTCHAR 0110
ENCODING 272
SWIDTH 760 0
DWIDTH 19 0
BBX 18 18 -1 0
BITMAP
1FF800
1FFE00
180F00
180380
180180
1801C0
1800C0
1800C0
FF80C0
FF80C0
1800C0
1800C0
180180
180180
180300
180F00
1FFE00
1FF800
ENDCHAR
STARTCHAR 0111
ENCODING 273
SWIDTH 640 0
DWIDTH 16 0
BBX 14 19 1 0
BITMAP
0030
0030
03FC
03FC
0030
0030
1F30
3FF0
70F0
6030
C030
C030
C030
C030
C030
E070
70F0
3FB0
1F30
ENDCHAR
STARTCHAR 0112
ENCODING 274
SWIDTH 560 0
DWIDTH 14 0
BBX 11 21 2 0
BITMAP
7F80
7F80
0000
FFC0
FFC0
C000
C000
C000
C000
C000
C000
FF80
FF80
C000
C000
C000
C000
C000
C000
FFE0
FFE0
ENDCHAR
STARTCHAR 0113
ENCODING 275
SWIDTH 560 0
DWIDTH 14 0
BBX 11 18 1 0
BITMAP
3FC0
3FC0
0000
0000
0000
1F00
3FC0
70C0
6060
C060
FFE0
FFE0
C000
C000
6000
7020
3FE0
1FC0
ENDCHAR
STARTCHAR 0114
ENCODING 276
SWIDTH 560 0
DWIDTH 14 0
BBX 11 23 2 0
BITMAP
30C0
39C0
1F80
0F00
0000
FFC0
FFC0
C000
C000
C000
C000
C000
C000
FF80
FF80
C000
C000
C000
C000
C000
C000
FFE0
FFE0
ENDCHAR
STARTCHAR 0115
ENCODING 277
SWIDTH 560 0
DWIDTH 14 0
BBX 11 20 1 0
BITMAP
30C0
39C0
1F80
0F00
0000
0000
0000
1F00
3FC0
70C0
6060
C060
FFE0
FFE0
C000
C000
6000
7020
3FE0
1FC0
ENDCHAR
STARTCHAR 0116
ENCODING 278
SWIDTH 560 0
DWIDTH 14 0
BBX 11 21 2 0
BITMAP
0600
0600
0000
FFC0
FFC0
C000
C000
C000
C000
C000
C000
FF80
FF80
C000
C000
C000
C000
C000
C000
FFE0
FFE0
ENDCHAR
STARTCHAR 0117
ENCODING 279
SWIDTH 560 0
DWIDTH 14 0
BBX 11 18 1 0
BITMAP
0600
0600
0000
0000
0000
1F00
3FC0
70C0
6060
C060
FFE0
FFE0
C000
C000
6000
7020
3FE0
1FC0
ENDCHAR
STARTCHAR 0118
ENCODING 280
SWIDTH 560 0
DWIDTH 14 0
BBX 11 23 2 -5
BITMAP
FFC0
FFC0
C000
C000
C000
C000
C000
C000
FF80
FF80
C000
C000
C000
C000
C000
C000
FFE0
FFE0
0040
0080
0180
0180
00E0
ENDCHAR
STARTCHAR 0119
ENCODING 281
SWIDTH 560 0
DWIDTH 14 0
BBX 11 18 1 -5
BITMAP
1F00
3FC0
70C0
6060
C060
FFE0
FFE0
C000
C000
6000
7020
3FE0
1FC0
0100
0200
0600
0600
0380
ENDCHAR
STARTCHAR 011A
ENCODING 282
SWIDTH 560 0
DWIDTH 14 0
BBX 11 24 2 0
BITMAP
3180
1B00
1B00
0E00
0000
0000
FFC0
FFC0
C000
C000
C000
C000
C000
C000
FF80
FF80
C000
C000
C000
C000
C000
C000
FFE0
FFE0
ENDCHAR
STARTCHAR 011B
ENCODING 283
SWIDTH 560 0
DWIDTH 14 0
BBX 11 20 1 0
BITMAP
3180
1B00
1B00
0E00
0000
0000
0000
1F00
3FC0
70C0
6060
C060
FFE0
FFE0
C000
C000
6000
7020
3FE0
1FC0
ENDCHAR
STARTCHAR 011C
ENCODING 284
SWIDTH 720 0
DWIDTH 18 0
BBX 14 24 1 0
BITMAP
01C0
0360
0360
0630
0000
0000
07F0
1FFC
3C0C
7000
6000
E000
C000
C000
C000
C000
C00C
C00C
E00C
600C
700C
3C0C
1FFC
07F0
ENDCHAR
STARTCHAR 011D
ENCODING 285
SWIDTH 640 0
DWIDTH 16 0
BBX 12 25 1 -5
BITMAP
0E00
1B00
1B00
3180
0000
0000
0000
1F30
3FF0
70F0
6030
C030
C030
C030
C030
C030
E070
70F0
3FB0
1F30
0030
0070
60E0
7FC0
3F80
ENDCHAR
STARTCHAR 011E
ENCODING 286
SWIDTH 720 0
DWIDTH 18 0
BBX 14 23 1 0
BITMAP
0C30
0E70
07E0
03C0
0000
07F0
1FFC
3C0C
7000
6000
E000
C000
C000
C000
C000
C00C
C00C
E00C
600C
700C
3C0C
1FFC
07F0
ENDCHAR
STARTCHAR 011F
ENCODING 287
SWIDTH 640 0
DWIDTH 16 0
BBX 12 24 1 -5
BITMAP
30C0
39C0
1F80
0F00
0000
0000
1F30
3FF0
70F0
6030
C030
C030
C030
C030
C030
E070
70F0
3FB0
1F30
0030
0070
60E0
7FC0
3F80
ENDCHAR
STARTCHAR 0120
ENCODING 288
SWIDTH 720 0
DWIDTH 18 0
BBX 14 21 1 0
BITMAP
00C0
00C0
0000
07F0
1FFC
3C0C
7000
6000
E000
C000
C000
C000
C000
C00C
C00C
E00C
600C
700C
3C0C
1FFC
07F0
ENDCHAR
STARTCHAR 0121
ENCODING 289
SWIDTH 640 0
DWIDTH 16 0
BBX 12 23 1 -5
BITMAP
0600
0600
0000
0000
0000
1F30
3FF0
70F0
6030
C030
C030
C030
C030
C030
E070
70F0
3FB0
1F30
0030
0070
60E0
7FC0
3F80
ENDCHAR
STARTCHAR 0122
ENCODING 290
SWIDTH 720 0
DWIDTH 18 0
BBX 14 25 1 -7
BITMAP
07F0
1FFC
3C0C
7000
6000
E000
C000
C000
C000
C000
C00C
C00C
E00C
600C
700C
3C0C
1FFC
07F0
0000
0000
00C0
00C0
0040
0040
0080
ENDCHAR
STARTCHAR 0123
ENCODING 291
SWIDTH 640 0
DWIDTH 16 0
BBX 12 25 1 -5
BITMAP
0200
0400
0400
0600
0600
0000
0000
1F30
3FF0
70F0
6030
C030
C030
C030
C030
C030
E070
70F0
3FB0
1F30
0030
0070
60E0
7FC0
3F80
ENDCHAR
STARTCHAR 0124
ENCODING 292
SWIDTH 720 0
DWIDTH 18 0
BBX 13 24 2 0
BITMAP
0700
0D80
0D80
18C0
0000
0000
C018
C018
C018
C018
C018
C018
C018
C018
FFF8
FFF8
C018
C018
C018
C018
C018
C018
C018
C018
ENDCHAR
STARTCHAR 0125
ENCODING 293
SWIDTH 640 0
DWIDTH 16 0
BBX 11 25 2 0
BITMAP
0E00
1B00
1B00
3180
0000
0000
C000
C000
C000
C000
C000
C000
C780
DFC0
F8E0
E060
C060
C060
C060
C060
C060
C060
C060
C060
C060
ENDCHAR
STARTCHAR 0126
ENCODING 294
SWIDTH 800 0
DWIDTH 20 0
BBX 18 18 1 0
BITMAP
300300
300300
300300
FFFFC0
FFFFC0
300300
300300
300300
3FFF00
3FFF00
300300
300300
300300
300300
300300
300300
300300
300300
ENDCHAR
STARTCHAR 0127
ENCODING 295
SWIDTH 640 0
DWIDTH 16 0
BBX 13 19 0 0
BITMAP
3000
3000
FF00
FF00
3000
3000
31E0
37F0
3E38
3818
3018
3018
3018
3018
3018
3018
3018
3018
3018
ENDCHAR
STARTCHAR 0128
ENCODING 296
SWIDTH 280 0
DWIDTH 7 0
BBX 8 22 -1 0
BITMAP
73
FF
CE
00
18
18
18
18
18
18
18
18
18
18
18
18
18
18
18
18
18
18
ENDCHAR
STARTCHAR 0129
ENCODING 297
SWIDTH 280 0
DWIDTH 7 0
BBX 8 18 -1 0
BITMAP
73
FF
CE
00
00
18
18
18
18
18
18
18
18
18
18
18
18
18
ENDCHAR
STARTCHAR 012A
ENCODING 298
SWIDTH 280 0
DWIDTH 7 0
BBX 8 21 -1 0
BITMAP
FF
FF
00
18
18
18
18
18
18
18
18
18
18
18
18
18
18
18
18
18
18
ENDCHAR
STARTCHAR 012B
ENCODING 299
SWIDTH 280 0
DWIDTH 7 0
BBX 8 17 -1 0
BITMAP
FF
FF
00
00
18
18
18
18
18
18
18
18
18
18
18
18
18
ENDCHAR
STARTCHAR 012C
ENCODING 300
SWIDTH 280 0
DWIDTH 7 0
BBX 8 23 -1 0
BITMAP
C3
E7
7E
3C
00
18
18
18
18
18
18
18
18
18
18
18
18
18
18
18
18
18
18
ENDCHAR
STARTCHAR 012D
ENCODING 301
SWIDTH 280 0
DWIDTH 7 0
BBX 8 19 -1 0
BITMAP
C3
E7
7E
3C
00
00
18
18
18
18
18
18
18
18
18
18
18
18
18
ENDCHAR
STARTCHAR 012E
ENCODING 302
SWIDTH 280 0
DWIDTH 7 0
BBX 4 23 1 -5
BITMAP
60
60
60
60
60
60
60
60
60
60
60
60
60
60
60
60
60
60
20
40
C0
C0
70
ENDCHAR
STARTCHAR 012F
ENCODING 303
SWIDTH 280 0
DWIDTH 7 0
BBX 4 23 1 -5
BITMAP
60
60
00
00
00
60
60
60
60
60
60
60
60
60
60
60
60
60
20
40
C0
C0
70
ENDCHAR
STARTCHAR 0130
ENCODING 304
SWIDTH 280 0
DWIDTH 7 0
BBX 2 21 2 0
BITMAP
C0
C0
00
C0
C0
C0
C0
C0
C0
C0
C0
C0
C0
C0
C0
C0
C0
C0
C0
C0
C0
ENDCHAR
STARTCHAR 0131
ENCODING 305
SWIDTH 280 0
DWIDTH 7 0
BBX 2 13 2 0
BITMAP
C0
C0
C0
C0
C0
C0
C0
C0
C0
C0
C0
C0
C0
ENDCHAR
STARTCHAR 0132
ENCODING 306
SWIDTH 600 0
DWIDTH 15 0
BBX 10 22 2 -4
BITMAP
C0C0
C0C0
C0C0
C0C0
C0C0
C0C0
C0C0
C0C0
C0C0
C0C0
C0C0
C0C0
C0C0
C0C0
C0C0
C0C0
C0C0
C0C0
00C0
0180
1F80
1E00
ENDCHAR
STARTCHAR 0133
ENCODING 307
SWIDTH 560 0
DWIDTH 14 0
BBX 10 23 2 -5
BITMAP
C0C0
C0C0
0000
0000
0000
C0C0
C0C0
C0C0
C0C0
C0C0
C0C0
C0C0
C0C0
C0C0
C0C0
C0C0
C0C0
C0C0
00C0
00C0
11C0
1F80
0F00
ENDCHAR
STARTCHAR 0134
ENCODING 308
SWIDTH 320 0
DWIDTH 8 0
BBX 10 28 -2 -4
BITMAP
0700
0D80
0D80
18C0
0000
0000
0600
0600
0600
0600
0600
0600
0600
0600
0600
0600
0600
0600
0600
0600
0600
0600
0600
0600
0600
0C00
FC00
F000
ENDCHAR
STARTCHAR 0135
ENCODING 309
SWIDTH 320 0
DWIDTH 8 0
BBX 9 24 -2 -5
BITMAP
0E00
1B00
1B00
3180
0000
0000
0600
0600
0600
0600
0600
0600
0600
0600
0600
0600
0600
0600
0600
0600
0600
8E00
FC00
7800
ENDCHAR
STARTCHAR 0136
ENCODING 310
SWIDTH 640 0
DWIDTH 16 0
BBX 13 25 2 -7
BITMAP
C030
C060
C0C0
C180
C300
C600
CC00
D800
F000
D800
CC00
C600
C300
C180
C0C0
C060
C030
C018
0000
0000
0600
0600
0200
0200
0400
ENDCHAR
STARTCHAR 0137
ENCODING 311
SWIDTH 600 0
DWIDTH 15 0
BBX 12 26 2 -7
BITMAP
C000
C000
C000
C000
C000
C000
C0E0
C1C0
C380
C700
CC00
D800
F800
DC00
C600
C300
C180
C0C0
C070
0000
0000
0600
0600
0200
0200
0400
ENDCHAR
STARTCHAR 0138
ENCODING 312
SWIDTH 600 0
DWIDTH 15 0
BBX 12 13 2 0
BITMAP
C0E0
C1C0
C380
C700
CC00
D800
F800
DC00
C600
C300
C180
C0C0
C070
ENDCHAR
STARTCHAR 0139
ENCODING 313
SWIDTH 520 0
DWIDTH 13 0
BBX 10 23 2 0
BITMAP
1C00
3000
6000
C000
0000
C000
C000
C000
C000
C000
C000
C000
C000
C000
C000
C000
C000
C000
C000
C000
C000
FFC0
FFC0
ENDCHAR
STARTCHAR 013A
ENCODING 314
SWIDTH 280 0
DWIDTH 7 0
BBX 6 24 2 0
BITMAP
1C
30
60
C0
00
C0
C0
C0
C0
C0
C0
C0
C0
C0
C0
C0
C0
C0
C0
C0
C0
C0
C0
C0
ENDCHAR
STARTCHAR 013B
ENCODING 315
SWIDTH 520 0
DWIDTH 13 0
BBX 10 25 2 -7
BITMAP
C000
C000
C000
C000
C000
C000
C000
C000
C000
C000
C000
C000
C000
C000
C000
C000
FFC0
FFC0
0000
0000
0C00
0C00
0400
0400
0800
ENDCHAR
STARTCHAR 013C
ENCODING 316
SWIDTH 280 0
DWIDTH 7 0
BBX 2 26 2 -7
BITMAP
C0
C0
C0
C0
C0
C0
C0
C0
C0
C0
C0
C0
C0
C0
C0
C0
C0
C0
C0
00
00
C0
C0
40
40
80
ENDCHAR
STARTCHAR 013D
ENCODING 317
SWIDTH 520 0
DWIDTH 13 0
BBX 10 18 2 0
BITMAP
C300
C300
C100
C300
C200
C000
C000
C000
C000
C000
C000
C000
C000
C000
C000
C000
FFC0
FFC0
ENDCHAR
STARTCHAR 013E
ENCODING 318
SWIDTH 360 0
DWIDTH 9 0
BBX 6 19 2 0
BITMAP
CC
CC
C4
CC
C8
C0
C0
C0
C0
C0
C0
C0
C0
C0
C0
C0
C0
C0
C0
ENDCHAR
STARTCHAR 013F
ENCODING 319
SWIDTH 520 0
DWIDTH 13 0
BBX 10 18 2 0
BITMAP
C000
C000
C000
C000
C000
C000
C000
C000
C180
C180
C000
C000
C000
C000
C000
C000
FFC0
FFC0
ENDCHAR
STARTCHAR 0140
ENCODING 320
SWIDTH 400 0
DWIDTH 10 0
BBX 7 19 2 0
BITMAP
C0
C0
C0
C0
C0
C0
C0
C0
C6
C6
C0
C0
C0
C0
C0
C0
C0
C0
C0
ENDCHAR
STARTCHAR 0141
ENCODING 321
SWIDTH 560 0
DWIDTH 14 0
BBX 12 18 1 0
BITMAP
3000
3000
3000
3000
3200
3600
3C00
3800
7000
F000
B000
3000
3000
3000
3000
3000
3FF0
3FF0
ENDCHAR
STARTCHAR 0142
ENCODING 322
SWIDTH 320 0
DWIDTH 8 0
BBX 8 19 0 0
BITMAP
18
18
18
18
18
18
19
1F
1E
78
F8
98
18
18
18
18
18
18
18
ENDCHAR
STARTCHAR 0143
ENCODING 323
SWIDTH 720 0
DWIDTH 18 0
BBX 13 24 2 0
BITMAP
00C0
0180
0300
0600
0000
0000
E018
E018
F018
F018
D818
DC18
CC18
C618
C618
C318
C318
C198
C0D8
C0D8
C078
C078
C038
C038
ENDCHAR
STARTCHAR 0144
ENCODING 324
SWIDTH 640 0
DWIDTH 16 0
BBX 11 19 2 0
BITMAP
01C0
0300
0600
0C00
0000
0000
C780
DFC0
F8E0
E060
C060
C060
C060
C060
C060
C060
C060
C060
C060
ENDCHAR
STARTCHAR 0145
ENCODING 325
SWIDTH 720 0
DWIDTH 18 0
BBX 13 25 2 -7
BITMAP
E018
E018
F018
F018
D818
DC18
CC18
C618
C618
C318
C318
C198
C0D8
C0D8
C078
C078
C038
C038
0000
0000
0300
0300
0100
0100
0200
ENDCHAR
STARTCHAR 0146
ENCODING 326
SWIDTH 640 0
DWIDTH 16 0
BBX 11 20 2 -7
BITMAP
C780
DFC0
F8E0
E060
C060
C060
C060
C060
C060
C060
C060
C060
C060
0000
0000
0600
0600
0200
0200
0400
ENDCHAR
STARTCHAR 0147
ENCODING 327
SWIDTH 720 0
DWIDTH 18 0
BBX 13 24 2 0
BITMAP
18C0
0D80
0D80
0700
0000
0000
E018
E018
F018
F018
D818
DC18
CC18
C618
C618
C318
C318
C198
C0D8
C0D8
C078
C078
C038
C038
ENDCHAR
STARTCHAR 0148
ENCODING 328
SWIDTH 640 0
DWIDTH 16 0
BBX 11 20 2 0
BITMAP
3180
1B00
1B00
0E00
0000
0000
0000
C780
DFC0
F8E0
E060
C060
C060
C060
C060
C060
C060
C060
C060
C060
ENDCHAR
STARTCHAR 0149
ENCODING 329
SWIDTH 680 0
DWIDTH 17 0
BBX 15 19 0 0
BITMAP
C000
C000
4000
C000
8000
0000
0C78
0DFC
0F8E
0E06
0C06
0C06
0C06
0C06
0C06
0C06
0C06
0C06
0C06
ENDCHAR
STARTCHAR 014A
ENCODING 330
SWIDTH 720 0
DWIDTH 18 0
BBX 13 23 2 -5
BITMAP
E018
E018
F018
F018
D818
DC18
CC18
C618
C618
C318
C318
C198
C0D8
C0D8
C078
C078
C038
C038
0018
0018
0038
01F0
01E0
ENDCHAR
STARTCHAR 014B
ENCODING 331
SWIDTH 640 0
DWIDTH 16 0
BBX 11 18 2 -5
BITMAP
C780
DFC0
F8E0
E060
C060
C060
C060
C060
C060
C060
C060
C060
C060
0060
0060
00E0
07C0
0780
ENDCHAR
STARTCHAR 014C
ENCODING 332
SWIDTH 760 0
DWIDTH 19 0
BBX 16 21 1 0
BITMAP
0FF0
0FF0
0000
07E0
1FF8
381C
700E
6006
E007
C003
C003
C003
C003
C003
C003
E007
6006
700E
381C
1FF8
07E0
ENDCHAR
STARTCHAR 014D
ENCODING 333
SWIDTH 600 0
DWIDTH 15 0
BBX 12 18 1 0
BITMAP
3FC0
3FC0
0000
0000
0000
1F80
3FC0
70E0
6060
C030
C030
C030
C030
C030
6060
70E0
3FC0
1F80
ENDCHAR
STARTCHAR 014E
ENCODING 334
SWIDTH 760 0
DWIDTH 19 0
BBX 16 23 1 0
BITMAP
0C30
0E70
07E0
03C0
0000
07E0
1FF8
381C
700E
6006
E007
C003
C003
C003
C003
C003
C003
E007
6006
700E
381C
1FF8
07E0
ENDCHAR
STARTCHAR 014F
ENCODING 335
SWIDTH 600 0
DWIDTH 15 0
BBX 12 19 1 0
BITMAP
30C0
39C0
1F80
0F00
0000
0000
1F80
3FC0
70E0
6060
C030
C030
C030
C030
C030
6060
70E0
3FC0
1F80
ENDCHAR
STARTCHAR 0150
ENCODING 336
SWIDTH 760 0
DWIDTH 19 0
BBX 16 23 1 0
BITMAP
0066
00CC
0198
0330
0000
07E0
1FF8
381C
700E
6006
E007
C003
C003
C003
C003
C003
C003
E007
6006
700E
381C
1FF8
07E0
ENDCHAR
STARTCHAR 0151
ENCODING 337
SWIDTH 600 0
DWIDTH 15 0
BBX 13 20 1 0
BITMAP
0198
0330
0660
0CC0
0000
0000
0000
1F80
3FC0
70E0
6060
C030
C030
C030
C030
C030
6060
70E0
3FC0
1F80
ENDCHAR
STARTCHAR 0152
ENCODING 338
SWIDTH 1000 0
DWIDTH 25 0
BBX 23 18 1 0
BITMAP
03F7FC
1FFFFC
381E00
300E00
600600
600600
C00600
C00600
C007F8
C007F8
C00600
C00600
600600
600600
300E00
381E00
1FFFFE
03F7FE
ENDCHAR
STARTCHAR 0153
ENCODING 339
SWIDTH 920 0
DWIDTH 23 0
BBX 20 13 1 0
BITMAP
0F8780
3FCFE0
70F860
607030
C03030
C03FF0
C03FF0
C03000
C03000
607800
70FC10
3FCFF0
0F87E0
ENDCHAR
STARTCHAR 0154
ENCODING 340
SWIDTH 640 0
DWIDTH 16 0
BBX 13 23 2 0
BITMAP
0380
0600
0C00
1800
0000
FF00
FFC0
C0E0
C060
C060
C060
C0E0
C1C0
FF80
FE00
C300
C300
C180
C0C0
C060
C060
C030
C018
ENDCHAR
STARTCHAR 0155
ENCODING 341
SWIDTH 400 0
DWIDTH 10 0
BBX 7 19 2 0
BITMAP
0E
18
30
60
00
00
CE
DE
F0
E0
C0
C0
C0
C0
C0
C0
C0
C0
C0
ENDCHAR
STARTCHAR 0156
ENCODING 342
SWIDTH 640 0
DWIDTH 16 0
BBX 13 25 2 -7
BITMAP
FF00
FFC0
C0E0
C060
C060
C060
C0E0
C1C0
FF80
FE00
C300
C300
C180
C0C0
C060
C060
C030
C018
0000
0000
0600
0600
0200
0200
0400
ENDCHAR
STARTCHAR 0157
ENCODING 343
SWIDTH 400 0
DWIDTH 10 0
BBX 7 20 2 -7
BITMAP
CE
DE
F0
E0
C0
C0
C0
C0
C0
C0
C0
C0
C0
00
00
C0
C0
40
40
80
ENDCHAR
STARTCHAR 0158
ENCODING 344
SWIDTH 640 0
DWIDTH 16 0
BBX 13 24 2 0
BITMAP
3180
1B00
1B00
0E00
0000
0000
FF00
FFC0
C0E0
C060
C060
C060
C0E0
C1C0
FF80
FE00
C300
C300
C180
C0C0
C060
C060
C030
C018
ENDCHAR
STARTCHAR 0159
ENCODING 345
SWIDTH 400 0
DWIDTH 10 0
BBX 8 20 1 0
BITMAP
C6
6C
6C
38
00
00
00
67
6F
78
70
60
60
60
60
60
60
60
60
60
ENDCHAR
STARTCHAR 015A
ENCODING 346
SWIDTH 520 0
DWIDTH 13 0
BBX 10 23 1 0
BITMAP
01C0
0300
0600
0C00
0000
1F00
7F80
E080
C000
C000
C000
6000
7800
3E00
0F00
0380
01C0
00C0
00C0
00C0
C180
FF80
7E00
ENDCHAR
STARTCHAR 015B
ENCODING 347
SWIDTH 520 0
DWIDTH 13 0
BBX 8 19 2 0
BITMAP
07
0C
18
30
00
00
3C
7E
C2
C0
E0
78
3E
0F
03
03
87
FE
7C
ENDCHAR
STARTCHAR 015C
ENCODING 348
SWIDTH 520 0
DWIDTH 13 0
BBX 10 24 1 0
BITMAP
0E00
1B00
1B00
3180
0000
0000
1F00
7F80
E080
C000
C000
C000
6000
7800
3E00
0F00
0380
01C0
00C0
00C0
00C0
C180
FF80
7E00
ENDCHAR
STARTCHAR 015D
ENCODING 349
SWIDTH 520 0
DWIDTH 13 0
BBX 8 20 2 0
BITMAP
1C
36
36
63
00
00
00
3C
7E
C2
C0
E0
78
3E
0F
03
03
87
FE
7C
ENDCHAR
STARTCHAR 015E
ENCODING 350
SWIDTH 520 0
DWIDTH 13 0
BBX 10 23 1 -5
BITMAP
1F00
7F80
E080
C000
C000
C000
6000
7800
3E00
0F00
0380
01C0
00C0
00C0
00C0
C180
FF80
7E00
0800
1C00
0600
0600
1C00
ENDCHAR
STARTCHAR 015F
ENCODING 351
SWIDTH 520 0
DWIDTH 13 0
BBX 8 18 2 -5
BITMAP
3C
7E
C2
C0
E0
78
3E
0F
03
03
87
FE
7C
08
1C
06
06
1C
ENDCHAR
STARTCHAR 0160
ENCODING 352
SWIDTH 520 0
DWIDTH 13 0
BBX 10 24 1 0
BITMAP
3180
1B00
1B00
0E00
0000
0000
1F00
7F80
E080
C000
C000
C000
6000
7800
3E00
0F00
0380
01C0
00C0
00C0
00C0
C180
FF80
7E00
ENDCHAR
STARTCHAR 0161
ENCODING 353
SWIDTH 520 0
DWIDTH 13 0
BBX 8 20 2 0
BITMAP
63
36
36
1C
00
00
00
3C
7E
C2
C0
E0
78
3E
0F
03
03
87
FE
7C
ENDCHAR
STARTCHAR 0162
ENCODING 354
SWIDTH 640 0
DWIDTH 16 0
BBX 14 23 1 -5
BITMAP
FFFC
FFFC
0300
0300
0300
0300
0300
0300
0300
0300
0300
0300
0300
0300
0300
0300
0300
0300
0200
0700
0180
0180
0700
ENDCHAR
STARTCHAR 0163
ENCODING 355
SWIDTH 360 0
DWIDTH 9 0
BBX 7 21 0 -5
BITMAP
30
30
30
FE
FE
30
30
30
30
30
30
30
30
30
3E
1E
08
1C
06
06
1C
ENDCHAR
STARTCHAR 0164
ENCODING 356
SWIDTH 640 0
DWIDTH 16 0
BBX 14 24 1 0
BITMAP
0C60
06C0
06C0
0380
0000
0000
FFFC
FFFC
0300
0300
0300
0300
0300
0300
0300
0300
0300
0300
0300
0300
0300
0300
0300
0300
ENDCHAR
STARTCHAR 0165
ENCODING 357
SWIDTH 360 0
DWIDTH 9 0
BBX 8 21 0 0
BITMAP
03
03
01
03
02
30
30
30
FE
FE
30
30
30
30
30
30
30
30
30
3E
1E
ENDCHAR
STARTCHAR 0166
ENCODING 358
SWIDTH 640 0
DWIDTH 16 0
BBX 14 18 1 0
BITMAP
FFFC
FFFC
0300
0300
0300
0300
0300
3FF0
3FF0
0300
0300
0300
0300
0300
0300
0300
0300
0300
ENDCHAR
STARTCHAR 0167
ENCODING 359
SWIDTH 360 0
DWIDTH 9 0
BBX 7 16 0 0
BITMAP
30
30
30
FE
FE
30
30
FE
FE
30
30
30
30
30
3E
1E
ENDCHAR
STARTCHAR 0168
ENCODING 360
SWIDTH 680 0
DWIDTH 17 0
BBX 12 22 2 0
BITMAP
1CC0
3FC0
3380
0000
C030
C030
C030
C030
C030
C030
C030
C030
C030
C030
C030
C030
C030
C030
E070
70E0
3FC0
1F80
ENDCHAR
STARTCHAR 0169
ENCODING 361
SWIDTH 640 0
DWIDTH 16 0
BBX 11 18 2 0
BITMAP
1CC0
3FC0
3380
0000
0000
C060
C060
C060
C060
C060
C060
C060
C060
C060
C0E0
E3E0
7F60
3C60
ENDCHAR
STARTCHAR 016A
ENCODING 362
SWIDTH 680 0
DWIDTH 17 0
BBX 12 22 2 0
BITMAP
3FC0
3FC0
0000
0000
C030
C030
C030
C030
C030
C030
C030
C030
C030
C030
C030
C030
C030
C030
E070
70E0
3FC0
1F80
ENDCHAR
STARTCHAR 016B
ENCODING 363
SWIDTH 640 0
DWIDTH 16 0
BBX 11 17 2 0
BITMAP
3FC0
3FC0
0000
0000
C060
C060
C060
C060
C060
C060
C060
C060
C060
C0E0
E3E0
7F60
3C60
ENDCHAR
STARTCHAR 016C
ENCODING 364
SWIDTH 680 0
DWIDTH 17 0
BBX 12 23 2 0
BITMAP
30C0
39C0
1F80
0F00
0000
C030
C030
C030
C030
C030
C030
C030
C030
C030
C030
C030
C030
C030
C030
E070
70E0
3FC0
1F80
ENDCHAR
STARTCHAR 016D
ENCODING 365
SWIDTH 640 0
DWIDTH 16 0
BBX 11 19 2 0
BITMAP
30C0
39C0
1F80
0F00
0000
0000
C060
C060
C060
C060
C060
C060
C060
C060
C060
C0E0
E3E0
7F60
3C60
ENDCHAR
STARTCHAR 016E
ENCODING 366
SWIDTH 680 0
DWIDTH 17 0
BBX 12 26 2 0
BITMAP
0F00
1980
1080
1080
1980
0F00
0000
0000
C030
C030
C030
C030
C030
C030
C030
C030
C030
C030
C030
C030
C030
C030
E070
70E0
3FC0
1F80
ENDCHAR
STARTCHAR 016F
ENCODING 367
SWIDTH 640 0
DWIDTH 16 0
BBX 11 22 2 0
BITMAP
0F00
1980
1080
1080
1980
0F00
0000
0000
0000
C060
C060
C060
C060
C060
C060
C060
C060
C060
C0E0
E3E0
7F60
3C60
ENDCHAR
STARTCHAR 0170
ENCODING 368
SWIDTH 680 0
DWIDTH 17 0
BBX 12 24 2 0
BITMAP
0330
0660
0CC0
1980
0000
0000
C030
C030
C030
C030
C030
C030
C030
C030
C030
C030
C030
C030
C030
C030
E070
70E0
3FC0
1F80
ENDCHAR
STARTCHAR 0171
ENCODING 369
SWIDTH 640 0
DWIDTH 16 0
BBX 12 19 2 0
BITMAP
0330
0660
0CC0
1980
0000
0000
C060
C060
C060
C060
C060
C060
C060
C060
C060
C0E0
E3E0
7F60
3C60
ENDCHAR
STARTCHAR 0172
ENCODING 370
SWIDTH 680 0
DWIDTH 17 0
BBX 12 23 2 -5
BITMAP
C030
C030
C030
C030
C030
C030
C030
C030
C030
C030
C030
C030
C030
C030
E070
70E0
3FC0
1F80
0100
0200
0600
0600
0380
ENDCHAR
STARTCHAR 0173
ENCODING 371
SWIDTH 640 0
DWIDTH 16 0
BBX 11 18 2 -5
BITMAP
C060
C060
C060
C060
C060
C060
C060
C060
C060
C0E0
E3E0
7F60
3C60
0040
0080
0180
0180
00E0
ENDCHAR
STARTCHAR 0174
ENCODING 372
SWIDTH 840 0
DWIDTH 21 0
BBX 21 24 0 0
BITMAP
007000
00D800
00D800
018C00
000000
000000
C07018
C07018
607030
607830
60D830
60D830
30D860
31DC60
318C60
318C60
198EC0
1B06C0
1B06C0
1B06C0
0F0780
0E0380
0E0380
0E0380
ENDCHAR
STARTCHAR 0175
ENCODING 373
SWIDTH 760 0
DWIDTH 19 0
BBX 19 20 0 0
BITMAP
00E000
01B000
01B000
031800
000000
000000
000000
C0E060
60E0C0
60E0C0
61B0C0
31B180
31B180
33B980
1B1B00
1B1B00
1B1B00
0E0E00
0E0E00
0E0E00
ENDCHAR
STARTCHAR 0176
ENCODING 374
SWIDTH 640 0
DWIDTH 16 0
BBX 14 24 1 0
BITMAP
0380
06C0
06C0
0C60
0000
0000
C00C
6018
3038
3030
1860
1C60
0CC0
06C0
0780
0300
0300
0300
0300
0300
0300
0300
0300
0300
ENDCHAR
STARTCHAR 0177
ENCODING 375
SWIDTH 520 0
DWIDTH 13 0
BBX 12 25 0 -5
BITMAP
0700
0D80
0D80
18C0
0000
0000
0000
C030
C070
6060
6060
30E0
30C0
30C0
1980
1980
1B80
0F00
0F00
0600
0600
0E00
0C00
1C00
1800
ENDCHAR
STARTCHAR 0178
ENCODING 376
SWIDTH 640 0
DWIDTH 16 0
BBX 14 22 1 0
BITMAP
0C60
0C60
0000
0000
C00C
6018
3038
3030
1860
1C60
0CC0
06C0
0780
0300
0300
0300
0300
0300
0300
0300
0300
0300
ENDCHAR
STARTCHAR 0179
ENCODING 377
SWIDTH 600 0
DWIDTH 15 0
BBX 12 24 1 0
BITMAP
01C0
0300
0600
0C00
0000
0000
7FF0
7FF0
0070
0060
00C0
01C0
0180
0300
0600
0600
0C00
1800
3800
3000
6000
E000
FFF0
FFF0
ENDCHAR
STARTCHAR 017A
ENCODING 378
SWIDTH 560 0
DWIDTH 14 0
BBX 11 20 1 0
BITMAP
0180
0300
0600
0C00
0000
0000
0000
FFE0
FFE0
00E0
01C0
0380
0700
0E00
1C00
3800
7000
E000
FFE0
FFE0
ENDCHAR
STARTCHAR 017B
ENCODING 379
SWIDTH 600 0
DWIDTH 15 0
BBX 12 22 1 0
BITMAP
0300
0300
0000
0000
7FF0
7FF0
0070
0060
00C0
01C0
0180
0300
0600
0600
0C00
1800
3800
3000
6000
E000
FFF0
FFF0
ENDCHAR
STARTCHAR 017C
ENCODING 380
SWIDTH 560 0
DWIDTH 14 0
BBX 11 18 1 0
BITMAP
0600
0600
0000
0000
0000
FFE0
FFE0
00E0
01C0
0380
0700
0E00
1C00
3800
7000
E000
FFE0
FFE0
ENDCHAR
STARTCHAR 017D
ENCODING 381
SWIDTH 600 0
DWIDTH 15 0
BBX 12 24 1 0
BITMAP
18C0
0D80
0D80
0700
0000
0000
7FF0
7FF0
0070
0060
00C0
01C0
0180
0300
0600
0600
0C00
1800
3800
3000
6000
E000
FFF0
FFF0
ENDCHAR
STARTCHAR 017E
ENCODING 382
SWIDTH 560 0
DWIDTH 14 0
BBX 11 20 1 0
BITMAP
3180
1B00
1B00
0E00
0000
0000
0000
FFE0
FFE0
00E0
01C0
0380
0700
0E00
1C00
3800
7000
E000
FFE0
FFE0
ENDCHAR
STARTCHAR 017F
ENCODING 383
SWIDTH 320 0
DWIDTH 8 0
BBX 9 19 1 0
BITMAP
0F00
1F80
3880
3000
3000
3000
F000
F000
3000
3000
3000
3000
3000
3000
3000
3000
3000
3000
3000
ENDCHAR
STARTCHAR 0192
ENCODING 402
SWIDTH 640 0
DWIDTH 16 0
BBX 12 22 3 -4
BITMAP
01F0
07F0
0600
0C00
0C00
1800
1800
1800
FF80
FF80
3000
3000
3000
3000
7000
6000
6000
6000
6000
E000
C000
C000
ENDCHAR
STARTCHAR 01FA
ENCODING 506
SWIDTH 680 0
DWIDTH 17 0
BBX 17 30 0 0
BITMAP
003800
006000
00C000
018000
000000
000000
01E000
033000
021000
021000
033000
01E000
008000
01C000
01C000
036000
036000
077000
063000
063000
0C1800
0C1800
180C00
1FFC00
3FFE00
300600
300600
600300
600300
C00180
ENDCHAR
STARTCHAR 01FB
ENCODING 507
SWIDTH 560 0
DWIDTH 14 0
BBX 12 26 1 0
BITMAP
0380
0600
0C00
1800
0000
0F00
1980
1080
1080
1980
0F00
0000
0000
3F00
7F80
41C0
00C0
00C0
1FC0
7FC0
E0C0
C0C0
C0C0
E1C0
7FF0
3C70
ENDCHAR
STARTCHAR 01FC
ENCODING 508
SWIDTH 920 0
DWIDTH 23 0
BBX 22 24 0 0
BITMAP
0001C0
000300
000600
000C00
000000
000000
003FF8
003FF8
007800
00F800
00D800
019800
019800
031800
071FF0
061FF0
0C1800
0FF800
1FF800
381800
301800
601800
601FFC
C01FFC
ENDCHAR
STARTCHAR 01FD
ENCODING 509
SWIDTH 840 0
DWIDTH 21 0
BBX 18 20 1 0
BITMAP
003800
006000
00C000
018000
000000
000000
000000
3F1E00
7FBF80
41E180
00C0C0
00C0C0
1FFFC0
7FFFC0
E0C000
C0C000
C0E000
E1F040
7F3FC0
3C1F80
ENDCHAR
STARTCHAR 01FE
ENCODING 510
SWIDTH 760 0
DWIDTH 19 0
BBX 16 24 1 0
BITMAP
0070
00C0
0180
0300
0000
0000
07E3
1FFE
381C
701E
603E
E037
C063
C0C3
C1C3
C383
C303
C603
EC07
7C06
780E
381C
7FF8
C7E0
ENDCHAR
STARTCHAR 01FF
ENCODING 511
SWIDTH 600 0
DWIDTH 15 0
BBX 12 20 1 0
BITMAP
01C0
0300
0600
0C00
0000
0000
0000
1F70
3FE0
70E0
E1E0
C3B0
C330
C630
CC30
DC30
F870
70E0
7FC0
EF80
ENDCHAR
STARTCHAR 0218
ENCODING 536
SWIDTH 520 0
DWIDTH 13 0
BBX 10 25 1 -7
BITMAP
1F00
7F80
E080
C000
C000
C000
6000
7800
3E00
0F00
0380
01C0
00C0
00C0
00C0
C180
FF80
7E00
0000
0000
0C00
0C00
0400
0400
0800
ENDCHAR
STARTCHAR 0219
ENCODING 537
SWIDTH 520 0
DWIDTH 13 0
BBX 8 20 2 -7
BITMAP
3C
7E
C2
C0
E0
78
3E
0F
03
03
87
FE
7C
00
00
18
18
08
08
10
ENDCHAR
STARTCHAR 021A
ENCODING 538
SWIDTH 640 0
DWIDTH 16 0
BBX 14 25 1 -7
BITMAP
FFFC
FFFC
0300
0300
0300
0300
0300
0300
0300
0300
0300
0300
0300
0300
0300
0300
0300
0300
0000
0000
0300
0300
0100
0100
0200
ENDCHAR
STARTCHAR 021B
ENCODING 539
SWIDTH 360 0
DWIDTH 9 0
BBX 7 23 0 -7
BITMAP
30
30
30
FE
FE
30
30
30
30
30
30
30
30
30
3E
1E
00
00
18
18
08
08
10
ENDCHAR
STARTCHAR 0250
ENCODING 592
SWIDTH 560 0
DWIDTH 14 0
BBX 12 13 0 0
BITMAP
E3C0
FFE0
3C70
3030
3030
30F0
3FE0
3F80
3000
3000
3820
1FE0
0FC0
ENDCHAR
STARTCHAR 0251
ENCODING 593
SWIDTH 640 0
DWIDTH 16 0
BBX 12 13 1 0
BITMAP
07F0
1FF0
3830
7030
6030
C030
C030
C030
C070
C0F0
E1B0
7F30
3E30
ENDCHAR
STARTCHAR 0252
ENCODING 594
SWIDTH 640 0
DWIDTH 16 0
BBX 12 13 2 0
BITMAP
C3C0
CFE0
DC70
F030
E030
E030
C030
C030
C060
C0E0
C1C0
FF80
FE00
ENDCHAR
STARTCHAR 0253
ENCODING 595
SWIDTH 640 0
DWIDTH 16 0
BBX 12 19 2 0
BITMAP
1F00
3F80
7080
6000
C000
C000
CF80
DFC0
F0E0
E070
C030
C030
C030
C030
C030
C060
F0E0
FFC0
CF80
ENDCHAR
STARTCHAR 0254
ENCODING 596
SWIDTH 520 0
DWIDTH 13 0
BBX 10 13 1 0
BITMAP
7C00
FF00
8380
0180
00C0
00C0
00C0
00C0
00C0
0180
8380
FF00
7C00
ENDCHAR
STARTCHAR 0255
ENCODING 597
SWIDTH 560 0
DWIDTH 14 0
BBX 12 15 1 -2
BITMAP
0F80
3FC0
7040
E000
C000
C000
C000
C3E0
C7F0
6C30
7870
3FE0
67C0
6000
6000
ENDCHAR
STARTCHAR 0256
ENCODING 598
SWIDTH 640 0
DWIDTH 16 0
BBX 15 24 1 -5
BITMAP
0030
0030
0030
0030
0030
0030
1F30
3FF0
70F0
6030
C030
C030
C030
C030
C030
E070
70F0
3FB0
1F30
0030
0030
0038
001E
000E
ENDCHAR
STARTCHAR 0257
ENCODING 599
SWIDTH 640 0
DWIDTH 16 0
BBX 15 19 1 0
BITMAP
000E
001E
0038
0030
0030
0030
1F30
3FF0
70F0
6030
C030
C030
C030
C030
C030
E070
70F0
3FB0
1F30
ENDCHAR
STARTCHAR 0258
ENCODING 600
SWIDTH 560 0
DWIDTH 14 0
BBX 11 13 1 0
BITMAP
1F00
7F80
61C0
C0C0
C060
FFE0
FFE0
0060
0060
00C0
81C0
FF80
7E00
ENDCHAR
STARTCHAR 0259
ENCODING 601
SWIDTH 560 0
DWIDTH 14 0
BBX 11 13 1 0
BITMAP
7E00
FF80
81C0
00C0
0060
0060
FFE0
FFE0
C060
C0C0
61C0
7F80
1F00
ENDCHAR
STARTCHAR 025A
ENCODING 602
SWIDTH 800 0
DWIDTH 20 0
BBX 18 13 2 0
BITMAP
7E0000
FF8000
81C000
00CE00
007E00
03F600
3FE600
FC6600
C067C0
C0C3C0
61C000
7F8000
1F0000
ENDCHAR
STARTCHAR 025B
ENCODING 603
SWIDTH 480 0
DWIDTH 12 0
BBX 8 13 1 0
BITMAP
3E
7F
61
60
30
1E
3E
60
C0
C0
E1
7F
3E
ENDCHAR
STARTCHAR 025C
ENCODING 604
SWIDTH 480 0
DWIDTH 12 0
BBX 8 13 2 0
BITMAP
7C
FE
86
06
0C
78
7C
06
03
03
87
FE
7C
ENDCHAR
STARTCHAR 025D
ENCODING 605
SWIDTH 640 0
DWIDTH 16 0
BBX 14 13 2 0
BITMAP
7C30
FFF0
83F0
0330
0630
7C3C
7E1C
0300
0180
0180
8380
FF00
7C00
ENDCHAR
STARTCHAR 025E
ENCODING 606
SWIDTH 600 0
DWIDTH 15 0
BBX 12 13 1 0
BITMAP
0FC0
3FE0
7070
6030
C060
C7C0
C7E0
C070
C030
E030
7070
3FE0
0F80
ENDCHAR
STARTCHAR 025F
ENCODING 607
SWIDTH 400 0
DWIDTH 10 0
BBX 10 18 -1 -5
BITMAP
0600
0600
0600
0600
0600
0600
0600
0600
0600
3FC0
3FC0
0600
0600
0600
0600
8E00
FC00
7800
ENDCHAR
STARTCHAR 0260
ENCODING 608
SWIDTH 640 0
DWIDTH 16 0
BBX 15 24 1 -5
BITMAP
000E
001E
0038
0030
0030
0030
1F30
3FF0
70F0
6030
C030
C030
C030
C030
C030
E070
70F0
3FB0
1F30
0030
0070
60E0
7FC0
3F80
ENDCHAR
STARTCHAR 0261
ENCODING 609
SWIDTH 640 0
DWIDTH 16 0
BBX 12 18 1 -5
BITMAP
07F0
1FF0
3830
7030
6030
C030
C030
C030
C070
C0F0
61B0
7F30
3E30
0030
0070
60E0
7FC0
3F80
ENDCHAR
STARTCHAR 0262
ENCODING 610
SWIDTH 600 0
DWIDTH 15 0
BBX 12 13 1 0
BITMAP
0FE0
3FF0
7030
6000
C000
C000
C000
C030
C030
6030
7830
3FF0
0FE0
ENDCHAR
STARTCHAR 0263
ENCODING 611
SWIDTH 520 0
DWIDTH 13 0
BBX 13 18 0 -5
BITMAP
4018
F018
7018
3830
1870
1C60
0CC0
0FC0
0780
0700
0700
0F80
0DC0
18C0
18C0
18C0
1FC0
0F80
ENDCHAR
STARTCHAR 0264
ENCODING 612
SWIDTH 600 0
DWIDTH 15 0
BBX 13 13 1 0
BITMAP
7038
F878
1CC0
0D80
0700
0700
0700
0D80
18C0
18C0
18C0
1FC0
0F80
ENDCHAR
STARTCHAR 0265
ENCODING 613
SWIDTH 640 0
DWIDTH 16 0
BBX 11 18 2 -5
BITMAP
C060
C060
C060
C060
C060
C060
C060
C060
C060
C0E0
E3E0
7F60
3C60
0060
0060
0060
0060
0060
ENDCHAR
STARTCHAR 0266
ENCODING 614
SWIDTH 640 0
DWIDTH 16 0
BBX 11 19 2 0
BITMAP
1F00
3F80
7080
6000
C000
C000
C780
DFC0
F8E0
E060
C060
C060
C060
C060
C060
C060
C060
C060
C060
ENDCHAR
STARTCHAR 0267
ENCODING 615
SWIDTH 640 0
DWIDTH 16 0
BBX 11 24 2 -5
BITMAP
1F00
3F80
7080
6000
C000
C000
C780
DFC0
F8E0
E060
C060
C060
C060
C060
C060
C060
C060
C060
C060
0060
0060
00E0
07C0
0780
ENDCHAR
STARTCHAR 0268
ENCODING 616
SWIDTH 400 0
DWIDTH 10 0
BBX 8 18 1 0
BITMAP
18
18
00
00
00
18
18
18
18
18
FF
FF
18
18
18
18
18
18
ENDCHAR
STARTCHAR 0269
ENCODING 617
SWIDTH 360 0
DWIDTH 9 0
BBX 6 13 2 0
BITMAP
C0
C0
C0
C0
C0
C0
C0
C0
C0
C0
E4
7C
38
ENDCHAR
STARTCHAR 026A
ENCODING 618
SWIDTH 400 0
DWIDTH 10 0
BBX 6 13 2 0
BITMAP
FC
FC
30
30
30
30
30
30
30
30
30
FC
FC
ENDCHAR
STARTCHAR 026B
ENCODING 619
SWIDTH 520 0
DWIDTH 13 0
BBX 12 19 0 0
BITMAP
0600
0600
0600
0600
0600
0600
0630
7E30
FFE0
C7E0
C600
0600
0600
0600
0600
0600
0600
0600
0600
ENDCHAR
STARTCHAR 026C
ENCODING 620
SWIDTH 480 0
DWIDTH 12 0
BBX 11 19 1 0
BITMAP
0600
0600
0600
0600
0600
7E00
FE00
C600
C600
E660
7FE0
3F80
0600
0600
0600
0600
0600
0600
0600
ENDCHAR
STARTCHAR 026D
ENCODING 621
SWIDTH 280 0
DWIDTH 7 0
BBX 5 24 2 -5
BITMAP
C0
C0
C0
C0
C0
C0
C0
C0
C0
C0
C0
C0
C0
C0
C0
C0
C0
C0
C0
C0
C0
E0
78
38
ENDCHAR
STARTCHAR 026E
ENCODING 622
SWIDTH 640 0
DWIDTH 16 0
BBX 12 24 2 -5
BITMAP
C000
C000
C000
C000
C000
C000
FFF0
FFF0
C060
C0C0
C180
C300
C600
CF80
CFC0
C0E0
C070
C030
C030
0030
0070
10E0
1FC0
0F80
ENDCHAR
STARTCHAR 026F
ENCODING 623
SWIDTH 920 0
DWIDTH 23 0
BBX 18 13 2 0
BITMAP
C0C0C0
C0C0C0
C0C0C0
C0C0C0
C0C0C0
C0C0C0
C0C0C0
C0C0C0
C0C0C0
C1C1C0
E3E3C0
7E7EC0
3C3CC0
ENDCHAR
STARTCHAR 0270
ENCODING 624
SWIDTH 920 0
DWIDTH 23 0
BBX 18 18 2 -5
BITMAP
C0C0C0
C0C0C0
C0C0C0
C0C0C0
C0C0C0
C0C0C0
C0C0C0
C0C0C0
C0C0C0
C1C1C0
E3E3C0
7E7EC0
3C3CC0
0000C0
0000C0
0000C0
0000C0
0000C0
ENDCHAR
STARTCHAR 0271
ENCODING 625
SWIDTH 920 0
DWIDTH 23 0
BBX 18 18 2 -5
BITMAP
CF0F00
DF9F80
F0F0C0
E0E0C0
C0C0C0
C0C0C0
C0C0C0
C0C0C0
C0C0C0
C0C0C0
C0C0C0
C0C0C0
C0C0C0
0000C0
0000C0
0001C0
000F80
000F00
ENDCHAR
STARTCHAR 0272
ENCODING 626
SWIDTH 640 0
DWIDTH 16 0
BBX 13 18 0 -5
BITMAP
19E0
1BF0
1E38
1C18
1818
1818
1818
1818
1818
1818
1818
1818
1818
1800
1800
3800
F000
E000
ENDCHAR
STARTCHAR 0273
ENCODING 627
SWIDTH 640 0
DWIDTH 16 0
BBX 14 18 2 -5
BITMAP
C780
DFC0
F8E0
E060
C060
C060
C060
C060
C060
C060
C060
C060
C060
0060
0060
0070
003C
001C
ENDCHAR
STARTCHAR 0274
ENCODING 628
SWIDTH 640 0
DWIDTH 16 0
BBX 11 13 2 0
BITMAP
C060
E060
F060
F060
D860
DC60
CE60
C760
C360
C1E0
C1E0
C0E0
C060
ENDCHAR
STARTCHAR 0275
ENCODING 629
SWIDTH 600 0
DWIDTH 15 0
BBX 12 13 1 0
BITMAP
1F80
3FC0
70E0
E060
C030
FFF0
FFF0
C030
C030
6060
70E0
3FC0
1F80
ENDCHAR
STARTCHAR 0276
ENCODING 630
SWIDTH 800 0
DWIDTH 20 0
BBX 17 13 1 0
BITMAP
0F7F80
3FFF80
70E000
606000
C06000
C07F00
C07F00
C06000
C06000
606000
70E000
3FFF80
0F7F80
ENDCHAR
STARTCHAR 0277
ENCODING 631
SWIDTH 800 0
DWIDTH 20 0
BBX 16 13 2 0
BITMAP
07E0
1FF8
381C
700E
E006
C183
C183
C183
C183
C183
63C6
7FFE
3C78
ENDCHAR
STARTCHAR 0278
ENCODING 632
SWIDTH 760 0
DWIDTH 19 0
BBX 16 24 1 -5
BITMAP
0180
0180
0180
0180
0180
0180
0FF0
3FFC
799E
6186
C183
C183
C183
C183
C183
6186
799E
3FFC
0FF0
0180
0180
0180
0180
0180
ENDCHAR
STARTCHAR 0279
ENCODING 633
SWIDTH 400 0
DWIDTH 10 0
BBX 7 13 0 0
BITMAP
06
06
06
06
06
06
06
06
06
0E
1E
F6
E6
ENDCHAR
STARTCHAR 027A
ENCODING 634
SWIDTH 400 0
DWIDTH 10 0
BBX 7 19 0 0
BITMAP
06
06
06
06
06
06
06
06
06
06
06
06
06
06
06
0E
1E
F6
E6
ENDCHAR
STARTCHAR 027B
ENCODING 635
SWIDTH 440 0
DWIDTH 11 0
BBX 10 18 0 -5
BITMAP
0600
0600
0600
0600
0600
0600
0600
0600
0600
0E00
1E00
F600
E600
0600
0600
0700
03C0
01C0
ENDCHAR
STARTCHAR 027C
ENCODING 636
SWIDTH 400 0
DWIDTH 10 0
BBX 7 18 2 -5
BITMAP
CE
DE
F0
E0
C0
C0
C0
C0
C0
C0
C0
C0
C0
C0
C0
C0
C0
C0
ENDCHAR
STARTCHAR 027D
ENCODING 637
SWIDTH 400 0
DWIDTH 10 0
BBX 7 18 2 -5
BITMAP
CE
DE
F0
E0
C0
C0
C0
C0
C0
C0
C0
C0
C0
C0
C0
E0
78
38
ENDCHAR
STARTCHAR 027E
ENCODING 638
SWIDTH 400 0
DWIDTH 10 0
BBX 6 13 2 0
BITMAP
38
7C
E4
C0
C0
C0
C0
C0
C0
C0
C0
C0
C0
ENDCHAR
STARTCHAR 027F
ENCODING 639
SWIDTH 400 0
DWIDTH 10 0
BBX 6 13 1 0
BITMAP
70
F8
98
0C
0C
0C
0C
0C
0C
0C
0C
0C
0C
ENDCHAR
STARTCHAR 0280
ENCODING 640
SWIDTH 560 0
DWIDTH 14 0
BBX 11 13 2 0
BITMAP
FE00
FF80
C380
C180
C180
C300
FE00
FC00
C600
C300
C180
C0C0
C060
ENDCHAR
STARTCHAR 0281
ENCODING 641
SWIDTH 560 0
DWIDTH 14 0
BBX 11 13 2 0
BITMAP
C060
C0C0
C180
C300
C600
FC00
FE00
C300
C180
C180
C380
FF80
FE00
ENDCHAR
STARTCHAR 0282
ENCODING 642
SWIDTH 520 0
DWIDTH 13 0
BBX 8 18 2 -5
BITMAP
3C
7E
C2
C0
E0
78
3E
0F
03
03
87
FE
FC
C0
C0
C0
78
38
ENDCHAR
STARTCHAR 0283
ENCODING 643
SWIDTH 440 0
DWIDTH 11 0
BBX 12 24 -1 -5
BITMAP
01E0
03F0
0310
0600
0600
0600
0600
0600
0600
0600
0600
0600
0600
0600
0600
0600
0600
0600
0600
0600
0600
8C00
FC00
7800
ENDCHAR
STARTCHAR 0284
ENCODING 644
SWIDTH 440 0
DWIDTH 11 0
BBX 10 24 -1 -5
BITMAP
03C0
07C0
0700
0600
0600
0600
0600
0600
0600
0600
0600
0600
0600
0600
0600
3FC0
3FC0
0600
0600
0600
0600
8E00
FC00
7800
ENDCHAR
STARTCHAR 0285
ENCODING 645
SWIDTH 480 0
DWIDTH 12 0
BBX 12 18 0 -5
BITMAP
7800
FC00
8C00
0600
0600
0600
0600
0600
0600
0600
0600
0600
0600
0600
0600
0310
03F0
01E0
ENDCHAR
STARTCHAR 0286
ENCODING 646
SWIDTH 520 0
DWIDTH 13 0
BBX 13 24 0 -5
BITMAP
00F0
01F8
0188
0300
0300
0300
0300
0300
0300
0300
0300
0300
0300
0300
0300
0300
1FC0
7FF0
E330
C300
C300
C600
7E00
3C00
ENDCHAR
STARTCHAR 0287
ENCODING 647
SWIDTH 360 0
DWIDTH 9 0
BBX 7 16 1 -3
BITMAP
F0
F8
18
18
18
18
18
18
18
18
18
FE
FE
18
18
18
ENDCHAR
STARTCHAR 0288
ENCODING 648
SWIDTH 360 0
DWIDTH 9 0
BBX 7 21 0 -5
BITMAP
30
30
30
FE
FE
30
30
30
30
30
30
30
30
30
30
30
30
30
38
1E
1E
ENDCHAR
STARTCHAR 0289
ENCODING 649
SWIDTH 680 0
DWIDTH 17 0
BBX 15 13 1 0
BITMAP
3018
3018
3018
3018
3018
FFFE
FFFE
3018
3018
3038
38F8
1FD8
0F18
ENDCHAR
STARTCHAR 028A
ENCODING 650
SWIDTH 640 0
DWIDTH 16 0
BBX 14 13 1 0
BITMAP
F87C
F87C
1860
3030
2010
6018
6018
6018
6018
7038
3870
1FE0
0FC0
ENDCHAR
STARTCHAR 028B
ENCODING 651
SWIDTH 600 0
DWIDTH 15 0
BBX 11 13 1 0
BITMAP
C0C0
C060
6060
6060
6060
7060
3060
30C0
30C0
1980
1B80
1F00
1C00
ENDCHAR
STARTCHAR 028C
ENCODING 652
SWIDTH 520 0
DWIDTH 13 0
BBX 11 13 0 0
BITMAP
0E00
0E00
0E00
1B00
1B00
1B00
3180
3180
3180
60C0
60C0
E0C0
C060
ENDCHAR
STARTCHAR 028D
ENCODING 653
SWIDTH 760 0
DWIDTH 19 0
BBX 19 13 0 0
BITMAP
0E0E00
0E0E00
0E0E00
1B1B00
1B1B00
1B1B00
33B980
31B180
31B180
61B0C0
60E0C0
E0E0C0
C0E060
ENDCHAR
STARTCHAR 028E
ENCODING 654
SWIDTH 520 0
DWIDTH 13 0
BBX 12 18 0 0
BITMAP
0180
0380
0300
0700
0600
0600
0F00
0F00
0D80
1980
1980
30C0
30C0
30C0
6060
6060
E030
C030
ENDCHAR
STARTCHAR 028F
ENCODING 655
SWIDTH 480 0
DWIDTH 12 0
BBX 12 13 0 0
BITMAP
C030
6060
30C0
30C0
1980
0F00
0F00
0600
0600
0600
0600
0600
0600
ENDCHAR
STARTCHAR 0290
ENCODING 656
SWIDTH 560 0
DWIDTH 14 0
BBX 14 18 1 -5
BITMAP
FFE0
FFE0
00E0
01C0
0380
0700
0E00
1C00
3800
7000
E000
FFC0
FFC0
00C0
00C0
00E0
007C
003C
ENDCHAR
STARTCHAR 0291
ENCODING 657
SWIDTH 680 0
DWIDTH 17 0
BBX 15 17 1 -4
BITMAP
FFE0
FFE0
00E0
01C0
0380
0700
0E3C
1C7E
38C6
7186
E30E
FFFC
FFF0
0600
0C00
0C00
0C00
ENDCHAR
STARTCHAR 0292
ENCODING 658
SWIDTH 520 0
DWIDTH 13 0
BBX 10 18 1 -5
BITMAP
FFC0
FFC0
0380
0700
0E00
1C00
3800
7C00
7F00
0780
01C0
00C0
00C0
00C0
01C0
8380
FF00
7E00
ENDCHAR
STARTCHAR 0293
ENCODING 659
SWIDTH 520 0
DWIDTH 13 0
BBX 10 20 1 -7
BITMAP
7FC0
7FC0
0180
0300
0600
0C00
1800
3E00
3F00
0380
01C0
00C0
78C0
FCC0
C780
C780
7F00
3D80
0180
0180
ENDCHAR
STARTCHAR 0294
ENCODING 660
SWIDTH 440 0
DWIDTH 11 0
BBX 9 19 1 0
BITMAP
7C00
FE00
8700
0380
0180
0180
0180
0180
0380
0700
3E00
3C00
3000
3000
3000
3000
3000
3000
3000
ENDCHAR
STARTCHAR 0295
ENCODING 661
SWIDTH 440 0
DWIDTH 11 0
BBX 9 19 1 0
BITMAP
1F00
3F80
7080
E000
C000
C000
C000
C000
E000
7000
3E00
1E00
0600
0600
0600
0600
0600
0600
0600
ENDCHAR
STARTCHAR 0296
ENCODING 662
SWIDTH 440 0
DWIDTH 11 0
BBX 9 19 1 0
BITMAP
3000
3000
3000
3000
3000
3000
3000
3800
3E00
0700
0300
0180
0180
0180
0180
0380
8700
FE00
7C00
ENDCHAR
STARTCHAR 0297
ENCODING 663
SWIDTH 480 0
DWIDTH 12 0
BBX 10 18 1 -5
BITMAP
0F80
1FC0
3840
6000
6000
C000
C000
C000
C000
C000
C000
C000
C000
6000
6000
3840
1FC0
0F80
ENDCHAR
STARTCHAR 0298
ENCODING 664
SWIDTH 680 0
DWIDTH 17 0
BBX 14 13 1 0
BITMAP
0FC0
1FE0
7870
6018
E01C
C70C
C70C
C70C
C01C
6018
7878
3FE0
0FC0
ENDCHAR
STARTCHAR 0299
ENCODING 665
SWIDTH 520 0
DWIDTH 13 0
BBX 9 13 2 0
BITMAP
FE00
FF00
C300
C300
C600
FC00
FE00
C300
C180
C180
C380
FF00
FE00
ENDCHAR
STARTCHAR 029A
ENCODING 666
SWIDTH 600 0
DWIDTH 15 0
BBX 12 13 1 0
BITMAP
3F00
7FC0
E0E0
C060
6030
3E30
7E30
E030
C030
C070
E0E0
7FC0
1F00
ENDCHAR
STARTCHAR 029B
ENCODING 667
SWIDTH 600 0
DWIDTH 15 0
BBX 16 19 1 0
BITMAP
000F
001F
0038
0030
0030
0030
0FF0
3FF0
7030
6000
C000
C000
C000
C030
C030
6030
7830
3FF0
0FE0
ENDCHAR
STARTCHAR 029C
ENCODING 668
SWIDTH 640 0
DWIDTH 16 0
BBX 11 13 2 0
BITMAP
C060
C060
C060
C060
C060
FFE0
FFE0
C060
C060
C060
C060
C060
C060
ENDCHAR
STARTCHAR 029D
ENCODING 669
SWIDTH 480 0
DWIDTH 12 0
BBX 12 23 0 -5
BITMAP
0300
0300
0000
0000
0000
0300
0300
0300
0300
0300
0300
0300
0300
0300
0300
1FC0
7FF0
E330
C300
C300
C600
7E00
3C00
ENDCHAR
STARTCHAR 029E
ENCODING 670
SWIDTH 600 0
DWIDTH 15 0
BBX 12 18 0 -5
BITMAP
E030
7030
1830
0C30
0630
03B0
01F0
01B0
0330
0E30
1C30
3830
7030
0030
0030
0030
0030
0030
ENDCHAR
STARTCHAR 029F
ENCODING 671
SWIDTH 480 0
DWIDTH 12 0
BBX 9 13 2 0
BITMAP
C000
C000
C000
C000
C000
C000
C000
C000
C000
C000
C000
FF80
FF80
ENDCHAR
STARTCHAR 02A0
ENCODING 672
SWIDTH 640 0
DWIDTH 16 0
BBX 15 24 1 -5
BITMAP
000E
001E
0038
0030
0030
0030
1F30
3FF0
70F0
6030
C030
C030
C030
C030
C030
E070
70F0
3FB0
1F30
0030
0030
0030
0030
0030
ENDCHAR
STARTCHAR 02A1
ENCODING 673
SWIDTH 440 0
DWIDTH 11 0
BBX 9 19 1 0
BITMAP
7C00
FE00
8700
0380
0180
0180
0180
0180
0380
0700
3E00
3C00
3000
3000
FF00
FF00
3000
3000
3000
ENDCHAR
STARTCHAR 02A2
ENCODING 674
SWIDTH 440 0
DWIDTH 11 0
BBX 9 19 1 0
BITMAP
1F00
3F80
7080
E000
C000
C000
C000
C000
E000
7000
3E00
1E00
0600
0600
7F80
7F80
0600
0600
0600
ENDCHAR
STARTCHAR 02A3
ENCODING 675
SWIDTH 1040 0
DWIDTH 26 0
BBX 23 19 1 0
BITMAP
003000
003000
003000
003000
003000
003000
1F3FFE
3FFFFE
70F006
60300C
C03018
C03030
C03060
C030C0
C03180
E07300
70F600
3FB7FE
1F37FE
ENDCHAR
STARTCHAR 02A4
ENCODING 676
SWIDTH 1000 0
DWIDTH 25 0
BBX 22 24 1 -5
BITMAP
006000
006000
006000
006000
006000
006000
1E7FFC
3FFFFC
71E038
606070
C060E0
C061C0
C06380
C063E0
C063F0
C0E038
61E01C
7F600C
1E600C
00000C
00001C
000838
000FF0
0007C0
ENDCHAR
STARTCHAR 02A5
ENCODING 677
SWIDTH 1200 0
DWIDTH 30 0
BBX 28 23 1 -4
BITMAP
00300000
00300000
00300000
00300000
00300000
00300000
1F3FFC00
3FFFFC00
70F01C00
60301800
C0303000
C0303000
C03061E0
C030C3F0
C030C730
E0718630
70F38C70
3FB3FFE0
1F33FF80
00001800
00003000
00003000
00003000
ENDCHAR
STARTCHAR 02A6
ENCODING 678
SWIDTH 800 0
DWIDTH 20 0
BBX 18 16 0 0
BITMAP
300000
300000
300000
FFFF00
FFFF80
307080
306000
307000
303C00
301F00
300780
3001C0
3000C0
3841C0
1F7F80
0F3F00
ENDCHAR
STARTCHAR 02A7
ENCODING 679
SWIDTH 720 0
DWIDTH 18 0
BBX 19 24 0 -5
BITMAP
0003C0
000FE0
000C20
301800
301800
301800
FFF800
FFF800
301800
301800
301800
301800
301800
301800
301800
301800
381800
1F1800
0F1800
001800
001800
023000
03F000
01E000
ENDCHAR
STARTCHAR 02A8
ENCODING 680
SWIDTH 880 0
DWIDTH 22 0
BBX 21 18 0 -2
BITMAP
300000
300000
300000
FFFFC0
FFFFE0
301820
303000
306000
306000
306000
3061F0
3063F8
303618
383C38
1F1FF0
0F33E0
003000
003000
ENDCHAR
STARTCHAR 02B0
ENCODING 688
SWIDTH 400 0
DWIDTH 10 0
BBX 7 12 1 11
BITMAP
C0
C0
C0
C0
DC
E6
C6
C6
C6
C6
C6
C6
ENDCHAR
STARTCHAR 02B1
ENCODING 689
SWIDTH 400 0
DWIDTH 10 0
BBX 7 12 1 11
BITMAP
3C
60
C0
C0
DC
E6
C6
C6
C6
C6
C6
C6
ENDCHAR
STARTCHAR 02B2
ENCODING 690
SWIDTH 240 0
DWIDTH 6 0
BBX 5 15 0 8
BITMAP
18
18
00
00
18
18
18
18
18
18
18
18
18
98
70
ENDCHAR
STARTCHAR 02B3
ENCODING 691
SWIDTH 240 0
DWIDTH 6 0
BBX 5 8 1 11
BITMAP
D8
E0
C0
C0
C0
C0
C0
C0
ENDCHAR
STARTCHAR 02B4
ENCODING 692
SWIDTH 280 0
DWIDTH 7 0
BBX 5 8 0 11
BITMAP
18
18
18
18
18
18
38
D8
ENDCHAR
STARTCHAR 02B5
ENCODING 693
SWIDTH 320 0
DWIDTH 8 0
BBX 8 11 0 8
BITMAP
18
18
18
18
18
18
38
D8
18
18
0F
ENDCHAR
STARTCHAR 02B6
ENCODING 694
SWIDTH 360 0
DWIDTH 9 0
BBX 8 8 1 11
BITMAP
C3
C6
CC
F8
C6
C6
C6
FC
ENDCHAR
STARTCHAR 02B7
ENCODING 695
SWIDTH 480 0
DWIDTH 12 0
BBX 12 8 0 11
BITMAP
C610
C620
6B20
6B20
6B40
3B40
39C0
3180
ENDCHAR
STARTCHAR 02B8
ENCODING 696
SWIDTH 320 0
DWIDTH 8 0
BBX 8 11 -1 8
BITMAP
C1
62
62
34
34
38
18
18
10
10
20
ENDCHAR
STARTCHAR 02B9
ENCODING 697
SWIDTH 280 0
DWIDTH 7 0
BBX 5 7 2 12
BITMAP
38
30
70
60
60
C0
C0
ENDCHAR
STARTCHAR 02BA
ENCODING 698
SWIDTH 520 0
DWIDTH 13 0
BBX 10 7 2 12
BITMAP
39C0
3180
7380
6300
6300
C600
C600
ENDCHAR
STARTCHAR 02BB
ENCODING 699
SWIDTH 320 0
DWIDTH 8 0
BBX 3 7 2 12
BITMAP
20
40
80
80
E0
E0
E0
ENDCHAR
STARTCHAR 02BC
ENCODING 700
SWIDTH 320 0
DWIDTH 8 0
BBX 3 7 2 12
BITMAP
E0
E0
E0
20
20
40
80
ENDCHAR
STARTCHAR 02BD
ENCODING 701
SWIDTH 320 0
DWIDTH 8 0
BBX 3 7 2 12
BITMAP
E0
E0
E0
80
80
40
20
ENDCHAR
STARTCHAR 02BE
ENCODING 702
SWIDTH 320 0
DWIDTH 8 0
BBX 4 7 2 12
BITMAP
C0
E0
30
30
30
E0
C0
ENDCHAR
STARTCHAR 02BF
ENCODING 703
SWIDTH 320 0
DWIDTH 8 0
BBX 4 7 2 12
BITMAP
30
70
C0
C0
C0
70
30
ENDCHAR
STARTCHAR 02C0
ENCODING 704
SWIDTH 320 0
DWIDTH 8 0
BBX 7 8 1 11
BITMAP
7C
86
06
06
0C
18
30
30
ENDCHAR
STARTCHAR 02C1
ENCODING 705
SWIDTH 320 0
DWIDTH 8 0
BBX 7 8 0 11
BITMAP
7C
C2
C0
C0
60
30
18
18
ENDCHAR
STARTCHAR 02C2
ENCODING 706
SWIDTH 400 0
DWIDTH 10 0
BBX 8 7 0 12
BITMAP
03
0F
3C
F0
3C
0F
03
ENDCHAR
STARTCHAR 02C3
ENCODING 707
SWIDTH 400 0
DWIDTH 10 0
BBX 8 7 2 12
BITMAP
C0
F0
3C
0F
7C
F0
C0
ENDCHAR
STARTCHAR 02C4
ENCODING 708
SWIDTH 400 0
DWIDTH 10 0
BBX 7 8 1 12
BITMAP
10
10
38
38
6C
6C
EE
C6
ENDCHAR
STARTCHAR 02C5
ENCODING 709
SWIDTH 400 0
DWIDTH 10 0
BBX 7 8 1 12
BITMAP
C6
EE
6C
6C
38
38
10
10
ENDCHAR
STARTCHAR 02C6
ENCODING 710
SWIDTH 600 0
DWIDTH 15 0
BBX 7 4 4 16
BITMAP
38
6C
6C
C6
ENDCHAR
STARTCHAR 02C7
ENCODING 711
SWIDTH 600 0
DWIDTH 15 0
BBX 7 4 4 16
BITMAP
C6
6C
6C
38
ENDCHAR
STARTCHAR 02C8
ENCODING 712
SWIDTH 240 0
DWIDTH 6 0
BBX 2 7 2 12
BITMAP
C0
C0
C0
C0
C0
C0
C0
ENDCHAR
STARTCHAR 02C9
ENCODING 713
SWIDTH 600 0
DWIDTH 15 0
BBX 8 2 3 16
BITMAP
FF
FF
ENDCHAR
STARTCHAR 02CA
ENCODING 714
SWIDTH 600 0
DWIDTH 15 0
BBX 6 4 5 16
BITMAP
1C
30
60
C0
ENDCHAR
STARTCHAR 02CB
ENCODING 715
SWIDTH 600 0
DWIDTH 15 0
BBX 6 4 5 16
BITMAP
E0
30
18
0C
ENDCHAR
STARTCHAR 02CC
ENCODING 716
SWIDTH 240 0
DWIDTH 6 0
BBX 2 6 2 -5
BITMAP
C0
C0
C0
C0
C0
C0
ENDCHAR
STARTCHAR 02CD
ENCODING 717
SWIDTH 600 0
DWIDTH 15 0
BBX 8 2 3 -4
BITMAP
FF
FF
ENDCHAR
STARTCHAR 02CE
ENCODING 718
SWIDTH 600 0
DWIDTH 15 0
BBX 6 4 5 -6
BITMAP
E0
30
18
0C
ENDCHAR
STARTCHAR 02CF
ENCODING 719
SWIDTH 600 0
DWIDTH 15 0
BBX 6 4 5 -6
BITMAP
1C
30
60
C0
ENDCHAR
STARTCHAR 02D0
ENCODING 720
SWIDTH 400 0
DWIDTH 10 0
BBX 5 13 2 0
BITMAP
F8
70
70
20
20
00
00
00
20
20
70
70
F8
ENDCHAR
STARTCHAR 02D1
ENCODING 721
SWIDTH 400 0
DWIDTH 10 0
BBX 5 5 2 8
BITMAP
F8
70
70
20
20
ENDCHAR
STARTCHAR 02D2
ENCODING 722
SWIDTH 280 0
DWIDTH 7 0
BBX 4 7 2 4
BITMAP
C0
E0
30
30
30
E0
C0
ENDCHAR
STARTCHAR 02D3
ENCODING 723
SWIDTH 280 0
DWIDTH 7 0
BBX 4 7 2 4
BITMAP
30
70
C0
C0
C0
70
30
ENDCHAR
STARTCHAR 02D4
ENCODING 724
SWIDTH 480 0
DWIDTH 12 0
BBX 8 5 2 6
BITMAP
18
18
18
FF
FF
ENDCHAR
STARTCHAR 02D5
ENCODING 725
SWIDTH 480 0
DWIDTH 12 0
BBX 8 5 2 6
BITMAP
FF
FF
18
18
18
ENDCHAR
STARTCHAR 02D6
ENCODING 726
SWIDTH 480 0
DWIDTH 12 0
BBX 8 8 2 3
BITMAP
18
18
18
FF
FF
18
18
18
ENDCHAR
STARTCHAR 02D7
ENCODING 727
SWIDTH 480 0
DWIDTH 12 0
BBX 8 6 2 4
BITMAP
C3
C3
FF
FF
C3
C3
ENDCHAR
STARTCHAR 02D8
ENCODING 728
SWIDTH 600 0
DWIDTH 15 0
BBX 8 4 3 16
BITMAP
C3
E7
7E
3C
ENDCHAR
STARTCHAR 02D9
ENCODING 729
SWIDTH 600 0
DWIDTH 15 0
BBX 2 2 6 16
BITMAP
C0
C0
ENDCHAR
STARTCHAR 02DA
ENCODING 730
SWIDTH 600 0
DWIDTH 15 0
BBX 6 6 4 16
BITMAP
78
CC
84
84
CC
78
ENDCHAR
STARTCHAR 02DB
ENCODING 731
SWIDTH 600 0
DWIDTH 15 0
BBX 4 5 6 -5
BITMAP
20
40
C0
C0
70
ENDCHAR
STARTCHAR 02DC
ENCODING 732
SWIDTH 600 0
DWIDTH 15 0
BBX 8 3 3 16
BITMAP
73
FF
CE
ENDCHAR
STARTCHAR 02DD
ENCODING 733
SWIDTH 600 0
DWIDTH 15 0
BBX 9 4 3 16
BITMAP
1980
3300
6600
CC00
ENDCHAR
STARTCHAR 02DE
ENCODING 734
SWIDTH 200 0
DWIDTH 5 0
BBX 8 7 -2 3
BITMAP
38
D8
18
18
18
18
0F
ENDCHAR
STARTCHAR 02E0
ENCODING 736
SWIDTH 360 0
DWIDTH 9 0
BBX 9 12 0 7
BITMAP
C180
E180
7300
3300
1E00
1C00
1C00
1E00
3600
3600
3600
1C00
ENDCHAR
STARTCHAR 02E1
ENCODING 737
SWIDTH 200 0
DWIDTH 5 0
BBX 2 12 1 11
BITMAP
C0
C0
C0
C0
C0
C0
C0
C0
C0
C0
C0
C0
ENDCHAR
STARTCHAR 02E2
ENCODING 738
SWIDTH 360 0
DWIDTH 9 0
BBX 7 8 1 11
BITMAP
7C
C0
E0
78
3E
06
06
FC
ENDCHAR
STARTCHAR 02E3
ENCODING 739
SWIDTH 440 0
DWIDTH 11 0
BBX 8 8 1 11
BITMAP
C1
62
34
18
18
2C
46
83
ENDCHAR
STARTCHAR 02E4
ENCODING 740
SWIDTH 320 0
DWIDTH 8 0
BBX 7 11 0 11
BITMAP
7E
C0
C0
C0
60
30
18
18
18
18
18
ENDCHAR
STARTCHAR 02E5
ENCODING 741
SWIDTH 440 0
DWIDTH 11 0
BBX 9 18 0 0
BITMAP
FF80
FF80
0180
0180
0180
0180
0180
0180
0180
0180
0180
0180
0180
0180
0180
0180
0180
0180
ENDCHAR
STARTCHAR 02E6
ENCODING 742
SWIDTH 440 0
DWIDTH 11 0
BBX 9 18 0 0
BITMAP
0180
0180
0180
0180
FF80
FF80
0180
0180
0180
0180
0180
0180
0180
0180
0180
0180
0180
0180
ENDCHAR
STARTCHAR 02E7
ENCODING 743
SWIDTH 440 0
DWIDTH 11 0
BBX 9 18 0 0
BITMAP
0180
0180
0180
0180
0180
0180
0180
0180
FF80
FF80
0180
0180
0180
0180
0180
0180
0180
0180
ENDCHAR
STARTCHAR 02E8
ENCODING 744
SWIDTH 440 0
DWIDTH 11 0
BBX 9 18 0 0
BITMAP
0180
0180
0180
0180
0180
0180
0180
0180
0180
0180
0180
0180
FF80
FF80
0180
0180
0180
0180
ENDCHAR
STARTCHAR 02E9
ENCODING 745
SWIDTH 440 0
DWIDTH 11 0
BBX 9 18 0 0
BITMAP
0180
0180
0180
0180
0180
0180
0180
0180
0180
0180
0180
0180
0180
0180
0180
0180
FF80
FF80
ENDCHAR
STARTCHAR 0300
ENCODING 768
SWIDTH 0 0
DWIDTH 0 0
BBX 6 4 -12 16
BITMAP
E0
30
18
0C
ENDCHAR
STARTCHAR 0301
ENCODING 769
SWIDTH 0 0
DWIDTH 0 0
BBX 6 4 -9 16
BITMAP
1C
30
60
C0
ENDCHAR
STARTCHAR 0302
ENCODING 770
SWIDTH 0 0
DWIDTH 0 0
BBX 7 4 -11 16
BITMAP
38
6C
6C
C6
ENDCHAR
STARTCHAR 0303
ENCODING 771
SWIDTH 0 0
DWIDTH 0 0
BBX 8 3 -12 16
BITMAP
73
FF
CE
ENDCHAR
STARTCHAR 0304
ENCODING 772
SWIDTH 0 0
DWIDTH 0 0
BBX 8 2 -12 16
BITMAP
FF
FF
ENDCHAR
STARTCHAR 0305
ENCODING 773
SWIDTH 0 0
DWIDTH 0 0
BBX 15 2 -15 20
BITMAP
FFFE
FFFE
ENDCHAR
STARTCHAR 0306
ENCODING 774
SWIDTH 0 0
DWIDTH 0 0
BBX 8 4 -12 16
BITMAP
C3
E7
7E
3C
ENDCHAR
STARTCHAR 0307
ENCODING 775
SWIDTH 0 0
DWIDTH 0 0
BBX 2 2 -9 16
BITMAP
C0
C0
ENDCHAR
STARTCHAR 0308
ENCODING 776
SWIDTH 0 0
DWIDTH 0 0
BBX 7 2 -11 16
BITMAP
C6
C6
ENDCHAR
STARTCHAR 0309
ENCODING 777
SWIDTH 0 0
DWIDTH 0 0
BBX 5 5 -10 16
BITMAP
F0
18
18
30
60
ENDCHAR
STARTCHAR 030A
ENCODING 778
SWIDTH 0 0
DWIDTH 0 0
BBX 6 6 -10 16
BITMAP
78
CC
84
84
CC
78
ENDCHAR
STARTCHAR 030B
ENCODING 779
SWIDTH 0 0
DWIDTH 0 0
BBX 9 4 -12 16
BITMAP
1980
3300
6600
CC00
ENDCHAR
STARTCHAR 030C
ENCODING 780
SWIDTH 0 0
DWIDTH 0 0
BBX 7 4 -11 16
BITMAP
C6
6C
6C
38
ENDCHAR
STARTCHAR 030D
ENCODING 781
SWIDTH 0 0
DWIDTH 0 0
BBX 2 5 -9 16
BITMAP
C0
C0
C0
C0
C0
ENDCHAR
STARTCHAR 030E
ENCODING 782
SWIDTH 0 0
DWIDTH 0 0
BBX 6 5 -11 16
BITMAP
CC
CC
CC
CC
CC
ENDCHAR
STARTCHAR 030F
ENCODING 783
SWIDTH 0 0
DWIDTH 0 0
BBX 9 4 -13 16
BITMAP
CC00
6600
3300
1980
ENDCHAR
STARTCHAR 0310
ENCODING 784
SWIDTH 0 0
DWIDTH 0 0
BBX 8 7 -12 16
BITMAP
18
18
00
C3
E7
7E
3C
ENDCHAR
STARTCHAR 0311
ENCODING 785
SWIDTH 0 0
DWIDTH 0 0
BBX 8 4 -12 16
BITMAP
3C
7E
E7
C3
ENDCHAR
STARTCHAR 0312
ENCODING 786
SWIDTH 0 0
DWIDTH 0 0
BBX 2 5 -9 16
BITMAP
40
80
80
C0
C0
ENDCHAR
STARTCHAR 0313
ENCODING 787
SWIDTH 0 0
DWIDTH 0 0
BBX 2 5 -9 16
BITMAP
C0
C0
40
40
80
ENDCHAR
STARTCHAR 0314
ENCODING 788
SWIDTH 0 0
DWIDTH 0 0
BBX 2 5 -9 16
BITMAP
C0
C0
80
80
40
ENDCHAR
STARTCHAR 0315
ENCODING 789
SWIDTH 0 0
DWIDTH 0 0
BBX 2 5 -2 16
BITMAP
C0
C0
40
40
80
ENDCHAR
STARTCHAR 0316
ENCODING 790
SWIDTH 0 0
DWIDTH 0 0
BBX 6 4 -11 -6
BITMAP
E0
30
18
0C
ENDCHAR
STARTCHAR 0317
ENCODING 791
SWIDTH 0 0
DWIDTH 0 0
BBX 6 4 -11 -6
BITMAP
1C
30
60
C0
ENDCHAR
STARTCHAR 0318
ENCODING 792
SWIDTH 0 0
DWIDTH 0 0
BBX 5 5 -10 -8
BITMAP
08
08
F8
08
08
ENDCHAR
STARTCHAR 0319
ENCODING 793
SWIDTH 0 0
DWIDTH 0 0
BBX 5 5 -10 -8
BITMAP
80
80
F8
80
80
ENDCHAR
STARTCHAR 031A
ENCODING 794
SWIDTH 0 0
DWIDTH 0 0
BBX 6 6 -6 13
BITMAP
FC
04
04
04
04
04
ENDCHAR
STARTCHAR 031B
ENCODING 795
SWIDTH 80 0
DWIDTH 2 0
BBX 4 5 -3 9
BITMAP
30
30
30
60
C0
ENDCHAR
STARTCHAR 031C
ENCODING 796
SWIDTH 0 0
DWIDTH 0 0
BBX 3 6 -9 -8
BITMAP
60
C0
80
80
C0
60
ENDCHAR
STARTCHAR 031D
ENCODING 797
SWIDTH 0 0
DWIDTH 0 0
BBX 7 5 -11 -7
BITMAP
10
10
10
10
FE
ENDCHAR
STARTCHAR 031E
ENCODING 798
SWIDTH 0 0
DWIDTH 0 0
BBX 7 5 -11 -7
BITMAP
FE
10
10
10
10
ENDCHAR
STARTCHAR 031F
ENCODING 799
SWIDTH 0 0
DWIDTH 0 0
BBX 7 5 -11 -8
BITMAP
10
10
FE
10
10
ENDCHAR
STARTCHAR 0320
ENCODING 800
SWIDTH 0 0
DWIDTH 0 0
BBX 7 3 -11 -6
BITMAP
82
FE
82
ENDCHAR
STARTCHAR 0321
ENCODING 801
SWIDTH 0 0
DWIDTH 0 0
BBX 5 5 -5 -5
BITMAP
18
18
18
30
E0
ENDCHAR
STARTCHAR 0322
ENCODING 802
SWIDTH 0 0
DWIDTH 0 0
BBX 5 5 -5 -5
BITMAP
C0
C0
C0
60
38
ENDCHAR
STARTCHAR 0323
ENCODING 803
SWIDTH 0 0
DWIDTH 0 0
BBX 2 2 -9 -4
BITMAP
C0
C0
ENDCHAR
STARTCHAR 0324
ENCODING 804
SWIDTH 0 0
DWIDTH 0 0
BBX 7 2 -11 -4
BITMAP
C6
C6
ENDCHAR
STARTCHAR 0325
ENCODING 805
SWIDTH 0 0
DWIDTH 0 0
BBX 6 6 -10 -8
BITMAP
78
CC
84
84
CC
78
ENDCHAR
STARTCHAR 0326
ENCODING 806
SWIDTH 600 0
DWIDTH 15 0
BBX 2 5 6 -7
BITMAP
C0
C0
40
40
80
ENDCHAR
STARTCHAR 0327
ENCODING 807
SWIDTH 0 0
DWIDTH 0 0
BBX 4 5 -9 -5
BITMAP
40
E0
30
30
E0
ENDCHAR
STARTCHAR 0328
ENCODING 808
SWIDTH 0 0
DWIDTH 0 0
BBX 4 5 -9 -5
BITMAP
20
40
C0
C0
70
ENDCHAR
STARTCHAR 0329
ENCODING 809
SWIDTH 0 0
DWIDTH 0 0
BBX 2 5 -9 -7
BITMAP
C0
C0
C0
C0
C0
ENDCHAR
STARTCHAR 032A
ENCODING 810
SWIDTH 0 0
DWIDTH 0 0
BBX 7 4 -11 -6
BITMAP
FE
82
82
82
ENDCHAR
STARTCHAR 032B
ENCODING 811
SWIDTH 0 0
DWIDTH 0 0
BBX 12 4 -14 -6
BITMAP
C630
E670
7FE0
39C0
ENDCHAR
STARTCHAR 032C
ENCODING 812
SWIDTH 0 0
DWIDTH 0 0
BBX 7 4 -11 -6
BITMAP
C6
6C
6C
38
ENDCHAR
STARTCHAR 032D
ENCODING 813
SWIDTH 0 0
DWIDTH 0 0
BBX 7 4 -11 -6
BITMAP
38
6C
6C
C6
ENDCHAR
STARTCHAR 032E
ENCODING 814
SWIDTH 0 0
DWIDTH 0 0
BBX 8 4 -12 -6
BITMAP
C3
E7
7E
3C
ENDCHAR
STARTCHAR 032F
ENCODING 815
SWIDTH 0 0
DWIDTH 0 0
BBX 8 4 -12 -6
BITMAP
3C
7E
E7
C3
ENDCHAR
STARTCHAR 0330
ENCODING 816
SWIDTH 0 0
DWIDTH 0 0
BBX 8 3 -12 -5
BITMAP
73
FF
CE
ENDCHAR
STARTCHAR 0331
ENCODING 817
SWIDTH 0 0
DWIDTH 0 0
BBX 8 2 -12 -4
BITMAP
FF
FF
ENDCHAR
STARTCHAR 0332
ENCODING 818
SWIDTH 0 0
DWIDTH 0 0
BBX 15 2 -15 -7
BITMAP
FFFE
FFFE
ENDCHAR
STARTCHAR 0333
ENCODING 819
SWIDTH 0 0
DWIDTH 0 0
BBX 15 6 -15 -11
BITMAP
FFFE
FFFE
0000
0000
FFFE
FFFE
ENDCHAR
STARTCHAR 0334
ENCODING 820
SWIDTH 0 0
DWIDTH 0 0
BBX 13 4 -14 5
BITMAP
3C18
7F18
C7F0
C1E0
ENDCHAR
STARTCHAR 0335
ENCODING 821
SWIDTH 0 0
DWIDTH 0 0
BBX 13 2 -14 6
BITMAP
FFF8
FFF8
ENDCHAR
STARTCHAR 0336
ENCODING 822
SWIDTH 0 0
DWIDTH 0 0
BBX 15 2 -15 6
BITMAP
FFFE
FFFE
ENDCHAR
STARTCHAR 0337
ENCODING 823
SWIDTH 0 0
DWIDTH 0 0
BBX 15 13 -15 0
BITMAP
0006
000C
0018
0030
00E0
01C0
0380
0700
0E00
1C00
3000
6000
C000
ENDCHAR
STARTCHAR 0338
ENCODING 824
SWIDTH 0 0
DWIDTH 0 0
BBX 13 22 -14 -2
BITMAP
0018
0030
0030
0060
0060
00C0
00C0
0180
0180
0300
0300
0600
0600
0C00
0C00
1800
1800
3000
3000
6000
6000
C000
ENDCHAR
STARTCHAR 0339
ENCODING 825
SWIDTH 0 0
DWIDTH 0 0
BBX 3 6 -9 -8
BITMAP
C0
60
20
20
60
C0
ENDCHAR
STARTCHAR 033A
ENCODING 826
SWIDTH 0 0
DWIDTH 0 0
BBX 7 4 -11 -6
BITMAP
82
82
82
FE
ENDCHAR
STARTCHAR 033B
ENCODING 827
SWIDTH 0 0
DWIDTH 0 0
BBX 7 5 -11 -7
BITMAP
FE
82
82
82
FE
ENDCHAR
STARTCHAR 033C
ENCODING 828
SWIDTH 0 0
DWIDTH 0 0
BBX 12 4 -13 -6
BITMAP
39C0
7FE0
E670
C630
ENDCHAR
STARTCHAR 033D
ENCODING 829
SWIDTH 0 0
DWIDTH 0 0
BBX 6 5 -11 15
BITMAP
84
48
30
48
84
ENDCHAR
STARTCHAR 033E
ENCODING 830
SWIDTH 0 0
DWIDTH 0 0
BBX 4 5 -9 16
BITMAP
60
C0
60
30
60
ENDCHAR
STARTCHAR 033F
ENCODING 831
SWIDTH 0 0
DWIDTH 0 0
BBX 15 6 -15 19
BITMAP
FFFE
FFFE
0000
0000
FFFE
FFFE
ENDCHAR
STARTCHAR 0340
ENCODING 832
SWIDTH 0 0
DWIDTH 0 0
BBX 6 4 -16 19
BITMAP
E0
30
18
0C
ENDCHAR
STARTCHAR 0341
ENCODING 833
SWIDTH 0 0
DWIDTH 0 0
BBX 6 4 -6 19
BITMAP
1C
30
60
C0
ENDCHAR
STARTCHAR 0342
ENCODING 834
SWIDTH 0 0
DWIDTH 0 0
BBX 8 3 -12 16
BITMAP
73
FF
CE
ENDCHAR
STARTCHAR 0343
ENCODING 835
SWIDTH 0 0
DWIDTH 0 0
BBX 2 5 -9 16
BITMAP
C0
C0
40
40
80
ENDCHAR
STARTCHAR 0344
ENCODING 836
SWIDTH 0 0
DWIDTH 0 0
BBX 10 4 -12 16
BITMAP
0C00
0C00
CCC0
CCC0
ENDCHAR
STARTCHAR 0345
ENCODING 837
SWIDTH 0 0
DWIDTH 0 0
BBX 4 4 -8 -6
BITMAP
C0
C0
F0
70
ENDCHAR
STARTCHAR 0374
ENCODING 884
SWIDTH 280 0
DWIDTH 7 0
BBX 5 7 2 12
BITMAP
18
30
30
70
60
60
C0
ENDCHAR
STARTCHAR 0375
ENCODING 885
SWIDTH 280 0
DWIDTH 7 0
BBX 5 7 2 -5
BITMAP
18
30
30
70
60
60
C0
ENDCHAR
STARTCHAR 037A
ENCODING 890
SWIDTH 600 0
DWIDTH 15 0
BBX 4 4 7 -5
BITMAP
C0
C0
F0
70
ENDCHAR
STARTCHAR 037E
ENCODING 894
SWIDTH 320 0
DWIDTH 8 0
BBX 2 17 3 -4
BITMAP
C0
C0
C0
00
00
00
00
00
00
00
C0
C0
C0
40
40
40
80
ENDCHAR
STARTCHAR 0384
ENCODING 900
SWIDTH 600 0
DWIDTH 15 0
BBX 2 4 6 15
BITMAP
C0
C0
C0
C0
ENDCHAR
STARTCHAR 0385
ENCODING 901
SWIDTH 600 0
DWIDTH 15 0
BBX 10 4 2 15
BITMAP
0C00
0C00
CCC0
CCC0
ENDCHAR
STARTCHAR 0386
ENCODING 902
SWIDTH 680 0
DWIDTH 17 0
BBX 17 18 0 0
BITMAP
C08000
C1C000
C1C000
C36000
036000
077000
063000
063000
0C1800
0C1800
180C00
1FFC00
3FFE00
300600
300600
600300
600300
C00180
ENDCHAR
STARTCHAR 0387
ENCODING 903
SWIDTH 320 0
DWIDTH 8 0
BBX 3 3 2 6
BITMAP
E0
E0
E0
ENDCHAR
STARTCHAR 0388
ENCODING 904
SWIDTH 640 0
DWIDTH 16 0
BBX 15 18 1 0
BITMAP
CFFC
CFFC
CC00
CC00
0C00
0C00
0C00
0C00
0FF8
0FF8
0C00
0C00
0C00
0C00
0C00
0C00
0FFE
0FFE
ENDCHAR
STARTCHAR 0389
ENCODING 905
SWIDTH 840 0
DWIDTH 21 0
BBX 18 18 0 0
BITMAP
C600C0
C600C0
C600C0
C600C0
0600C0
0600C0
0600C0
0600C0
07FFC0
07FFC0
0600C0
0600C0
0600C0
0600C0
0600C0
0600C0
0600C0
0600C0
ENDCHAR
STARTCHAR 038A
ENCODING 906
SWIDTH 400 0
DWIDTH 10 0
BBX 7 18 0 0
BITMAP
C6
C6
C6
C6
06
06
06
06
06
06
06
06
06
06
06
06
06
06
ENDCHAR
STARTCHAR 038C
ENCODING 908
SWIDTH 880 0
DWIDTH 22 0
BBX 19 18 0 0
BITMAP
C0FC00
C3FF00
C70380
CE01C0
0C00C0
1C00E0
180060
180060
180060
180060
180060
180060
1C00E0
0C00C0
0E01C0
070380
03FF00
00FC00
ENDCHAR
STARTCHAR 038E
ENCODING 910
SWIDTH 800 0
DWIDTH 20 0
BBX 20 18 0 0
BITMAP
CE0030
CF80F0
C3C1C0
C0E380
006300
007600
003600
003C00
001C00
001800
001800
001800
001800
001800
001800
001800
001800
001800
ENDCHAR
STARTCHAR 038F
ENCODING 911
SWIDTH 880 0
DWIDTH 22 0
BBX 21 18 0 0
BITMAP
C0FE00
C3FF80
C783C0
CE00E0
0C0060
1C0070
180030
180030
180030
180030
180030
180030
0C0060
0C0060
0600C0
030180
3F83F8
3F83F8
ENDCHAR
STARTCHAR 0390
ENCODING 912
SWIDTH 360 0
DWIDTH 9 0
BBX 10 19 -2 0
BITMAP
0C00
0C00
CCC0
CCC0
0000
0000
0C00
0C00
0C00
0C00
0C00
0C00
0C00
0C00
0C00
0C00
0E40
07C0
0380
ENDCHAR
STARTCHAR 0391
ENCODING 913
SWIDTH 680 0
DWIDTH 17 0
BBX 17 18 0 0
BITMAP
008000
01C000
01C000
036000
036000
077000
063000
063000
0C1800
0C1800
180C00
1FFC00
3FFE00
300600
300600
600300
600300
C00180
ENDCHAR
STARTCHAR 0392
ENCODING 914
SWIDTH 560 0
DWIDTH 14 0
BBX 11 18 2 0
BITMAP
FF00
FF80
C1C0
C0C0
C0C0
C0C0
C180
C380
FE00
FF00
C3C0
C0C0
C060
C060
C060
C1E0
FFC0
FF00
ENDCHAR
STARTCHAR 0393
ENCODING 915
SWIDTH 520 0
DWIDTH 13 0
BBX 11 18 2 0
BITMAP
FFE0
FFE0
C000
C000
C000
C000
C000
C000
C000
C000
C000
C000
C000
C000
C000
C000
C000
C000
ENDCHAR
STARTCHAR 0394
ENCODING 916
SWIDTH 720 0
DWIDTH 18 0
BBX 15 18 1 0
BITMAP
0380
0380
07C0
06C0
06C0
0C60
0C60
1C70
1830
1830
3018
3018
701C
600C
600C
C006
FFFE
FFFE
ENDCHAR
STARTCHAR 0395
ENCODING 917
SWIDTH 560 0
DWIDTH 14 0
BBX 11 18 2 0
BITMAP
FFC0
FFC0
C000
C000
C000
C000
C000
C000
FF80
FF80
C000
C000
C000
C000
C000
C000
FFE0
FFE0
ENDCHAR
STARTCHAR 0396
ENCODING 918
SWIDTH 600 0
DWIDTH 15 0
BBX 12 18 1 0
BITMAP
7FF0
7FF0
0070
0060
00C0
01C0
0180
0300
0600
0600
0C00
1800
3800
3000
6000
E000
FFF0
FFF0
ENDCHAR
STARTCHAR 0397
ENCODING 919
SWIDTH 720 0
DWIDTH 18 0
BBX 13 18 2 0
BITMAP
C018
C018
C018
C018
C018
C018
C018
C018
FFF8
FFF8
C018
C018
C018
C018
C018
C018
C018
C018
ENDCHAR
STARTCHAR 0398
ENCODING 920
SWIDTH 760 0
DWIDTH 19 0
BBX 16 18 1 0
BITMAP
07E0
1FF8
381C
700E
6006
E007
C003
C003
CFF3
CFF3
C003
C003
E007
6006
700E
381C
1FF8
07E0
ENDCHAR
STARTCHAR 0399
ENCODING 921
SWIDTH 280 0
DWIDTH 7 0
BBX 2 18 2 0
BITMAP
C0
C0
C0
C0
C0
C0
C0
C0
C0
C0
C0
C0
C0
C0
C0
C0
C0
C0
ENDCHAR
STARTCHAR 039A
ENCODING 922
SWIDTH 640 0
DWIDTH 16 0
BBX 13 18 2 0
BITMAP
C030
C060
C0C0
C180
C300
C600
CC00
D800
F000
D800
CC00
C600
C300
C180
C0C0
C060
C030
C018
ENDCHAR
STARTCHAR 039B
ENCODING 923
SWIDTH 640 0
DWIDTH 16 0
BBX 15 18 0 0
BITMAP
0380
0380
0380
06C0
06C0
06C0
0C60
0C60
1C60
1830
1830
3018
3018
3018
600C
600C
600C
C006
ENDCHAR
STARTCHAR 039C
ENCODING 924
SWIDTH 880 0
DWIDTH 22 0
BBX 17 18 2 0
BITMAP
E00380
E00380
F00780
F00780
F80F80
D80D80
D80D80
CC1980
CC1980
CE3980
C63180
C63180
C36180
C36180
C1E180
C1C180
C1C180
C00180
ENDCHAR
STARTCHAR 039D
ENCODING 925
SWIDTH 720 0
DWIDTH 18 0
BBX 13 18 2 0
BITMAP
E018
E018
F018
F018
D818
DC18
CC18
C618
C618
C318
C318
C198
C0D8
C0D8
C078
C078
C038
C038
ENDCHAR
STARTCHAR 039E
ENCODING 926
SWIDTH 640 0
DWIDTH 16 0
BBX 14 18 1 0
BITMAP
7FF8
7FF8
0000
0000
0000
0000
0000
0000
3FF0
3FF0
0000
0000
0000
0000
0000
0000
FFFC
FFFC
ENDCHAR
STARTCHAR 039F
ENCODING 927
SWIDTH 760 0
DWIDTH 19 0
BBX 16 18 1 0
BITMAP
07E0
1FF8
381C
700E
6006
E007
C003
C003
C003
C003
C003
C003
E007
6006
700E
381C
1FF8
07E0
ENDCHAR
STARTCHAR 03A0
ENCODING 928
SWIDTH 720 0
DWIDTH 18 0
BBX 13 18 2 0
BITMAP
FFF8
FFF8
C018
C018
C018
C018
C018
C018
C018
C018
C018
C018
C018
C018
C018
C018
C018
C018
ENDCHAR
STARTCHAR 03A1
ENCODING 929
SWIDTH 560 0
DWIDTH 14 0
BBX 11 18 2 0
BITMAP
FF00
FFC0
C0E0
C060
C060
C060
C0E0
C1C0
FF80
FE00
C000
C000
C000
C000
C000
C000
C000
C000
ENDCHAR
STARTCHAR 03A3
ENCODING 931
SWIDTH 600 0
DWIDTH 15 0
BBX 13 18 1 0
BITMAP
FFF8
FFF8
6000
3000
1800
0E00
0700
0380
01C0
0380
0700
0E00
1C00
3800
7000
E000
FFF8
FFF8
ENDCHAR
STARTCHAR 03A4
ENCODING 932
SWIDTH 640 0
DWIDTH 16 0
BBX 14 18 1 0
BITMAP
FFFC
FFFC
0300
0300
0300
0300
0300
0300
0300
0300
0300
0300
0300
0300
0300
0300
0300
0300
ENDCHAR
STARTCHAR 03A5
ENCODING 933
SWIDTH 640 0
DWIDTH 16 0
BBX 16 18 0 0
BITMAP
E003
F80F
3C1C
0E38
0630
0760
0360
03C0
01C0
0180
0180
0180
0180
0180
0180
0180
0180
0180
ENDCHAR
STARTCHAR 03A6
ENCODING 934
SWIDTH 720 0
DWIDTH 18 0
BBX 16 18 1 0
BITMAP
0180
0180
0180
0FF0
3FFC
718E
6186
C183
C183
C183
C183
6186
718E
3FFC
0FF0
0180
0180
0180
ENDCHAR
STARTCHAR 03A7
ENCODING 935
SWIDTH 640 0
DWIDTH 16 0
BBX 15 18 0 0
BITMAP
C006
600C
3018
3838
1830
0C60
06E0
07C0
0380
0380
07C0
0EC0
0C60
1830
3838
3018
600C
C006
ENDCHAR
STARTCHAR 03A8
ENCODING 936
SWIDTH 720 0
DWIDTH 18 0
BBX 18 18 0 0
BITMAP
E0C1C0
F0C3C0
30C300
30C300
18C600
18C600
18C600
1CCE00
0FFC00
03F000
00C000
00C000
00C000
00C000
00C000
00C000
00C000
00C000
ENDCHAR
STARTCHAR 03A9
ENCODING 937
SWIDTH 800 0
DWIDTH 20 0
BBX 19 18 0 0
BITMAP
03F800
0FFE00
1E0F00
380380
300180
7001C0
6000C0
6000C0
6000C0
6000C0
6000C0
6000C0
300180
300180
180300
0C0600
FE0FE0
FE0FE0
ENDCHAR
STARTCHAR 03AA
ENCODING 938
SWIDTH 280 0
DWIDTH 7 0
BBX 7 22 0 0
BITMAP
C6
C6
00
00
30
30
30
30
30
30
30
30
30
30
30
30
30
30
30
30
30
30
ENDCHAR
STARTCHAR 03AB
ENCODING 939
SWIDTH 640 0
DWIDTH 16 0
BBX 16 22 0 0
BITMAP
0630
0630
0000
0000
E003
F80F
3C1C
0E38
0630
0760
0360
03C0
01C0
0180
0180
0180
0180
0180
0180
0180
0180
0180
ENDCHAR
STARTCHAR 03AC
ENCODING 940
SWIDTH 680 0
DWIDTH 17 0
BBX 15 19 1 0
BITMAP
0300
0300
0300
0300
0000
0000
1F06
3F8E
71CC
60DC
C0F8
C078
C070
C070
C078
E0F8
71DC
3F8C
1F0E
ENDCHAR
STARTCHAR 03AD
ENCODING 941
SWIDTH 520 0
DWIDTH 13 0
BBX 10 19 1 0
BITMAP
0600
0600
0600
0600
0000
0000
0F80
3FC0
7040
E000
C000
FF80
FF80
C000
C000
6000
7040
3FC0
0F80
ENDCHAR
STARTCHAR 03AE
ENCODING 942
SWIDTH 640 0
DWIDTH 16 0
BBX 12 24 1 -5
BITMAP
0300
0300
0300
0300
0000
0000
C3C0
6FE0
7C70
7030
6030
6030
6030
6030
6030
6030
6030
6030
6030
0030
0030
0030
0030
0030
ENDCHAR
STARTCHAR 03AF
ENCODING 943
SWIDTH 360 0
DWIDTH 9 0
BBX 6 19 2 0
BITMAP
C0
C0
C0
C0
00
00
C0
C0
C0
C0
C0
C0
C0
C0
C0
C0
E4
7C
38
ENDCHAR
STARTCHAR 03B0
ENCODING 944
SWIDTH 600 0
DWIDTH 15 0
BBX 11 19 2 0
BITMAP
0600
0600
6660
6660
0000
0000
C180
C0C0
C0C0
C060
C060
C060
C060
C060
C060
C0E0
61C0
7F80
1F00
ENDCHAR
STARTCHAR 03B1
ENCODING 945
SWIDTH 680 0
DWIDTH 17 0
BBX 15 13 1 0
BITMAP
1F06
3F8E
71CC
60DC
C0F8
C078
C070
C070
C078
E0F8
71DC
3F8C
1F0E
ENDCHAR
STARTCHAR 03B2
ENCODING 946
SWIDTH 600 0
DWIDTH 15 0
BBX 11 24 2 -5
BITMAP
1F00
3F80
61C0
E0C0
C0C0
C0C0
C180
C300
DE00
DF80
C1C0
C0E0
C060
C060
C060
C0E0
E1C0
FF80
FF00
C000
C000
C000
C000
C000
ENDCHAR
STARTCHAR 03B3
ENCODING 947
SWIDTH 560 0
DWIDTH 14 0
BBX 13 18 0 -5
BITMAP
C018
6030
3030
3060
18E0
18C0
0CC0
0D80
0D80
0700
0700
0600
0600
0600
0600
0600
0600
0600
ENDCHAR
STARTCHAR 03B4
ENCODING 948
SWIDTH 600 0
DWIDTH 15 0
BBX 12 19 1 0
BITMAP
3F80
7FC0
E040
C000
7000
3C00
1F00
1F80
30C0
6060
C030
C030
C030
C030
C030
E070
70E0
3FC0
1F80
ENDCHAR
STARTCHAR 03B5
ENCODING 949
SWIDTH 520 0
DWIDTH 13 0
BBX 10 13 1 0
BITMAP
0F80
3FC0
7040
E000
C000
FF80
FF80
C000
C000
6000
7040
3FC0
0F80
ENDCHAR
STARTCHAR 03B6
ENCODING 950
SWIDTH 640 0
DWIDTH 16 0
BBX 16 24 0 -5
BITMAP
0007
003F
C0FE
FFF8
7FE0
0700
0600
0C00
1800
1800
3000
3000
3000
3000
3000
3800
1C00
0FFC
03FF
0003
0003
0007
007E
007C
ENDCHAR
STARTCHAR 03B7
ENCODING 951
SWIDTH 640 0
DWIDTH 16 0
BBX 12 18 1 -5
BITMAP
C3C0
6FE0
7C70
7030
6030
6030
6030
6030
6030
6030
6030
6030
6030
0030
0030
0030
0030
0030
ENDCHAR
STARTCHAR 03B8
ENCODING 952
SWIDTH 600 0
DWIDTH 15 0
BBX 12 19 1 0
BITMAP
0F00
3FC0
30C0
6060
6060
C030
C030
C030
FFF0
FFF0
C030
C030
C030
C030
6060
6060
30C0
3FC0
0F00
ENDCHAR
STARTCHAR 03B9
ENCODING 953
SWIDTH 360 0
DWIDTH 9 0
BBX 6 13 2 0
BITMAP
C0
C0
C0
C0
C0
C0
C0
C0
C0
C0
E4
7C
38
ENDCHAR
STARTCHAR 03BA
ENCODING 954
SWIDTH 560 0
DWIDTH 14 0
BBX 11 13 2 0
BITMAP
C0C0
C1C0
C300
C600
CC00
D800
F800
DC00
CE00
C700
C380
C1C0
C0E0
ENDCHAR
STARTCHAR 03BB
ENCODING 955
SWIDTH 600 0
DWIDTH 15 0
BBX 14 19 1 0
BITMAP
7000
7800
1C00
0C00
0600
0600
0300
0300
0780
0780
0CC0
0CC0
1860
1860
3070
3030
6038
6018
C01C
ENDCHAR
STARTCHAR 03BC
ENCODING 956
SWIDTH 640 0
DWIDTH 16 0
BBX 12 18 2 -5
BITMAP
C060
C060
C060
C060
C060
C060
C060
C060
C060
C0E0
E3E0
FF60
FE30
C000
C000
C000
C000
C000
ENDCHAR
STARTCHAR 03BD
ENCODING 957
SWIDTH 560 0
DWIDTH 14 0
BBX 12 13 0 0
BITMAP
C030
6030
6030
3030
3060
1860
1860
18C0
0CC0
0D80
0D80
0700
0700
ENDCHAR
STARTCHAR 03BE
ENCODING 958
SWIDTH 560 0
DWIDTH 14 0
BBX 14 24 0 -5
BITMAP
C1F0
FFF0
7FC0
1C00
1800
1800
1C00
0E00
03F0
0FF0
1E00
1800
3000
3000
3000
3000
1800
1FF0
07FC
000C
000C
001C
01F8
01F0
ENDCHAR
STARTCHAR 03BF
ENCODING 959
SWIDTH 600 0
DWIDTH 15 0
BBX 12 13 1 0
BITMAP
1F80
3FC0
70E0
6060
C030
C030
C030
C030
C030
6060
70E0
3FC0
1F80
ENDCHAR
STARTCHAR 03C0
ENCODING 960
SWIDTH 800 0
DWIDTH 20 0
BBX 18 13 1 0
BITMAP
7FFFC0
FFFFC0
8C0600
0C0600
0C0600
0C0600
0C0600
0C0600
0C0600
0C0600
0C0600
0C0600
0C0300
ENDCHAR
STARTCHAR 03C1
ENCODING 961
SWIDTH 600 0
DWIDTH 15 0
BBX 11 18 2 -5
BITMAP
1F00
3FC0
71C0
60E0
C060
C060
C060
C060
C0E0
C0C0
E180
FF80
FE00
C000
C000
C000
C000
C000
ENDCHAR
STARTCHAR 03C2
ENCODING 962
SWIDTH 560 0
DWIDTH 14 0
BBX 13 18 1 -5
BITMAP
03F0
0FF0
3C00
7000
6000
C000
C000
C000
C000
C000
7000
3FE0
1FF8
0018
0018
0038
03F0
03E0
ENDCHAR
STARTCHAR 03C3
ENCODING 963
SWIDTH 680 0
DWIDTH 17 0
BBX 16 13 1 0
BITMAP
0FFF
3FFF
7070
6030
C018
C018
C018
C018
C018
6030
7070
3FE0
0F80
ENDCHAR
STARTCHAR 03C4
ENCODING 964
SWIDTH 520 0
DWIDTH 13 0
BBX 12 13 0 0
BITMAP
7FF0
FFF0
8600
0600
0600
0600
0600
0600
0600
0600
0600
0600
0300
ENDCHAR
STARTCHAR 03C5
ENCODING 965
SWIDTH 600 0
DWIDTH 15 0
BBX 11 13 2 0
BITMAP
C180
C0C0
C0C0
C060
C060
C060
C060
C060
C060
C0E0
61C0
7F80
1F00
ENDCHAR
STARTCHAR 03C6
ENCODING 966
SWIDTH 800 0
DWIDTH 20 0
BBX 16 18 1 -5
BITMAP
1878
78FE
61C6
C183
C183
C183
C183
C183
E187
6186
799E
3FFC
0FF0
0180
0180
0180
0180
0180
ENDCHAR
STARTCHAR 03C7
ENCODING 967
SWIDTH 560 0
DWIDTH 14 0
BBX 14 18 0 -5
BITMAP
E018
6030
3060
3860
18C0
0CC0
0D80
0700
0300
0700
0F80
0CC0
18C0
1860
3070
7030
6018
C01C
ENDCHAR
STARTCHAR 03C8
ENCODING 968
SWIDTH 800 0
DWIDTH 20 0
BBX 17 20 1 -5
BITMAP
00C000
00C000
C0C300
60C100
60C180
60C180
60C180
60C180
60C180
60C180
60C380
30C300
3CCF00
1FFE00
07F800
00C000
00C000
00C000
00C000
00C000
ENDCHAR
STARTCHAR 03C9
ENCODING 969
SWIDTH 880 0
DWIDTH 22 0
BBX 18 13 1 0
BITMAP
300300
60C180
60C180
C0C0C0
C0C0C0
C0C0C0
C0C0C0
C0C0C0
C0C0C0
E1A1C0
73B380
3F1F80
1E0F00
ENDCHAR
STARTCHAR 03CA
ENCODING 970
SWIDTH 360 0
DWIDTH 9 0
BBX 8 18 0 0
BITMAP
C6
C6
00
00
00
30
30
30
30
30
30
30
30
30
30
39
1F
0E
ENDCHAR
STARTCHAR 03CB
ENCODING 971
SWIDTH 600 0
DWIDTH 15 0
BBX 11 18 2 0
BITMAP
3180
3180
0000
0000
0000
C180
C0C0
C0C0
C060
C060
C060
C060
C060
C060
C0E0
61C0
7F80
1F00
ENDCHAR
STARTCHAR 03CC
ENCODING 972
SWIDTH 600 0
DWIDTH 15 0
BBX 12 19 1 0
BITMAP
0600
0600
0600
0600
0000
0000
1F80
3FC0
70E0
6060
C030
C030
C030
C030
C030
6060
70E0
3FC0
1F80
ENDCHAR
STARTCHAR 03CD
ENCODING 973
SWIDTH 600 0
DWIDTH 15 0
BBX 11 19 2 0
BITMAP
0C00
0C00
0C00
0C00
0000
0000
C180
C0C0
C0C0
C060
C060
C060
C060
C060
C060
C0E0
61C0
7F80
1F00
ENDCHAR
STARTCHAR 03CE
ENCODING 974
SWIDTH 880 0
DWIDTH 22 0
BBX 18 19 1 0
BITMAP
00C000
00C000
00C000
00C000
000000
000000
300300
60C180
60C180
C0C0C0
C0C0C0
C0C0C0
C0C0C0
C0C0C0
C0C0C0
E1A1C0
73B380
3F1F80
1E0F00
ENDCHAR
STARTCHAR 03D0
ENCODING 976
SWIDTH 520 0
DWIDTH 13 0
BBX 11 19 1 0
BITMAP
0780
1FC0
38E0
3060
6060
60C0
FFC0
CF00
C000
C000
CF80
DFC0
F0E0
E060
6060
6060
70C0
3FC0
0F00
ENDCHAR
STARTCHAR 03D1
ENCODING 977
SWIDTH 640 0
DWIDTH 16 0
BBX 15 19 1 0
BITMAP
0F00
3FC0
70C0
E060
C060
C030
C030
E030
7FFE
1FFE
0030
0030
0030
C030
6060
6060
71C0
3F80
1F00
ENDCHAR
STARTCHAR 03D2
ENCODING 978
SWIDTH 640 0
DWIDTH 16 0
BBX 15 18 1 0
BITMAP
E00E
703E
3870
1C60
0CC0
0E80
0680
0780
0700
0300
0300
0300
0300
0300
0300
0300
0300
0300
ENDCHAR
STARTCHAR 03D3
ENCODING 979
SWIDTH 760 0
DWIDTH 19 0
BBX 18 18 1 0
BITMAP
DC01C0
CE07C0
C70E00
C38C00
019800
01D000
00D000
00F000
00E000
006000
006000
006000
006000
006000
006000
006000
006000
006000
ENDCHAR
STARTCHAR 03D4
ENCODING 980
SWIDTH 640 0
DWIDTH 16 0
BBX 15 22 1 0
BITMAP
0C60
0C60
0000
0000
E00E
703E
3870
1C60
0CC0
0E80
0680
0780
0700
0300
0300
0300
0300
0300
0300
0300
0300
0300
ENDCHAR
STARTCHAR 03D5
ENCODING 981
SWIDTH 760 0
DWIDTH 19 0
BBX 16 24 1 -5
BITMAP
0180
0180
0180
0180
0180
0180
0FF0
3FFC
799E
6186
C183
C183
C183
C183
C183
6186
799E
3FFC
0FF0
0180
0180
0180
0180
0180
ENDCHAR
STARTCHAR 03D6
ENCODING 982
SWIDTH 880 0
DWIDTH 22 0
BBX 19 13 0 0
BITMAP
7FFFE0
FFFFE0
980180
3001C0
3060C0
3060C0
3060C0
3060C0
3020C0
3861C0
18F180
1F9F80
070E00
ENDCHAR
STARTCHAR 03DA
ENCODING 986
SWIDTH 680 0
DWIDTH 17 0
BBX 14 23 1 -5
BITMAP
01F0
07F8
1E08
3800
3000
6000
6000
C000
C000
C000
C000
C000
C000
C000
6000
7000
3FF0
0FFC
000C
000C
001C
03F8
03E0
ENDCHAR
STARTCHAR 03DC
ENCODING 988
SWIDTH 520 0
DWIDTH 13 0
BBX 9 18 2 0
BITMAP
FF80
FF80
C000
C000
C000
C000
C000
C000
FF00
FF00
C000
C000
C000
C000
C000
C000
C000
C000
ENDCHAR
STARTCHAR 03DE
ENCODING 990
SWIDTH 560 0
DWIDTH 14 0
BBX 11 18 0 0
BITMAP
1800
1800
1800
3000
3000
7000
6000
6000
FFE0
FFE0
00E0
00C0
00C0
01C0
0180
0180
0380
0300
ENDCHAR
STARTCHAR 03E0
ENCODING 992
SWIDTH 640 0
DWIDTH 16 0
BBX 15 18 0 0
BITMAP
F000
FE00
0780
00C0
01E0
07B0
0E38
3C18
701C
207C
00E6
03C6
0706
0E06
0006
0006
000E
000C
ENDCHAR
STARTCHAR 03E2
ENCODING 994
SWIDTH 880 0
DWIDTH 22 0
BBX 20 23 1 -5
BITMAP
3000C0
600060
606060
606060
C06030
C06030
C06030
C06030
C06030
C06030
C06030
C06030
C06030
E0F070
60F070
7198F0
3F9FF0
1F0FA0
000060
000060
0001C0
003F80
003E00
ENDCHAR
STARTCHAR 03E3
ENCODING 995
SWIDTH 880 0
DWIDTH 22 0
BBX 18 18 1 -5
BITMAP
300300
60C180
60C180
C0C0C0
C0C0C0
C0C0C0
C0C0C0
C0C0C0
C0C0C0
E1E1C0
73B3C0
3F3FC0
1E0E80
000180
000180
000700
00FE00
00F800
ENDCHAR
STARTCHAR 03E4
ENCODING 996
SWIDTH 640 0
DWIDTH 16 0
BBX 12 18 1 0
BITMAP
6030
6030
C030
C030
C030
C030
C030
C030
C030
60F0
7FF0
1F30
0030
0030
0030
0030
0030
0030
ENDCHAR
STARTCHAR 03E5
ENCODING 997
SWIDTH 600 0
DWIDTH 15 0
BBX 11 18 1 -5
BITMAP
3060
6060
6060
6060
C060
C060
C060
C060
C060
C0E0
61E0
7F60
3E60
0060
0060
0060
0060
0060
ENDCHAR
STARTCHAR 03E6
ENCODING 998
SWIDTH 680 0
DWIDTH 17 0
BBX 13 23 2 -5
BITMAP
C000
C000
C000
C000
C7C0
DFE0
F870
E030
C038
C018
C018
C018
C018
C018
C018
C018
C038
C030
0030
0070
01E0
3FC0
3F00
ENDCHAR
STARTCHAR 03E7
ENCODING 999
SWIDTH 600 0
DWIDTH 15 0
BBX 11 18 2 -5
BITMAP
C000
C000
CF00
DFC0
F0C0
E060
C060
C060
C060
C060
C060
C060
C0E0
00C0
01C0
0380
3F00
3E00
ENDCHAR
STARTCHAR 03E8
ENCODING 1000
SWIDTH 560 0
DWIDTH 14 0
BBX 12 18 1 0
BITMAP
1F80
7FE0
4070
0030
0030
0030
0060
00E0
01C0
0780
3E00
F800
E000
F000
7800
1E00
0FF0
03F0
ENDCHAR
STARTCHAR 03E9
ENCODING 1001
SWIDTH 480 0
DWIDTH 12 0
BBX 10 18 0 -5
BITMAP
3E00
7F80
41C0
00C0
00C0
00C0
01C0
0180
0700
0E00
3C00
F000
C000
E000
7000
3800
1FC0
07C0
ENDCHAR
STARTCHAR 03EA
ENCODING 1002
SWIDTH 640 0
DWIDTH 16 0
BBX 14 18 1 0
BITMAP
F038
F830
1860
0CE0
0EC0
0780
0380
0380
0780
0EC0
0CE0
1860
3830
3030
6018
E01C
FFFC
FFFC
ENDCHAR
STARTCHAR 03EB
ENCODING 1003
SWIDTH 600 0
DWIDTH 15 0
BBX 13 13 1 0
BITMAP
7070
78E0
1DC0
0D80
0700
0700
0D80
18C0
38E0
7070
E038
FFF8
FFF8
ENDCHAR
STARTCHAR 03EC
ENCODING 1004
SWIDTH 680 0
DWIDTH 17 0
BBX 14 18 1 0
BITMAP
07F0
1FF8
3818
3000
6000
6FC0
DFF0
F838
E018
C00C
C00C
C00C
C00C
C00C
6018
7838
3FF0
0FC0
ENDCHAR
STARTCHAR 03ED
ENCODING 1005
SWIDTH 600 0
DWIDTH 15 0
BBX 12 19 1 0
BITMAP
07C0
1FE0
3820
3000
6000
6000
CF80
FFC0
F0E0
E060
C030
C030
C030
C030
C030
6060
70E0
3FC0
1F80
ENDCHAR
STARTCHAR 03EE
ENCODING 1006
SWIDTH 640 0
DWIDTH 16 0
BBX 14 18 1 0
BITMAP
0300
0300
0300
0300
FFFC
FFFC
0300
0300
0300
0300
0300
0300
0300
0300
0300
0300
0300
0300
ENDCHAR
STARTCHAR 03EF
ENCODING 1007
SWIDTH 560 0
DWIDTH 14 0
BBX 12 24 1 -5
BITMAP
0600
0600
0600
0600
0600
0600
FFF0
FFF0
0600
0600
0600
0600
0600
0600
0600
0600
0600
0600
0600
0600
0600
0600
0600
0600
ENDCHAR
STARTCHAR 03F0
ENCODING 1008
SWIDTH 560 0
DWIDTH 14 0
BBX 12 13 1 0
BITMAP
E020
F0F0
38E0
19E0
19C0
1B80
1F80
1D80
3980
7980
71C0
F0F0
4070
ENDCHAR
STARTCHAR 03F1
ENCODING 1009
SWIDTH 600 0
DWIDTH 15 0
BBX 11 18 2 -5
BITMAP
1F00
3FC0
71C0
60E0
C060
C060
C060
C060
C0C0
E1C0
FF80
FE00
C000
6000
6000
7000
3FE0
0FE0
ENDCHAR
STARTCHAR 03F2
ENCODING 1010
SWIDTH 520 0
DWIDTH 13 0
BBX 10 13 1 0
BITMAP
1F80
3FC0
7040
6000
C000
C000
C000
C000
C000
6000
7040
3FC0
1F80
ENDCHAR
STARTCHAR 03F3
ENCODING 1011
SWIDTH 320 0
DWIDTH 8 0
BBX 7 23 -2 -5
BITMAP
06
06
00
00
00
06
06
06
06
06
06
06
06
06
06
06
06
06
06
06
8E
FC
78
ENDCHAR
STARTCHAR 0401
ENCODING 1025
SWIDTH 560 0
DWIDTH 14 0
BBX 11 22 2 0
BITMAP
3180
3180
0000
0000
FFC0
FFC0
C000
C000
C000
C000
C000
C000
FF80
FF80
C000
C000
C000
C000
C000
C000
FFE0
FFE0
ENDCHAR
STARTCHAR 0402
ENCODING 1026
SWIDTH 800 0
DWIDTH 20 0
BBX 19 18 0 0
BITMAP
FFFC00
FFFC00
030000
030000
030000
030000
033F00
037F80
03E1C0
0380E0
030060
030060
030060
030060
0300C0
0303C0
031F80
031E00
ENDCHAR
STARTCHAR 0403
ENCODING 1027
SWIDTH 520 0
DWIDTH 13 0
BBX 11 24 2 0
BITMAP
0380
0600
0C00
1800
0000
0000
FFE0
FFE0
C000
C000
C000
C000
C000
C000
C000
C000
C000
C000
C000
C000
C000
C000
C000
C000
ENDCHAR
STARTCHAR 0404
ENCODING 1028
SWIDTH 680 0
DWIDTH 17 0
BBX 15 18 1 0
BITMAP
03F8
1FFE
3C06
7000
6000
E000
C000
C000
FFF0
FFF0
C000
C000
E000
6000
7002
3C0E
1FF8
03F0
ENDCHAR
STARTCHAR 0405
ENCODING 1029
SWIDTH 520 0
DWIDTH 13 0
BBX 10 18 1 0
BITMAP
1F00
7F80
E080
C000
C000
C000
6000
7800
3E00
0F00
0380
01C0
00C0
00C0
00C0
C180
FF80
7E00
ENDCHAR
STARTCHAR 0406
ENCODING 1030
SWIDTH 280 0
DWIDTH 7 0
BBX 2 18 2 0
BITMAP
C0
C0
C0
C0
C0
C0
C0
C0
C0
C0
C0
C0
C0
C0
C0
C0
C0
C0
ENDCHAR
STARTCHAR 0407
ENCODING 1031
SWIDTH 280 0
DWIDTH 7 0
BBX 7 22 0 0
BITMAP
C6
C6
00
00
30
30
30
30
30
30
30
30
30
30
30
30
30
30
30
30
30
30
ENDCHAR
STARTCHAR 0408
ENCODING 1032
SWIDTH 320 0
DWIDTH 8 0
BBX 5 22 0 -4
BITMAP
18
18
18
18
18
18
18
18
18
18
18
18
18
18
18
18
18
18
18
18
F0
F0
ENDCHAR
STARTCHAR 0409
ENCODING 1033
SWIDTH 960 0
DWIDTH 24 0
BBX 22 18 1 0
BITMAP
0FFC00
0FFC00
0C0C00
0C0C00
0C0C00
0C0C00
0C0C00
0C0C00
0C0FE0
0C0FF8
0C0C3C
0C0C0C
1C0C0C
180C0C
180C0C
380C38
F00FF8
C00FE0
ENDCHAR
STARTCHAR 040A
ENCODING 1034
SWIDTH 960 0
DWIDTH 24 0
BBX 20 18 2 0
BITMAP
C03000
C03000
C03000
C03000
C03000
C03000
C03000
C03000
FFFF80
FFFFE0
C030F0
C03030
C03030
C03030
C03030
C030E0
C03FE0
C03F80
ENDCHAR
STARTCHAR 040B
ENCODING 1035
SWIDTH 760 0
DWIDTH 19 0
BBX 18 18 0 0
BITMAP
FFFC00
FFFC00
030000
030000
030000
030000
033E00
03FF80
03C180
0300C0
0300C0
0300C0
0300C0
0300C0
0300C0
0300C0
0300C0
0300C0
ENDCHAR
STARTCHAR 040C
ENCODING 1036
SWIDTH 640 0
DWIDTH 16 0
BBX 13 24 2 0
BITMAP
00E0
0180
0300
0600
0000
0000
C030
C070
C0C0
C1C0
C180
C300
C300
C600
FC00
FE00
C700
C380
C1C0
C0C0
C060
C060
C030
C038
ENDCHAR
STARTCHAR 040E
ENCODING 1038
SWIDTH 640 0
DWIDTH 16 0
BBX 15 24 1 0
BITMAP
0C30
0C30
0660
03C0
0000
0000
C00E
600C
701C
3018
3838
1830
0C70
0C60
06C0
06C0
0380
0380
0300
0300
0600
0E00
7C00
7000
ENDCHAR
STARTCHAR 040F
ENCODING 1039
SWIDTH 720 0
DWIDTH 18 0
BBX 14 22 2 -4
BITMAP
C00C
C00C
C00C
C00C
C00C
C00C
C00C
C00C
C00C
C00C
C00C
C00C
C00C
C00C
C00C
C00C
FFFC
FFFC
0300
0300
0300
0300
ENDCHAR
STARTCHAR 0410
ENCODING 1040
SWIDTH 680 0
DWIDTH 17 0
BBX 17 18 0 0
BITMAP
008000
01C000
01C000
036000
036000
077000
063000
063000
0C1800
0C1800
180C00
1FFC00
3FFE00
300600
300600
600300
600300
C00180
ENDCHAR
STARTCHAR 0411
ENCODING 1041
SWIDTH 600 0
DWIDTH 15 0
BBX 11 18 2 0
BITMAP
FFC0
FFC0
C000
C000
C000
C000
C000
C000
FF00
FFC0
C1C0
C0E0
C060
C060
C0E0
C1C0
FFC0
FF00
ENDCHAR
STARTCHAR 0412
ENCODING 1042
SWIDTH 560 0
DWIDTH 14 0
BBX 11 18 2 0
BITMAP
FF00
FF80
C1C0
C0C0
C0C0
C0C0
C180
C380
FE00
FF00
C3C0
C0C0
C060
C060
C060
C1E0
FFC0
FF00
ENDCHAR
STARTCHAR 0413
ENCODING 1043
SWIDTH 520 0
DWIDTH 13 0
BBX 11 18 2 0
BITMAP
FFE0
FFE0
C000
C000
C000
C000
C000
C000
C000
C000
C000
C000
C000
C000
C000
C000
C000
C000
ENDCHAR
STARTCHAR 0414
ENCODING 1044
SWIDTH 760 0
DWIDTH 19 0
BBX 16 22 1 -4
BITMAP
07FC
07FC
060C
060C
060C
060C
060C
060C
0C0C
0C0C
0C0C
080C
180C
180C
300C
300C
FFFF
FFFF
C003
C003
C003
C003
ENDCHAR
STARTCHAR 0415
ENCODING 1045
SWIDTH 560 0
DWIDTH 14 0
BBX 11 18 2 0
BITMAP
FFC0
FFC0
C000
C000
C000
C000
C000
C000
FF80
FF80
C000
C000
C000
C000
C000
C000
FFE0
FFE0
ENDCHAR
STARTCHAR 0416
ENCODING 1046
SWIDTH 800 0
DWIDTH 20 0
BBX 18 18 1 0
BITMAP
60C180
70C380
38C700
18C600
1CCE00
0CCC00
0EDC00
06D800
03F000
0FFC00
0CCC00
18C600
38C600
30C300
30C300
60C180
60C180
C0C0C0
ENDCHAR
STARTCHAR 0417
ENCODING 1047
SWIDTH 560 0
DWIDTH 14 0
BBX 12 18 1 0
BITMAP
7F00
FFC0
C0E0
0060
0060
0060
00C0
0180
1E00
1FC0
01E0
0070
0030
0030
0030
C0E0
FFC0
7F00
ENDCHAR
STARTCHAR 0418
ENCODING 1048
SWIDTH 760 0
DWIDTH 19 0
BBX 14 18 2 0
BITMAP
C00C
C01C
C03C
C03C
C06C
C0EC
C0CC
C18C
C30C
C30C
C60C
CC0C
DC0C
D80C
F00C
F00C
E00C
C00C
ENDCHAR
STARTCHAR 0419
ENCODING 1049
SWIDTH 760 0
DWIDTH 19 0
BBX 14 24 2 0
BITMAP
1860
1860
0CC0
0780
0000
0000
C00C
C01C
C03C
C03C
C06C
C0EC
C0CC
C18C
C30C
C30C
C60C
CC0C
DC0C
D80C
F00C
F00C
E00C
C00C
ENDCHAR
STARTCHAR 041A
ENCODING 1050
SWIDTH 640 0
DWIDTH 16 0
BBX 13 18 2 0
BITMAP
C030
C070
C0C0
C1C0
C180
C300
C300
C600
FC00
FE00
C700
C380
C1C0
C0C0
C060
C060
C030
C038
ENDCHAR
STARTCHAR 041B
ENCODING 1051
SWIDTH 720 0
DWIDTH 18 0
BBX 15 18 0 0
BITMAP
0FFE
0FFE
0C06
0C06
0C06
0C06
0C06
0C06
0C06
0C06
0C06
0C06
1C06
1806
1806
3806
F006
C006
ENDCHAR
STARTCHAR 041C
ENCODING 1052
SWIDTH 880 0
DWIDTH 22 0
BBX 17 18 2 0
BITMAP
E00380
E00380
F00780
F00780
F80F80
D80D80
D80D80
CC1980
CC1980
CE3980
C63180
C63180
C36180
C36180
C1E180
C1C180
C1C180
C00180
ENDCHAR
STARTCHAR 041D
ENCODING 1053
SWIDTH 720 0
DWIDTH 18 0
BBX 13 18 2 0
BITMAP
C018
C018
C018
C018
C018
C018
C018
C018
FFF8
FFF8
C018
C018
C018
C018
C018
C018
C018
C018
ENDCHAR
STARTCHAR 041E
ENCODING 1054
SWIDTH 760 0
DWIDTH 19 0
BBX 16 18 1 0
BITMAP
07E0
1FF8
381C
700E
6006
E007
C003
C003
C003
C003
C003
C003
E007
6006
700E
381C
1FF8
07E0
ENDCHAR
STARTCHAR 041F
ENCODING 1055
SWIDTH 720 0
DWIDTH 18 0
BBX 13 18 2 0
BITMAP
FFF8
FFF8
C018
C018
C018
C018
C018
C018
C018
C018
C018
C018
C018
C018
C018
C018
C018
C018
ENDCHAR
STARTCHAR 0420
ENCODING 1056
SWIDTH 560 0
DWIDTH 14 0
BBX 11 18 2 0
BITMAP
FF00
FFC0
C0E0
C060
C060
C060
C0E0
C1C0
FF80
FE00
C000
C000
C000
C000
C000
C000
C000
C000
ENDCHAR
STARTCHAR 0421
ENCODING 1057
SWIDTH 680 0
DWIDTH 17 0
BBX 14 18 1 0
BITMAP
07F0
1FFC
3C0C
7000
6000
E000
C000
C000
C000
C000
C000
C000
E000
6000
7004
3C1C
1FF8
07E0
ENDCHAR
STARTCHAR 0422
ENCODING 1058
SWIDTH 640 0
DWIDTH 16 0
BBX 14 18 1 0
BITMAP
FFFC
FFFC
0300
0300
0300
0300
0300
0300
0300
0300
0300
0300
0300
0300
0300
0300
0300
0300
ENDCHAR
STARTCHAR 0423
ENCODING 1059
SWIDTH 640 0
DWIDTH 16 0
BBX 15 18 1 0
BITMAP
C00E
600C
701C
3018
3838
1830
0C70
0C60
06C0
06C0
0380
0380
0300
0300
0600
0E00
7C00
7000
ENDCHAR
STARTCHAR 0424
ENCODING 1060
SWIDTH 680 0
DWIDTH 17 0
BBX 14 18 1 0
BITMAP
0300
0300
0300
1FC0
3FF0
7338
E318
C30C
C30C
C30C
C30C
6318
7338
3FF0
1FE0
0300
0300
0300
ENDCHAR
STARTCHAR 0425
ENCODING 1061
SWIDTH 640 0
DWIDTH 16 0
BBX 15 18 0 0
BITMAP
C006
600C
3018
3838
1830
0C60
06E0
07C0
0380
0380
07C0
0EC0
0C60
1830
3838
3018
600C
C006
ENDCHAR
STARTCHAR 0426
ENCODING 1062
SWIDTH 760 0
DWIDTH 19 0
BBX 16 22 2 -4
BITMAP
C00C
C00C
C00C
C00C
C00C
C00C
C00C
C00C
C00C
C00C
C00C
C00C
C00C
C00C
C00C
C00C
FFFF
FFFF
0003
0003
0003
0003
ENDCHAR
STARTCHAR 0427
ENCODING 1063
SWIDTH 640 0
DWIDTH 16 0
BBX 12 18 1 0
BITMAP
C030
C030
C030
C030
C030
C030
C030
C030
C030
6070
7FF0
1FB0
0030
0030
0030
0030
0030
0030
ENDCHAR
STARTCHAR 0428
ENCODING 1064
SWIDTH 960 0
DWIDTH 24 0
BBX 18 18 2 0
BITMAP
C0C0C0
C0C0C0
C0C0C0
C0C0C0
C0C0C0
C0C0C0
C0C0C0
C0C0C0
C0C0C0
C0C0C0
C0C0C0
C0C0C0
C0C0C0
C0C0C0
C0C0C0
C0C0C0
FFFFC0
FFFFC0
ENDCHAR
STARTCHAR 0429
ENCODING 1065
SWIDTH 1000 0
DWIDTH 25 0
BBX 20 22 2 -4
BITMAP
C0C0C0
C0C0C0
C0C0C0
C0C0C0
C0C0C0
C0C0C0
C0C0C0
C0C0C0
C0C0C0
C0C0C0
C0C0C0
C0C0C0
C0C0C0
C0C0C0
C0C0C0
C0C0C0
FFFFF0
FFFFF0
000030
000030
000030
000030
ENDCHAR
STARTCHAR 042A
ENCODING 1066
SWIDTH 680 0
DWIDTH 17 0
BBX 15 18 0 0
BITMAP
FE00
FE00
0600
0600
0600
0600
0600
0600
07F0
07F8
061C
060E
0606
0606
0606
061C
07FC
07F0
ENDCHAR
STARTCHAR 042B
ENCODING 1067
SWIDTH 800 0
DWIDTH 20 0
BBX 15 18 2 0
BITMAP
C006
C006
C006
C006
C006
C006
C006
C006
FF06
FF86
C1C6
C0E6
C066
C066
C0E6
C1C6
FF86
FF06
ENDCHAR
STARTCHAR 042C
ENCODING 1068
SWIDTH 560 0
DWIDTH 14 0
BBX 10 18 2 0
BITMAP
C000
C000
C000
C000
C000
C000
C000
C000
FE00
FF80
C380
C0C0
C0C0
C0C0
C0C0
C380
FF80
FE00
ENDCHAR
STARTCHAR 042D
ENCODING 1069
SWIDTH 680 0
DWIDTH 17 0
BBX 14 18 1 0
BITMAP
3F80
FFE0
C0F0
0038
0018
001C
000C
000C
1FFC
1FFC
000C
000C
000C
0018
8038
E0F0
7FE0
1F80
ENDCHAR
STARTCHAR 042E
ENCODING 1070
SWIDTH 960 0
DWIDTH 24 0
BBX 20 18 2 0
BITMAP
C03E00
C0FF80
C1C1C0
C380E0
C30060
C70070
C60030
C60030
FE0030
FE0030
C60030
C60030
C70070
C30060
C380E0
C1C1C0
C0FF80
C03E00
ENDCHAR
STARTCHAR 042F
ENCODING 1071
SWIDTH 640 0
DWIDTH 16 0
BBX 13 18 0 0
BITMAP
07F8
1FF8
1C18
3018
3018
3018
3818
1C18
0FF8
01F8
0318
0618
0E18
1C18
1818
3018
6018
E018
ENDCHAR
STARTCHAR 0430
ENCODING 1072
SWIDTH 560 0
DWIDTH 14 0
BBX 12 13 1 0
BITMAP
3F00
7F80
41C0
00C0
00C0
1FC0
7FC0
E0C0
C0C0
C0C0
E1C0
7FF0
3C70
ENDCHAR
STARTCHAR 0431
ENCODING 1073
SWIDTH 600 0
DWIDTH 15 0
BBX 12 20 1 0
BITMAP
0020
0FE0
1FC0
3800
7000
6000
E000
C780
DFC0
F8E0
E070
C030
C030
C030
C030
C030
6060
70E0
3FC0
1F00
ENDCHAR
STARTCHAR 0432
ENCODING 1074
SWIDTH 520 0
DWIDTH 13 0
BBX 9 13 2 0
BITMAP
FC00
FE00
C300
C300
C600
FC00
FE00
C300
C180
C180
C380
FF00
FE00
ENDCHAR
STARTCHAR 0433
ENCODING 1075
SWIDTH 480 0
DWIDTH 12 0
BBX 9 13 2 0
BITMAP
FF80
FF80
C000
C000
C000
C000
C000
C000
C000
C000
C000
C000
C000
ENDCHAR
STARTCHAR 0434
ENCODING 1076
SWIDTH 680 0
DWIDTH 17 0
BBX 15 16 1 -3
BITMAP
0FF8
0FF8
0C18
0C18
0C18
0C18
1818
1818
1818
3018
3018
FFFE
FFFE
C006
C006
C006
ENDCHAR
STARTCHAR 0435
ENCODING 1077
SWIDTH 560 0
DWIDTH 14 0
BBX 11 13 1 0
BITMAP
1F00
3FC0
70C0
6060
C060
FFE0
FFE0
C000
C000
6000
7020
3FE0
1FC0
ENDCHAR
STARTCHAR 0436
ENCODING 1078
SWIDTH 720 0
DWIDTH 18 0
BBX 16 13 1 0
BITMAP
6186
718E
318C
1998
1998
1FF8
0FF0
1998
1998
318C
718E
6186
E183
ENDCHAR
STARTCHAR 0437
ENCODING 1079
SWIDTH 480 0
DWIDTH 12 0
BBX 10 13 1 0
BITMAP
7F00
FF80
81C0
00C0
01C0
1F80
1F80
01C0
00C0
00C0
81C0
FF80
7E00
ENDCHAR
STARTCHAR 0438
ENCODING 1080
SWIDTH 640 0
DWIDTH 16 0
BBX 11 13 2 0
BITMAP
C0E0
C0E0
C1E0
C3E0
C360
C660
CE60
CC60
D860
F860
F060
E060
C060
ENDCHAR
STARTCHAR 0439
ENCODING 1081
SWIDTH 640 0
DWIDTH 16 0
BBX 11 20 2 0
BITMAP
30C0
30C0
1980
0F00
0000
0000
0000
C0E0
C0E0
C1E0
C3E0
C360
C660
CE60
CC60
D860
F860
F060
E060
C060
ENDCHAR
STARTCHAR 043A
ENCODING 1082
SWIDTH 560 0
DWIDTH 14 0
BBX 11 13 2 0
BITMAP
C0C0
C1C0
C300
C600
CC00
F800
FE00
C600
C300
C380
C180
C0C0
C060
ENDCHAR
STARTCHAR 043B
ENCODING 1083
SWIDTH 600 0
DWIDTH 15 0
BBX 11 13 1 0
BITMAP
1FE0
1FE0
1860
1860
1860
1860
1860
1860
1860
3060
7060
E060
C060
ENDCHAR
STARTCHAR 043C
ENCODING 1084
SWIDTH 720 0
DWIDTH 18 0
BBX 13 13 2 0
BITMAP
E038
E038
F078
F078
F0F8
D8D8
D8D8
DD98
CD98
CD98
CF18
C718
C018
ENDCHAR
STARTCHAR 043D
ENCODING 1085
SWIDTH 640 0
DWIDTH 16 0
BBX 11 13 2 0
BITMAP
C060
C060
C060
C060
C060
FFE0
FFE0
C060
C060
C060
C060
C060
C060
ENDCHAR
STARTCHAR 043E
ENCODING 1086
SWIDTH 600 0
DWIDTH 15 0
BBX 12 13 1 0
BITMAP
1F80
3FC0
70E0
6060
C030
C030
C030
C030
C030
6060
70E0
3FC0
1F80
ENDCHAR
STARTCHAR 043F
ENCODING 1087
SWIDTH 640 0
DWIDTH 16 0
BBX 11 13 2 0
BITMAP
FFE0
FFE0
C060
C060
C060
C060
C060
C060
C060
C060
C060
C060
C060
ENDCHAR
STARTCHAR 0440
ENCODING 1088
SWIDTH 640 0
DWIDTH 16 0
BBX 12 18 2 -5
BITMAP
CF80
DFC0
F0E0
E070
C030
C030
C030
C030
C030
C060
F0E0
FFC0
CF80
C000
C000
C000
C000
C000
ENDCHAR
STARTCHAR 0441
ENCODING 1089
SWIDTH 520 0
DWIDTH 13 0
BBX 10 13 1 0
BITMAP
1F80
3FC0
7040
6000
C000
C000
C000
C000
C000
6000
7040
3FC0
1F80
ENDCHAR
STARTCHAR 0442
ENCODING 1090
SWIDTH 480 0
DWIDTH 12 0
BBX 12 13 0 0
BITMAP
FFF0
FFF0
0600
0600
0600
0600
0600
0600
0600
0600
0600
0600
0600
ENDCHAR
STARTCHAR 0443
ENCODING 1091
SWIDTH 520 0
DWIDTH 13 0
BBX 13 18 0 -5
BITMAP
C018
6030
6030
3070
3060
3060
18C0
18C0
0D80
0D80
0780
0700
0700
0600
0600
0C00
7C00
7000
ENDCHAR
STARTCHAR 0444
ENCODING 1092
SWIDTH 760 0
DWIDTH 19 0
BBX 18 24 1 -5
BITMAP
00C000
00C000
00C000
00C000
00C000
00C000
1EDE00
3FFF00
70C380
60C180
C0C0C0
C0C0C0
C0C0C0
C0C0C0
C0C0C0
E0C1C0
70C380
3FFF00
1EDE00
00C000
00C000
00C000
00C000
00C000
ENDCHAR
STARTCHAR 0445
ENCODING 1093
SWIDTH 600 0
DWIDTH 15 0
BBX 12 13 1 0
BITMAP
C030
6060
30E0
18C0
1D80
0F00
0700
0F00
1B80
39C0
30C0
6060
C030
ENDCHAR
STARTCHAR 0446
ENCODING 1094
SWIDTH 640 0
DWIDTH 16 0
BBX 13 16 2 -3
BITMAP
C060
C060
C060
C060
C060
C060
C060
C060
C060
C060
C060
FFF8
FFF8
0018
0018
0018
ENDCHAR
STARTCHAR 0447
ENCODING 1095
SWIDTH 520 0
DWIDTH 13 0
BBX 9 13 1 0
BITMAP
C180
C180
C180
C180
C180
C180
E380
7F80
3D80
0180
0180
0180
0180
ENDCHAR
STARTCHAR 0448
ENCODING 1096
SWIDTH 840 0
DWIDTH 21 0
BBX 16 13 2 0
BITMAP
C183
C183
C183
C183
C183
C183
C183
C183
C183
C183
C183
FFFF
FFFF
ENDCHAR
STARTCHAR 0449
ENCODING 1097
SWIDTH 880 0
DWIDTH 22 0
BBX 18 16 2 -3
BITMAP
C18300
C18300
C18300
C18300
C18300
C18300
C18300
C18300
C18300
C18300
C18300
FFFFC0
FFFFC0
0000C0
0000C0
0000C0
ENDCHAR
STARTCHAR 044A
ENCODING 1098
SWIDTH 560 0
DWIDTH 14 0
BBX 13 13 0 0
BITMAP
FC00
FC00
0C00
0C00
0C00
0FE0
0FF0
0C38
0C18
0C18
0C38
0FF0
0FC0
ENDCHAR
STARTCHAR 044B
ENCODING 1099
SWIDTH 720 0
DWIDTH 18 0
BBX 13 13 2 0
BITMAP
C018
C018
C018
C018
C018
FE18
FF18
C398
C198
C198
C398
FF18
FC18
ENDCHAR
STARTCHAR 044C
ENCODING 1100
SWIDTH 520 0
DWIDTH 13 0
BBX 10 13 2 0
BITMAP
C000
C000
C000
C000
C000
FE00
FF80
C1C0
C0C0
C0C0
C1C0
FF80
FE00
ENDCHAR
STARTCHAR 044D
ENCODING 1101
SWIDTH 520 0
DWIDTH 13 0
BBX 10 13 1 0
BITMAP
7C00
FF00
8380
0180
00C0
1FC0
1FC0
00C0
00C0
0180
8380
FF00
7C00
ENDCHAR
STARTCHAR 044E
ENCODING 1102
SWIDTH 800 0
DWIDTH 20 0
BBX 16 13 2 0
BITMAP
C0F8
C3FC
C38E
C706
C603
FE03
FE03
C603
C603
C307
C38E
C1FC
C0F8
ENDCHAR
STARTCHAR 044F
ENCODING 1103
SWIDTH 520 0
DWIDTH 13 0
BBX 9 13 1 0
BITMAP
1F80
3F80
7180
6180
7180
3F80
0F80
1D80
1980
3180
3180
6180
C180
ENDCHAR
STARTCHAR 0451
ENCODING 1105
SWIDTH 560 0
DWIDTH 14 0
BBX 11 18 1 0
BITMAP
18C0
18C0
0000
0000
0000
1F00
3FC0
70C0
6060
C060
FFE0
FFE0
C000
C000
6000
7020
3FE0
1FC0
ENDCHAR
STARTCHAR 0452
ENCODING 1106
SWIDTH 640 0
DWIDTH 16 0
BBX 14 24 0 -5
BITMAP
1800
1800
1800
1800
FFC0
FFC0
1800
1800
18F0
1BF8
1F1C
1C0C
180C
180C
180C
180C
180C
180C
180C
000C
000C
001C
00F8
00F0
ENDCHAR
STARTCHAR 0453
ENCODING 1107
SWIDTH 480 0
DWIDTH 12 0
BBX 9 20 2 0
BITMAP
0380
0600
0C00
1800
0000
0000
0000
FF80
FF80
C000
C000
C000
C000
C000
C000
C000
C000
C000
C000
C000
ENDCHAR
STARTCHAR 0454
ENCODING 1108
SWIDTH 520 0
DWIDTH 13 0
BBX 11 13 1 0
BITMAP
0FC0
3FE0
7020
6000
C000
FF00
FF00
C000
C000
6000
7020
3FE0
0FC0
ENDCHAR
STARTCHAR 0455
ENCODING 1109
SWIDTH 520 0
DWIDTH 13 0
BBX 8 13 2 0
BITMAP
3C
7E
C2
C0
E0
78
3E
0F
03
03
87
FE
7C
ENDCHAR
STARTCHAR 0456
ENCODING 1110
SWIDTH 280 0
DWIDTH 7 0
BBX 2 18 2 0
BITMAP
C0
C0
00
00
00
C0
C0
C0
C0
C0
C0
C0
C0
C0
C0
C0
C0
C0
ENDCHAR
STARTCHAR 0457
ENCODING 1111
SWIDTH 280 0
DWIDTH 7 0
BBX 7 18 0 0
BITMAP
C6
C6
00
00
00
30
30
30
30
30
30
30
30
30
30
30
30
30
ENDCHAR
STARTCHAR 0458
ENCODING 1112
SWIDTH 320 0
DWIDTH 8 0
BBX 5 23 0 -5
BITMAP
18
18
00
00
00
18
18
18
18
18
18
18
18
18
18
18
18
18
18
18
18
F8
F0
ENDCHAR
STARTCHAR 0459
ENCODING 1113
SWIDTH 800 0
DWIDTH 20 0
BBX 18 13 1 0
BITMAP
1FE000
1FE000
186000
186000
186000
187F00
187F80
1861C0
3860C0
3060C0
7061C0
E07F80
C07E00
ENDCHAR
STARTCHAR 045A
ENCODING 1114
SWIDTH 840 0
DWIDTH 21 0
BBX 17 13 2 0
BITMAP
C0C000
C0C000
C0C000
C0C000
C0C000
FFFE00
FFFF00
C0C380
C0C180
C0C180
C0C380
C0FF00
C0FC00
ENDCHAR
STARTCHAR 045B
ENCODING 1115
SWIDTH 640 0
DWIDTH 16 0
BBX 13 19 0 0
BITMAP
1800
1800
1800
1800
FF80
FF80
1800
1800
19E0
1BF0
1E38
1C18
1818
1818
1818
1818
1818
1818
1818
ENDCHAR
STARTCHAR 045C
ENCODING 1116
SWIDTH 560 0
DWIDTH 14 0
BBX 11 20 2 0
BITMAP
01C0
0300
0600
0C00
0000
0000
0000
C0C0
C1C0
C300
C600
CC00
F800
FE00
C600
C300
C380
C180
C0C0
C060
ENDCHAR
STARTCHAR 045E
ENCODING 1118
SWIDTH 520 0
DWIDTH 13 0
BBX 13 25 0 -5
BITMAP
1860
1860
0CC0
0780
0000
0000
0000
C018
6030
6030
3070
3060
3060
18C0
18C0
0D80
0D80
0780
0700
0700
0600
0600
0C00
7C00
7000
ENDCHAR
STARTCHAR 045F
ENCODING 1119
SWIDTH 640 0
DWIDTH 16 0
BBX 10 16 2 -3
BITMAP
C0C0
C0C0
C0C0
C0C0
C0C0
C0C0
C0C0
C0C0
C0C0
C0C0
C0C0
FFC0
FFC0
0C00
0C00
0C00
ENDCHAR
STARTCHAR 0460
ENCODING 1120
SWIDTH 880 0
DWIDTH 22 0
BBX 20 18 1 0
BITMAP
3000C0
600060
606060
606060
C06030
C06030
C06030
C06030
C06030
C06030
C06030
C06030
C06030
E0F070
60F060
7198E0
3F9FC0
1E0780
ENDCHAR
STARTCHAR 0461
ENCODING 1121
SWIDTH 680 0
DWIDTH 17 0
BBX 15 13 1 0
BITMAP
630C
C306
C306
C306
C306
C306
C306
C38C
678C
66CC
6CD8
3C78
3870
ENDCHAR
STARTCHAR 0462
ENCODING 1122
SWIDTH 680 0
DWIDTH 17 0
BBX 16 18 0 0
BITMAP
0600
0600
FFF0
FFF0
0600
0600
0600
0600
07F8
07FE
060E
0603
0603
0603
0607
060E
07FC
07F8
ENDCHAR
STARTCHAR 0463
ENCODING 1123
SWIDTH 560 0
DWIDTH 14 0
BBX 12 19 0 0
BITMAP
1800
1800
1800
1800
1800
1800
FF00
FF00
1800
1800
1800
1FC0
1FE0
1870
1830
1830
1870
1FE0
1F80
ENDCHAR
STARTCHAR 0464
ENCODING 1124
SWIDTH 760 0
DWIDTH 19 0
BBX 16 18 2 0
BITMAP
C0FE
C1FF
C383
C600
C600
CC00
CC00
CC00
FFF8
FFF8
CC00
CC00
CC00
C600
C600
C383
C3FF
C0FC
ENDCHAR
STARTCHAR 0465
ENCODING 1125
SWIDTH 720 0
DWIDTH 18 0
BBX 15 13 2 0
BITMAP
C0FC
C3FE
C706
CE00
CC00
FFF0
FFF0
CC00
CC00
C600
C702
C3FE
C0FC
ENDCHAR
STARTCHAR 0466
ENCODING 1126
SWIDTH 640 0
DWIDTH 16 0
BBX 14 18 1 0
BITMAP
0300
0300
0780
0780
0580
0CC0
0CC0
1860
1860
1060
3030
3FF0
7FF8
6318
6318
C30C
C30C
C30C
ENDCHAR
STARTCHAR 0467
ENCODING 1127
SWIDTH 600 0
DWIDTH 15 0
BBX 12 13 1 0
BITMAP
0600
0600
0F00
0F00
1B80
1980
30C0
30C0
7FE0
7FE0
E670
C630
C630
ENDCHAR
STARTCHAR 0468
ENCODING 1128
SWIDTH 880 0
DWIDTH 22 0
BBX 20 18 1 0
BITMAP
C01800
C01800
C03C00
C03C00
C06600
C06600
C0C300
C0C300
C18180
C18180
FFFFC0
FFFFC0
C61860
C61860
C61860
CC1830
CC1830
CC1830
ENDCHAR
STARTCHAR 0469
ENCODING 1129
SWIDTH 800 0
DWIDTH 20 0
BBX 17 13 2 0
BITMAP
C06000
C06000
C0F000
C1F000
C19800
C30C00
C60400
FFFE00
FFFF00
CC6300
DC6300
D86180
D86180
ENDCHAR
STARTCHAR 046A
ENCODING 1130
SWIDTH 800 0
DWIDTH 20 0
BBX 18 18 1 0
BITMAP
7FFF80
7FFF80
600180
300300
180600
0C0C00
061800
033000
03F000
0FFC00
0CCC00
18C600
38C600
30C300
30C300
60C180
60C180
C0C0C0
ENDCHAR
STARTCHAR 046B
ENCODING 1131
SWIDTH 720 0
DWIDTH 18 0
BBX 16 13 1 0
BITMAP
7FFE
7FFE
300C
1818
0C30
0660
03C0
0FF0
1FF8
318C
318C
6186
E187
ENDCHAR
STARTCHAR 046C
ENCODING 1132
SWIDTH 1040 0
DWIDTH 26 0
BBX 23 18 2 0
BITMAP
C3FFFC
C3FFFC
C3000C
C18018
C0C030
C06060
C030C0
C01980
FFFFC0
FFFFE0
C06660
C0C630
C08630
C18618
C18618
C3060C
C3060C
C60606
ENDCHAR
STARTCHAR 046D
ENCODING 1133
SWIDTH 920 0
DWIDTH 23 0
BBX 20 13 2 0
BITMAP
C7FFE0
C7FFE0
C300E0
C181C0
C0C300
C06600
FFFC00
FFFF00
C19980
C398C0
C318C0
C61860
CE1870
ENDCHAR
STARTCHAR 046E
ENCODING 1134
SWIDTH 600 0
DWIDTH 15 0
BBX 13 27 0 -5
BITMAP
0C30
0660
03C0
0180
0FC0
3FF0
3038
0018
0018
0018
0030
0060
1FC0
1FE0
0070
0038
0018
0018
0018
0030
3FF0
FFC0
C000
C000
E000
7F00
3F00
ENDCHAR
STARTCHAR 046F
ENCODING 1135
SWIDTH 560 0
DWIDTH 14 0
BBX 11 22 1 -5
BITMAP
30C0
1980
0F00
0600
7F80
7FC0
00E0
0060
00C0
3F80
3F80
00C0
0060
0060
00E0
3FC0
7F80
C000
C000
E000
7F00
3F00
ENDCHAR
STARTCHAR 0470
ENCODING 1136
SWIDTH 720 0
DWIDTH 18 0
BBX 18 18 0 0
BITMAP
C180C0
C181C0
C18300
618300
618300
618300
618600
618600
618600
318600
318E00
3FFC00
0FF800
018000
018000
018000
018000
018000
ENDCHAR
STARTCHAR 0471
ENCODING 1137
SWIDTH 680 0
DWIDTH 17 0
BBX 17 21 0 -5
BITMAP
018000
018000
018000
C18180
C18380
C18600
618600
618600
618600
618E00
618C00
618C00
318C00
319C00
3FF800
0FF000
018000
018000
018000
018000
018000
ENDCHAR
STARTCHAR 0472
ENCODING 1138
SWIDTH 760 0
DWIDTH 19 0
BBX 16 18 1 0
BITMAP
07E0
1FF8
381C
700E
6006
E007
C003
FE03
FF83
C1FF
C07F
C003
E007
6006
700E
381C
1FF8
07E0
ENDCHAR
STARTCHAR 0473
ENCODING 1139
SWIDTH 600 0
DWIDTH 15 0
BBX 12 13 1 0
BITMAP
1F80
3FC0
70E0
E060
C030
FC30
FFF0
C3F0
C030
6060
70E0
3FC0
1F80
ENDCHAR
STARTCHAR 0474
ENCODING 1140
SWIDTH 720 0
DWIDTH 18 0
BBX 18 18 0 0
BITMAP
C000C0
6001C0
600300
700300
300600
300600
180C00
180C00
0C1800
0C1800
0E3800
063000
063000
036000
036000
01C000
01C000
01C000
ENDCHAR
STARTCHAR 0475
ENCODING 1141
SWIDTH 560 0
DWIDTH 14 0
BBX 14 13 0 0
BITMAP
C00C
601C
6030
7030
3060
3060
18E0
18C0
0DC0
0D80
0F80
0700
0700
ENDCHAR
STARTCHAR 0476
ENCODING 1142
SWIDTH 720 0
DWIDTH 18 0
BBX 18 24 0 0
BITMAP
048000
024000
024000
012000
000000
000000
C000C0
6001C0
600300
700300
300600
300600
180C00
180C00
0C1800
0C1800
0E3800
063000
063000
036000
036000
01C000
01C000
01C000
ENDCHAR
STARTCHAR 0477
ENCODING 1143
SWIDTH 560 0
DWIDTH 14 0
BBX 14 20 0 0
BITMAP
1200
0900
0900
0480
0000
0000
0000
C00C
601C
6030
7030
3060
3060
18E0
18C0
0DC0
0D80
0F80
0700
0700
ENDCHAR
STARTCHAR 0478
ENCODING 1144
SWIDTH 1200 0
DWIDTH 30 0
BBX 29 23 1 -5
BITMAP
07E00000
1FF80000
3C3C0000
700C0000
60060000
60066038
C0033078
C0033060
C0033060
C00318C0
C00318C0
C0031DC0
60060D80
60060D80
700C0700
3C3C0700
1FF80700
07E00600
00000600
00000E00
00000C00
00000C00
00001800
ENDCHAR
STARTCHAR 0479
ENCODING 1145
SWIDTH 1080 0
DWIDTH 27 0
BBX 26 18 1 -5
BITMAP
0F8601C0
3FE303C0
70730300
60318300
C0198600
C018C600
C018CE00
C0186C00
C0186C00
60303800
70703800
3FE03800
0F803000
00003000
00007000
00006000
00006000
0000C000
ENDCHAR
STARTCHAR 047A
ENCODING 1146
SWIDTH 760 0
DWIDTH 19 0
BBX 18 22 0 -2
BITMAP
00C000
00C000
03F000
0FFC00
3CCF00
70C300
600180
600180
C000C0
C000C0
C000C0
C000C0
C000C0
C000C0
600180
600180
70C300
3CCF00
0FFC00
03F000
00C000
00C000
ENDCHAR
STARTCHAR 047B
ENCODING 1147
SWIDTH 600 0
DWIDTH 15 0
BBX 12 17 1 -2
BITMAP
0600
0600
1F80
3FC0
76E0
E660
C030
C030
C030
C030
C030
E670
76E0
3FC0
1F80
0600
0600
ENDCHAR
STARTCHAR 047C
ENCODING 1148
SWIDTH 880 0
DWIDTH 22 0
BBX 20 27 1 0
BITMAP
000C00
000C00
000C00
07FC00
060000
060000
060000
000000
000000
3000C0
600060
606060
606060
C06030
C06030
C06030
C06030
C06030
C06030
C06030
C06030
C06030
E0F070
60F060
7198E0
3F9FC0
1E0780
ENDCHAR
STARTCHAR 047D
ENCODING 1149
SWIDTH 680 0
DWIDTH 17 0
BBX 15 23 1 0
BITMAP
0060
0060
0060
3FE0
3000
3000
3000
0000
0000
0000
630C
C306
C306
C306
C306
C306
C306
C38C
678C
66CC
6CD8
3C78
3870
ENDCHAR
STARTCHAR 047E
ENCODING 1150
SWIDTH 880 0
DWIDTH 22 0
BBX 20 24 1 0
BITMAP
03F800
03F800
024800
024800
000000
000000
3000C0
600060
606060
606060
C06030
C06030
C06030
C06030
C06030
C06030
C06030
C06030
C06030
E0F070
60F060
7198E0
3F9FC0
1E0780
ENDCHAR
STARTCHAR 047F
ENCODING 1151
SWIDTH 680 0
DWIDTH 17 0
BBX 15 20 1 0
BITMAP
0FE0
0FE0
0920
0920
0000
0000
0000
630C
C306
C306
C306
C306
C306
C306
C38C
678C
66CC
6CD8
3C78
3870
ENDCHAR
STARTCHAR 0480
ENCODING 1152
SWIDTH 680 0
DWIDTH 17 0
BBX 14 18 1 0
BITMAP
07F8
1FFC
380C
7000
6000
C000
C000
C000
C000
C000
6000
7000
380C
1FFC
07FC
000C
000C
000C
ENDCHAR
STARTCHAR 0481
ENCODING 1153
SWIDTH 480 0
DWIDTH 12 0
BBX 9 13 1 0
BITMAP
1F00
3F80
6080
C000
C000
C000
C000
6080
7F80
1F80
0180
0180
0180
ENDCHAR
STARTCHAR 0482
ENCODING 1154
SWIDTH 640 0
DWIDTH 16 0
BBX 14 18 1 0
BITMAP
0008
001C
0018
0E30
07E0
01E0
00F0
01BC
038C
C700
F600
3C00
1E00
1F80
31C0
6000
E000
4000
ENDCHAR
STARTCHAR 0483
ENCODING 1155
SWIDTH 600 0
DWIDTH 15 0
BBX 9 7 3 16
BITMAP
0180
0180
0180
FF80
C000
C000
C000
ENDCHAR
STARTCHAR 0484
ENCODING 1156
SWIDTH 600 0
DWIDTH 15 0
BBX 8 3 3 16
BITMAP
1E
E3
83
ENDCHAR
STARTCHAR 0485
ENCODING 1157
SWIDTH 600 0
DWIDTH 15 0
BBX 8 7 3 16
BITMAP
C0
C0
C0
FF
C0
C0
C0
ENDCHAR
STARTCHAR 0486
ENCODING 1158
SWIDTH 600 0
DWIDTH 15 0
BBX 8 7 3 16
BITMAP
03
03
03
FF
03
03
03
ENDCHAR
STARTCHAR 0490
ENCODING 1168
SWIDTH 520 0
DWIDTH 13 0
BBX 11 22 2 0
BITMAP
0060
0060
0060
0060
FFE0
FFE0
C000
C000
C000
C000
C000
C000
C000
C000
C000
C000
C000
C000
C000
C000
C000
C000
ENDCHAR
STARTCHAR 0491
ENCODING 1169
SWIDTH 480 0
DWIDTH 12 0
BBX 10 16 2 0
BITMAP
00C0
00C0
00C0
FFC0
FFC0
C000
C000
C000
C000
C000
C000
C000
C000
C000
C000
C000
ENDCHAR
STARTCHAR 0492
ENCODING 1170
SWIDTH 560 0
DWIDTH 14 0
BBX 13 18 0 0
BITMAP
1FF8
1FF8
1800
1800
1800
1800
1800
1800
FFC0
FFC0
1800
1800
1800
1800
1800
1800
1800
1800
ENDCHAR
STARTCHAR 0493
ENCODING 1171
SWIDTH 480 0
DWIDTH 12 0
BBX 10 13 1 0
BITMAP
3FC0
3FC0
3000
3000
3000
FE00
FE00
3000
3000
3000
3000
3000
3000
ENDCHAR
STARTCHAR 0494
ENCODING 1172
SWIDTH 640 0
DWIDTH 16 0
BBX 13 22 2 -4
BITMAP
FFE0
FFE0
C000
C000
C000
C000
C000
C000
CF80
FFE0
F070
C030
C018
C018
C018
C018
C018
C030
0030
00E0
07C0
0780
ENDCHAR
STARTCHAR 0495
ENCODING 1173
SWIDTH 560 0
DWIDTH 14 0
BBX 11 17 2 -4
BITMAP
FFC0
FFC0
C000
C000
C000
DF00
FF80
E1C0
C0E0
C060
C060
C060
C060
00C0
01C0
0F80
0E00
ENDCHAR
STARTCHAR 0496
ENCODING 1174
SWIDTH 880 0
DWIDTH 22 0
BBX 19 22 1 -4
BITMAP
60C180
70C380
38C700
18C600
1CCE00
0CCC00
0EDC00
06D800
03F000
0FFC00
0CCC00
18C600
38C600
30C600
30C300
60C300
60C3E0
C0C1E0
000060
000060
000060
000060
ENDCHAR
STARTCHAR 0497
ENCODING 1175
SWIDTH 760 0
DWIDTH 19 0
BBX 17 16 1 -3
BITMAP
618600
718E00
318C00
199800
1DB800
0FF000
1FF000
199800
319800
318C00
618C00
618F80
C18780
000180
000180
000180
ENDCHAR
STARTCHAR 0498
ENCODING 1176
SWIDTH 560 0
DWIDTH 14 0
BBX 12 23 1 -5
BITMAP
7F00
FFC0
C0E0
0060
0060
0060
00C0
0180
1E00
1FC0
01E0
0070
0030
0030
0030
C0E0
FFC0
7F00
0400
0E00
0300
0300
0E00
ENDCHAR
STARTCHAR 0499
ENCODING 1177
SWIDTH 480 0
DWIDTH 12 0
BBX 10 18 1 -5
BITMAP
7F00
FF80
81C0
00C0
01C0
1F80
1F80
01C0
00C0
00C0
81C0
FF80
7E00
0800
1C00
0600
0600
1C00
ENDCHAR
STARTCHAR 049A
ENCODING 1178
SWIDTH 680 0
DWIDTH 17 0
BBX 14 22 2 -4
BITMAP
C030
C070
C0C0
C1C0
C180
C300
C300
C600
FC00
FE00
C700
C380
C1C0
C0C0
C0E0
C060
C03C
C03C
000C
000C
000C
000C
ENDCHAR
STARTCHAR 049B
ENCODING 1179
SWIDTH 600 0
DWIDTH 15 0
BBX 12 16 2 -3
BITMAP
C060
C0E0
C180
C300
C600
FC00
FE00
C700
C300
C380
C180
C0F0
C0F0
0030
0030
0030
ENDCHAR
STARTCHAR 049C
ENCODING 1180
SWIDTH 760 0
DWIDTH 19 0
BBX 16 18 2 0
BITMAP
C006
C00E
C018
CC30
CC70
CCE0
CDC0
FF00
FFC0
CCE0
CC60
CC30
CC38
CC18
C00C
C00C
C006
C007
ENDCHAR
STARTCHAR 049D
ENCODING 1181
SWIDTH 640 0
DWIDTH 16 0
BBX 14 13 1 0
BITMAP
C018
D878
D8E0
D9C0
DB00
FE00
FF00
DB80
D9C0
D8E0
D870
C038
C01C
ENDCHAR
STARTCHAR 049E
ENCODING 1182
SWIDTH 640 0
DWIDTH 16 0
BBX 15 18 0 0
BITMAP
300C
301C
FE30
FE70
3060
30E0
30C0
3180
3E00
3F80
31C0
30E0
3070
3030
3018
3018
300C
300E
ENDCHAR
STARTCHAR 049F
ENCODING 1183
SWIDTH 560 0
DWIDTH 14 0
BBX 13 19 0 0
BITMAP
3000
3000
3000
3000
FF00
FF00
3030
3070
30C0
3180
3380
3E00
3F80
3180
30C0
30E0
3060
3030
3038
ENDCHAR
STARTCHAR 04A0
ENCODING 1184
SWIDTH 760 0
DWIDTH 19 0
BBX 18 18 0 0
BITMAP
FE0180
FE0380
060600
060E00
060C00
061C00
061800
063000
07E000
07F800
063800
061C00
060E00
060600
060300
060300
060180
0601C0
ENDCHAR
STARTCHAR 04A1
ENCODING 1185
SWIDTH 640 0
DWIDTH 16 0
BBX 15 13 0 0
BITMAP
FC0C
FC1C
0C30
0C60
0CE0
0F80
0FE0
0C60
0C30
0C38
0C18
0C0C
0C0E
ENDCHAR
STARTCHAR 04A2
ENCODING 1186
SWIDTH 760 0
DWIDTH 19 0
BBX 16 22 2 -4
BITMAP
C00C
C00C
C00C
C00C
C00C
C00C
C00C
C00C
FFFC
FFFC
C00C
C00C
C00C
C00C
C00C
C00C
C00F
C00F
0003
0003
0003
0003
ENDCHAR
STARTCHAR 04A3
ENCODING 1187
SWIDTH 640 0
DWIDTH 16 0
BBX 13 16 2 -3
BITMAP
C060
C060
C060
C060
C060
FFE0
FFE0
C060
C060
C060
C060
C078
C078
0018
0018
0018
ENDCHAR
STARTCHAR 04A4
ENCODING 1188
SWIDTH 840 0
DWIDTH 21 0
BBX 18 18 2 0
BITMAP
C01FC0
C01FC0
C01800
C01800
C01800
C01800
C01800
C01800
FFF800
FFF800
C01800
C01800
C01800
C01800
C01800
C01800
C01800
C01800
ENDCHAR
STARTCHAR 04A5
ENCODING 1189
SWIDTH 720 0
DWIDTH 18 0
BBX 15 13 2 0
BITMAP
C07E
C07E
C060
C060
C060
FFE0
FFE0
C060
C060
C060
C060
C060
C060
ENDCHAR
STARTCHAR 04A6
ENCODING 1190
SWIDTH 1040 0
DWIDTH 26 0
BBX 23 22 2 -4
BITMAP
FFF800
FFF800
C01800
C01800
C01800
C01800
C01800
C01800
C019F0
C01FF8
C01E1C
C0180C
C01806
C01806
C01806
C01806
C01806
C0180C
00000C
000038
0001F0
0001E0
ENDCHAR
STARTCHAR 04A7
ENCODING 1191
SWIDTH 880 0
DWIDTH 22 0
BBX 19 17 2 -4
BITMAP
FFE000
FFE000
C06000
C06000
C06000
C06F00
C07FC0
C070C0
C06060
C06060
C06060
C06060
C06060
0000E0
0001C0
000780
000700
ENDCHAR
STARTCHAR 04A8
ENCODING 1192
SWIDTH 760 0
DWIDTH 19 0
BBX 18 21 1 -3
BITMAP
07E000
1FF000
3C1000
700000
601E00
607F00
C06300
C0C180
C0C180
C0C180
C0C180
C0C180
60C300
606300
707600
3C3E00
1FFC00
03FC00
000F00
0007C0
0001C0
ENDCHAR
STARTCHAR 04A9
ENCODING 1193
SWIDTH 640 0
DWIDTH 16 0
BBX 15 16 1 -3
BITMAP
0FC0
3FC0
7000
60F0
C1FC
C38C
C30C
C30C
C30C
6198
71F0
3FE0
0FE0
0078
001E
0006
ENDCHAR
STARTCHAR 04AA
ENCODING 1194
SWIDTH 680 0
DWIDTH 17 0
BBX 14 23 1 -5
BITMAP
07F0
1FFC
3C0C
7000
6000
E000
C000
C000
C000
C000
C000
C000
E000
6000
7004
3C1C
1FF8
07E0
0040
00E0
0030
0030
00E0
ENDCHAR
STARTCHAR 04AB
ENCODING 1195
SWIDTH 520 0
DWIDTH 13 0
BBX 10 18 1 -5
BITMAP
1F80
3FC0
7040
6000
C000
C000
C000
C000
C000
6000
7040
3FC0
1F80
0100
0380
00C0
00C0
0380
ENDCHAR
STARTCHAR 04AC
ENCODING 1196
SWIDTH 640 0
DWIDTH 16 0
BBX 16 22 0 -4
BITMAP
FFFF
FFFF
0180
0180
0180
0180
0180
0180
0180
0180
0180
0180
0180
0180
0180
0180
01E0
01E0
0060
0060
0060
0060
ENDCHAR
STARTCHAR 04AD
ENCODING 1197
SWIDTH 480 0
DWIDTH 12 0
BBX 12 16 0 -3
BITMAP
FFF0
FFF0
0600
0600
0600
0600
0600
0600
0600
0600
0600
0780
0780
0180
0180
0180
ENDCHAR
STARTCHAR 04AE
ENCODING 1198
SWIDTH 600 0
DWIDTH 15 0
BBX 14 18 0 0
BITMAP
C00C
6018
3038
3030
1860
0C60
0CC0
06C0
0380
0300
0300
0300
0300
0300
0300
0300
0300
0300
ENDCHAR
STARTCHAR 04AF
ENCODING 1199
SWIDTH 480 0
DWIDTH 12 0
BBX 12 13 0 0
BITMAP
C070
6060
30C0
18C0
1980
0F80
0700
0600
0600
0600
0600
0600
0600
ENDCHAR
STARTCHAR 04B0
ENCODING 1200
SWIDTH 640 0
DWIDTH 16 0
BBX 14 18 1 0
BITMAP
E00C
6018
3018
3030
1870
1C60
0CC0
06C0
0780
0380
0300
0300
7FF8
7FF8
0300
0300
0300
0300
ENDCHAR
STARTCHAR 04B1
ENCODING 1201
SWIDTH 480 0
DWIDTH 12 0
BBX 12 13 0 0
BITMAP
E070
6060
30C0
38C0
1980
0F00
0700
0600
3FC0
3FC0
0600
0600
0600
ENDCHAR
STARTCHAR 04B2
ENCODING 1202
SWIDTH 680 0
DWIDTH 17 0
BBX 16 22 0 -4
BITMAP
E00E
600C
3018
1838
1C30
0C60
06C0
07C0
0380
0380
07C0
06E0
0C60
1830
3818
301C
600F
E007
0003
0003
0003
0003
ENDCHAR
STARTCHAR 04B3
ENCODING 1203
SWIDTH 640 0
DWIDTH 16 0
BBX 14 17 1 -4
BITMAP
E018
7030
3860
18C0
0D80
0700
0700
0780
0DC0
18E0
3070
603C
C01C
000C
000C
000C
000C
ENDCHAR
STARTCHAR 04B4
ENCODING 1204
SWIDTH 880 0
DWIDTH 22 0
BBX 21 22 0 -4
BITMAP
FFF060
FFF060
060060
060060
060060
060060
060060
060060
060060
060060
060060
060060
060060
060060
060060
060060
07FFF8
07FFF8
000018
000018
000018
000018
ENDCHAR
STARTCHAR 04B5
ENCODING 1205
SWIDTH 720 0
DWIDTH 18 0
BBX 16 16 1 -3
BITMAP
FF0C
FF0C
180C
180C
180C
180C
180C
180C
180C
180C
180C
1FFF
1FFF
0003
0003
0003
ENDCHAR
STARTCHAR 04B6
ENCODING 1206
SWIDTH 680 0
DWIDTH 17 0
BBX 14 22 1 -4
BITMAP
C030
C030
C030
C030
C030
C030
C030
C030
C030
6070
7FF0
1FB0
0030
0030
0030
0030
003C
003C
000C
000C
000C
000C
ENDCHAR
STARTCHAR 04B7
ENCODING 1207
SWIDTH 560 0
DWIDTH 14 0
BBX 11 16 1 -3
BITMAP
C180
C180
C180
C180
C180
C180
E380
7F80
3D80
0180
0180
01E0
01E0
0060
0060
0060
ENDCHAR
STARTCHAR 04B8
ENCODING 1208
SWIDTH 640 0
DWIDTH 16 0
BBX 12 18 1 0
BITMAP
C030
C030
C030
C030
C030
C030
C330
C330
C330
6370
7FF0
1FB0
0330
0330
0330
0330
0030
0030
ENDCHAR
STARTCHAR 04B9
ENCODING 1209
SWIDTH 560 0
DWIDTH 14 0
BBX 10 13 1 0
BITMAP
C0C0
C0C0
C0C0
CCC0
CCC0
CCC0
EDC0
7FC0
3EC0
0CC0
0CC0
0CC0
00C0
ENDCHAR
STARTCHAR 04BA
ENCODING 1210
SWIDTH 640 0
DWIDTH 16 0
BBX 13 18 2 0
BITMAP
C000
C000
C000
C000
C000
C000
CFC0
DFF0
F030
E018
C018
C018
C018
C018
C018
C018
C018
C018
ENDCHAR
STARTCHAR 04BB
ENCODING 1211
SWIDTH 520 0
DWIDTH 13 0
BBX 10 13 2 0
BITMAP
C000
C000
C000
C000
DF00
FF80
E1C0
C0C0
C0C0
C0C0
C0C0
C0C0
C0C0
ENDCHAR
STARTCHAR 04BC
ENCODING 1212
SWIDTH 840 0
DWIDTH 21 0
BBX 19 18 0 0
BITMAP
003E00
00FF80
01C1C0
C380C0
C30060
C70060
E60060
7FFFE0
3FFFE0
060000
060000
060000
070000
030000
038000
01E060
00FFE0
003F80
ENDCHAR
STARTCHAR 04BD
ENCODING 1213
SWIDTH 680 0
DWIDTH 17 0
BBX 15 13 0 0
BITMAP
00F0
C1FC
C30C
C706
E606
7FFE
3FFE
0600
0600
0300
0382
01FE
007C
ENDCHAR
STARTCHAR 04BE
ENCODING 1214
SWIDTH 840 0
DWIDTH 21 0
BBX 19 23 0 -5
BITMAP
003E00
00FF80
01C1C0
C380C0
C30060
C70060
E60060
7FFFE0
3FFFE0
060000
060000
060000
070000
030000
038000
01E060
00FFE0
003F80
000C00
001800
001800
001800
000E00
ENDCHAR
STARTCHAR 04BF
ENCODING 1215
SWIDTH 680 0
DWIDTH 17 0
BBX 15 18 0 -5
BITMAP
00F0
C1FC
C30C
C706
E606
7FFE
3FFE
0600
0600
0300
0382
01FE
007C
0030
0060
0060
0060
0038
ENDCHAR
STARTCHAR 04C0
ENCODING 1216
SWIDTH 280 0
DWIDTH 7 0
BBX 2 18 2 0
BITMAP
C0
C0
C0
C0
C0
C0
C0
C0
C0
C0
C0
C0
C0
C0
C0
C0
C0
C0
ENDCHAR
STARTCHAR 04C1
ENCODING 1217
SWIDTH 800 0
DWIDTH 20 0
BBX 18 24 1 0
BITMAP
030C00
030C00
019800
00F000
000000
000000
60C180
70C380
38C700
18C600
1CCE00
0CCC00
0EDC00
06D800
03F000
0FFC00
0CCC00
18C600
38C600
30C300
30C300
60C180
60C180
C0C0C0
ENDCHAR
STARTCHAR 04C2
ENCODING 1218
SWIDTH 720 0
DWIDTH 18 0
BBX 16 20 1 0
BITMAP
0C30
0C30
0660
03C0
0000
0000
0000
6186
718E
318C
1998
1998
1FF8
0FF0
1998
1998
318C
718E
6186
E183
ENDCHAR
STARTCHAR 04C3
ENCODING 1219
SWIDTH 640 0
DWIDTH 16 0
BBX 12 22 2 -4
BITMAP
C030
C070
C0C0
C1C0
C180
C380
C300
C600
FC00
FF80
C1C0
C060
C070
C030
C030
C030
C030
C030
0060
00E0
07C0
0700
ENDCHAR
STARTCHAR 04C4
ENCODING 1220
SWIDTH 560 0
DWIDTH 14 0
BBX 10 17 2 -4
BITMAP
C0C0
C1C0
C300
C300
C600
F800
FF00
C780
C180
C0C0
C0C0
C0C0
C0C0
01C0
0380
0F00
0E00
ENDCHAR
STARTCHAR 04C7
ENCODING 1223
SWIDTH 720 0
DWIDTH 18 0
BBX 13 23 2 -5
BITMAP
C018
C018
C018
C018
C018
C018
C018
C018
FFF8
FFF8
C018
C018
C018
C018
C018
C018
C018
C018
0018
0018
0018
01F0
01E0
ENDCHAR
STARTCHAR 04C8
ENCODING 1224
SWIDTH 640 0
DWIDTH 16 0
BBX 11 18 2 -5
BITMAP
C060
C060
C060
C060
C060
FFE0
FFE0
C060
C060
C060
C060
C060
C060
0060
0060
00E0
07C0
0780
ENDCHAR
STARTCHAR 04CB
ENCODING 1227
SWIDTH 640 0
DWIDTH 16 0
BBX 12 22 1 -4
BITMAP
C030
C030
C030
C030
C030
C030
C030
C030
C030
6070
7FF0
1FB0
0030
0030
0030
0030
00F0
00F0
00C0
00C0
00C0
00C0
ENDCHAR
STARTCHAR 04CC
ENCODING 1228
SWIDTH 520 0
DWIDTH 13 0
BBX 9 16 1 -3
BITMAP
C180
C180
C180
C180
C180
C180
E380
7F80
3D80
0180
0180
0780
0780
0600
0600
0600
ENDCHAR
STARTCHAR 04D0
ENCODING 1232
SWIDTH 680 0
DWIDTH 17 0
BBX 17 24 0 0
BITMAP
061800
061800
033000
01E000
000000
000000
008000
01C000
01C000
036000
036000
077000
063000
063000
0C1800
0C1800
180C00
1FFC00
3FFE00
300600
300600
600300
600300
C00180
ENDCHAR
STARTCHAR 04D1
ENCODING 1233
SWIDTH 560 0
DWIDTH 14 0
BBX 12 20 1 0
BITMAP
30C0
30C0
1980
0F00
0000
0000
0000
3F00
7F80
41C0
00C0
00C0
1FC0
7FC0
E0C0
C0C0
C0C0
E1C0
7FF0
3C70
ENDCHAR
STARTCHAR 04D2
ENCODING 1234
SWIDTH 680 0
DWIDTH 17 0
BBX 17 22 0 0
BITMAP
063000
063000
000000
000000
008000
01C000
01C000
036000
036000
077000
063000
063000
0C1800
0C1800
180C00
1FFC00
3FFE00
300600
300600
600300
600300
C00180
ENDCHAR
STARTCHAR 04D3
ENCODING 1235
SWIDTH 560 0
DWIDTH 14 0
BBX 12 18 1 0
BITMAP
3180
3180
0000
0000
0000
3F00
7F80
41C0
00C0
00C0
1FC0
7FC0
E0C0
C0C0
C0C0
E1C0
7FF0
3C70
ENDCHAR
STARTCHAR 04D4
ENCODING 1236
SWIDTH 920 0
DWIDTH 23 0
BBX 22 18 0 0
BITMAP
003FF8
003FF8
007800
00F800
00D800
019800
019800
031800
071FF0
061FF0
0C1800
0FF800
1FF800
381800
301800
601800
601FFC
C01FFC
ENDCHAR
STARTCHAR 04D5
ENCODING 1237
SWIDTH 840 0
DWIDTH 21 0
BBX 18 13 1 0
BITMAP
3F1E00
7FBF80
41E180
00C0C0
00C0C0
1FFFC0
7FFFC0
E0C000
C0C000
C0E000
E1F040
7F3FC0
3C1F80
ENDCHAR
STARTCHAR 04D6
ENCODING 1238
SWIDTH 560 0
DWIDTH 14 0
BBX 11 24 2 0
BITMAP
30C0
30C0
1980
0F00
0000
0000
FFC0
FFC0
C000
C000
C000
C000
C000
C000
FF80
FF80
C000
C000
C000
C000
C000
C000
FFE0
FFE0
ENDCHAR
STARTCHAR 04D7
ENCODING 1239
SWIDTH 560 0
DWIDTH 14 0
BBX 11 20 1 0
BITMAP
30C0
30C0
1980
0F00
0000
0000
0000
1F00
3FC0
70C0
6060
C060
FFE0
FFE0
C000
C000
6000
7020
3FE0
1FC0
ENDCHAR
STARTCHAR 04D8
ENCODING 1240
SWIDTH 680 0
DWIDTH 17 0
BBX 14 18 1 0
BITMAP
3F80
FFE0
C0F0
0038
0018
0018
000C
000C
FFFC
FFFC
C00C
C01C
C01C
4018
6038
70F0
3FE0
0F80
ENDCHAR
STARTCHAR 04D9
ENCODING 1241
SWIDTH 560 0
DWIDTH 14 0
BBX 10 13 2 0
BITMAP
7C00
FF00
8380
0180
00C0
FFC0
FFC0
C0C0
C0C0
C1C0
6380
7F00
1E00
ENDCHAR
STARTCHAR 04DA
ENCODING 1242
SWIDTH 680 0
DWIDTH 17 0
BBX 14 22 1 0
BITMAP
3180
3180
0000
0000
3F80
FFE0
C0F0
0038
0018
0018
000C
000C
FFFC
FFFC
C00C
C01C
C01C
4018
6038
70F0
3FE0
0F80
ENDCHAR
STARTCHAR 04DB
ENCODING 1243
SWIDTH 560 0
DWIDTH 14 0
BBX 10 18 2 0
BITMAP
6300
6300
0000
0000
0000
7C00
FF00
8380
0180
00C0
FFC0
FFC0
C0C0
C0C0
C1C0
6380
7F00
1E00
ENDCHAR
STARTCHAR 04DC
ENCODING 1244
SWIDTH 800 0
DWIDTH 20 0
BBX 18 22 1 0
BITMAP
031800
031800
000000
000000
60C180
70C380
38C700
18C600
1CCE00
0CCC00
0EDC00
06D800
03F000
0FFC00
0CCC00
18C600
38C600
30C300
30C300
60C180
60C180
C0C0C0
ENDCHAR
STARTCHAR 04DD
ENCODING 1245
SWIDTH 720 0
DWIDTH 18 0
BBX 16 18 1 0
BITMAP
0C60
0C60
0000
0000
0000
6186
718E
318C
1998
1998
1FF8
0FF0
1998
1998
318C
718E
6186
E183
ENDCHAR
STARTCHAR 04DE
ENCODING 1246
SWIDTH 560 0
DWIDTH 14 0
BBX 12 22 1 0
BITMAP
6300
6300
0000
0000
7F00
FFC0
C0E0
0060
0060
0060
00C0
0180
1E00
1FC0
01E0
0070
0030
0030
0030
C0E0
FFC0
7F00
ENDCHAR
STARTCHAR 04DF
ENCODING 1247
SWIDTH 480 0
DWIDTH 12 0
BBX 10 18 1 0
BITMAP
C600
C600
0000
0000
0000
7F00
FF80
81C0
00C0
01C0
1F80
1F80
01C0
00C0
00C0
81C0
FF80
7E00
ENDCHAR
STARTCHAR 04E0
ENCODING 1248
SWIDTH 560 0
DWIDTH 14 0
BBX 11 18 1 0
BITMAP
FFC0
FFC0
0180
0300
0600
0C00
1800
3F00
3F80
01C0
00E0
0060
0060
0060
00E0
81C0
FF80
7E00
ENDCHAR
STARTCHAR 04E1
ENCODING 1249
SWIDTH 520 0
DWIDTH 13 0
BBX 11 18 1 -5
BITMAP
FFE0
FFE0
00C0
0180
0700
0C00
1800
3E00
3F80
03C0
00E0
0060
0060
0060
00E0
C1C0
FF80
7E00
ENDCHAR
STARTCHAR 04E2
ENCODING 1250
SWIDTH 760 0
DWIDTH 19 0
BBX 14 22 2 0
BITMAP
1FE0
1FE0
0000
0000
C00C
C01C
C03C
C03C
C06C
C0EC
C0CC
C18C
C30C
C30C
C60C
CC0C
DC0C
D80C
F00C
F00C
E00C
C00C
ENDCHAR
STARTCHAR 04E3
ENCODING 1251
SWIDTH 640 0
DWIDTH 16 0
BBX 11 18 2 0
BITMAP
7F80
7F80
0000
0000
0000
C0E0
C0E0
C1E0
C3E0
C360
C660
CE60
CC60
D860
F860
F060
E060
C060
ENDCHAR
STARTCHAR 04E4
ENCODING 1252
SWIDTH 760 0
DWIDTH 19 0
BBX 14 22 2 0
BITMAP
0C60
0C60
0000
0000
C00C
C01C
C03C
C03C
C06C
C0EC
C0CC
C18C
C30C
C30C
C60C
CC0C
DC0C
D80C
F00C
F00C
E00C
C00C
ENDCHAR
STARTCHAR 04E5
ENCODING 1253
SWIDTH 640 0
DWIDTH 16 0
BBX 11 18 2 0
BITMAP
3180
3180
0000
0000
0000
C0E0
C0E0
C1E0
C3E0
C360
C660
CE60
CC60
D860
F860
F060
E060
C060
ENDCHAR
STARTCHAR 04E6
ENCODING 1254
SWIDTH 760 0
DWIDTH 19 0
BBX 16 22 1 0
BITMAP
0630
0630
0000
0000
07E0
1FF8
381C
700E
6006
E007
C003
C003
C003
C003
C003
C003
E007
6006
700E
381C
1FF8
07E0
ENDCHAR
STARTCHAR 04E7
ENCODING 1255
SWIDTH 600 0
DWIDTH 15 0
BBX 12 18 1 0
BITMAP
18C0
18C0
0000
0000
0000
1F80
3FC0
70E0
6060
C030
C030
C030
C030
C030
6060
70E0
3FC0
1F80
ENDCHAR
STARTCHAR 04E8
ENCODING 1256
SWIDTH 760 0
DWIDTH 19 0
BBX 16 18 1 0
BITMAP
07E0
1FF8
381C
700E
6006
E007
C003
C003
FFFF
FFFF
C003
C003
E007
6006
700E
381C
1FF8
07E0
ENDCHAR
STARTCHAR 04E9
ENCODING 1257
SWIDTH 600 0
DWIDTH 15 0
BBX 12 13 1 0
BITMAP
1F80
3FC0
70E0
E060
C030
FFF0
FFF0
C030
C030
6060
70E0
3FC0
1F80
ENDCHAR
STARTCHAR 04EA
ENCODING 1258
SWIDTH 760 0
DWIDTH 19 0
BBX 16 22 1 0
BITMAP
0630
0630
0000
0000
07E0
1FF8
381C
700E
6006
E007
C003
C003
FFFF
FFFF
C003
C003
E007
6006
700E
381C
1FF8
07E0
ENDCHAR
STARTCHAR 04EB
ENCODING 1259
SWIDTH 600 0
DWIDTH 15 0
BBX 12 18 1 0
BITMAP
18C0
18C0
0000
0000
0000
1F80
3FC0
70E0
E060
C030
FFF0
FFF0
C030
C030
6060
70E0
3FC0
1F80
ENDCHAR
STARTCHAR 04EE
ENCODING 1262
SWIDTH 640 0
DWIDTH 16 0
BBX 15 22 1 0
BITMAP
1FE0
1FE0
0000
0000
C00E
600C
701C
3018
3838
1830
0C70
0C60
06C0
06C0
0380
0380
0300
0300
0600
0E00
7C00
7000
ENDCHAR
STARTCHAR 04EF
ENCODING 1263
SWIDTH 520 0
DWIDTH 13 0
BBX 13 23 0 -5
BITMAP
3FC0
3FC0
0000
0000
0000
C018
6030
6030
3070
3060
3060
18C0
18C0
0D80
0D80
0780
0700
0700
0600
0600
0C00
7C00
7000
ENDCHAR
STARTCHAR 04F0
ENCODING 1264
SWIDTH 640 0
DWIDTH 16 0
BBX 15 22 1 0
BITMAP
0C60
0C60
0000
0000
C00E
600C
701C
3018
3838
1830
0C70
0C60
06C0
06C0
0380
0380
0300
0300
0600
0E00
7C00
7000
ENDCHAR
STARTCHAR 04F1
ENCODING 1265
SWIDTH 520 0
DWIDTH 13 0
BBX 13 23 0 -5
BITMAP
18C0
18C0
0000
0000
0000
C018
6030
6030
3070
3060
3060
18C0
18C0
0D80
0D80
0780
0700
0700
0600
0600
0C00
7C00
7000
ENDCHAR
STARTCHAR 04F2
ENCODING 1266
SWIDTH 640 0
DWIDTH 16 0
BBX 15 24 1 0
BITMAP
0198
0330
0660
0CC0
0000
0000
C00E
600C
701C
3018
3838
1830
0C70
0C60
06C0
06C0
0380
0380
0300
0300
0600
0E00
7C00
7000
ENDCHAR
STARTCHAR 04F3
ENCODING 1267
SWIDTH 520 0
DWIDTH 13 0
BBX 13 25 0 -5
BITMAP
0198
0330
0660
0CC0
0000
0000
0000
C018
6030
6030
3070
3060
3060
18C0
18C0
0D80
0D80
0780
0700
0700
0600
0600
0C00
7C00
7000
ENDCHAR
STARTCHAR 04F4
ENCODING 1268
SWIDTH 640 0
DWIDTH 16 0
BBX 12 22 1 0
BITMAP
18C0
18C0
0000
0000
C030
C030
C030
C030
C030
C030
C030
C030
C030
6070
7FF0
1FB0
0030
0030
0030
0030
0030
0030
ENDCHAR
STARTCHAR 04F5
ENCODING 1269
SWIDTH 520 0
DWIDTH 13 0
BBX 9 18 1 0
BITMAP
6300
6300
0000
0000
0000
C180
C180
C180
C180
C180
C180
E380
7F80
3D80
0180
0180
0180
0180
ENDCHAR
STARTCHAR 04F8
ENCODING 1272
SWIDTH 800 0
DWIDTH 20 0
BBX 15 22 2 0
BITMAP
0C60
0C60
0000
0000
C006
C006
C006
C006
C006
C006
C006
C006
FF06
FF86
C1C6
C0E6
C066
C066
C0E6
C1C6
FF86
FF06
ENDCHAR
STARTCHAR 04F9
ENCODING 1273
SWIDTH 720 0
DWIDTH 18 0
BBX 13 18 2 0
BITMAP
18C0
18C0
0000
0000
0000
C018
C018
C018
C018
C018
FE18
FF18
C398
C198
C198
C398
FF18
FC18
ENDCHAR
STARTCHAR 0591
ENCODING 1425
SWIDTH 0 0
DWIDTH 0 0
BBX 5 5 4 -7
BITMAP
20
20
70
88
88
ENDCHAR
STARTCHAR 0592
ENCODING 1426
SWIDTH 0 0
DWIDTH 0 0
BBX 6 6 4 16
BITMAP
30
30
00
00
CC
CC
ENDCHAR
STARTCHAR 0593
ENCODING 1427
SWIDTH 0 0
DWIDTH 0 0
BBX 5 7 4 16
BITMAP
18
E0
40
38
60
E0
18
ENDCHAR
STARTCHAR 0594
ENCODING 1428
SWIDTH 0 0
DWIDTH 0 0
BBX 2 6 6 16
BITMAP
C0
C0
00
00
C0
C0
ENDCHAR
STARTCHAR 0595
ENCODING 1429
SWIDTH 0 0
DWIDTH 0 0
BBX 5 6 5 16
BITMAP
98
98
80
80
98
98
ENDCHAR
STARTCHAR 0596
ENCODING 1430
SWIDTH 0 0
DWIDTH 0 0
BBX 4 5 6 -7
BITMAP
80
80
80
80
70
ENDCHAR
STARTCHAR 0597
ENCODING 1431
SWIDTH 0 0
DWIDTH 0 0
BBX 3 3 5 16
BITMAP
40
E0
40
ENDCHAR
STARTCHAR 0598
ENCODING 1432
SWIDTH 0 0
DWIDTH 0 0
BBX 6 4 4 16
BITMAP
44
A4
94
88
ENDCHAR
STARTCHAR 0599
ENCODING 1433
SWIDTH 0 0
DWIDTH 0 0
BBX 4 6 0 16
BITMAP
E0
30
10
10
10
10
ENDCHAR
STARTCHAR 059A
ENCODING 1434
SWIDTH 0 0
DWIDTH 0 0
BBX 6 5 7 -7
BITMAP
04
3C
C0
3C
04
ENDCHAR
STARTCHAR 059B
ENCODING 1435
SWIDTH 0 0
DWIDTH 0 0
BBX 5 5 5 -7
BITMAP
C8
C8
08
08
70
ENDCHAR
STARTCHAR 059C
ENCODING 1436
SWIDTH 0 0
DWIDTH 0 0
BBX 4 6 6 16
BITMAP
70
C0
80
80
80
80
ENDCHAR
STARTCHAR 059D
ENCODING 1437
SWIDTH 0 0
DWIDTH 0 0
BBX 4 6 10 16
BITMAP
70
C0
80
80
80
80
ENDCHAR
STARTCHAR 059E
ENCODING 1438
SWIDTH 0 0
DWIDTH 0 0
BBX 6 6 5 16
BITMAP
6C
90
90
90
90
90
ENDCHAR
STARTCHAR 059F
ENCODING 1439
SWIDTH 0 0
DWIDTH 0 0
BBX 13 6 1 16
BITMAP
7070
8888
8888
8888
78F0
0500
ENDCHAR
STARTCHAR 05A0
ENCODING 1440
SWIDTH 0 0
DWIDTH 0 0
BBX 6 6 5 16
BITMAP
38
44
44
44
78
80
ENDCHAR
STARTCHAR 05A1
ENCODING 1441
SWIDTH 0 0
DWIDTH 0 0
BBX 5 6 2 16
BITMAP
88
88
88
F0
80
80
ENDCHAR
STARTCHAR 05A3
ENCODING 1443
SWIDTH 0 0
DWIDTH 0 0
BBX 5 5 4 -7
BITMAP
08
08
08
08
F8
ENDCHAR
STARTCHAR 05A4
ENCODING 1444
SWIDTH 0 0
DWIDTH 0 0
BBX 6 5 4 -7
BITMAP
04
3C
C0
3C
04
ENDCHAR
STARTCHAR 05A5
ENCODING 1445
SWIDTH 0 0
DWIDTH 0 0
BBX 4 5 5 -7
BITMAP
10
10
10
10
E0
ENDCHAR
STARTCHAR 05A6
ENCODING 1446
SWIDTH 0 0
DWIDTH 0 0
BBX 6 5 4 -7
BITMAP
24
24
24
24
D8
ENDCHAR
STARTCHAR 05A7
ENCODING 1447
SWIDTH 0 0
DWIDTH 0 0
BBX 4 5 6 -7
BITMAP
70
80
60
10
E0
ENDCHAR
STARTCHAR 05A8
ENCODING 1448
SWIDTH 0 0
DWIDTH 0 0
BBX 4 6 6 16
BITMAP
E0
30
10
10
10
10
ENDCHAR
STARTCHAR 05A9
ENCODING 1449
SWIDTH 0 0
DWIDTH 0 0
BBX 6 6 0 16
BITMAP
70
88
88
88
78
04
ENDCHAR
STARTCHAR 05AA
ENCODING 1450
SWIDTH 0 0
DWIDTH 0 0
BBX 5 5 5 -7
BITMAP
88
88
70
20
20
ENDCHAR
STARTCHAR 05AB
ENCODING 1451
SWIDTH 0 0
DWIDTH 0 0
BBX 6 5 4 16
BITMAP
04
3C
C0
3C
04
ENDCHAR
STARTCHAR 05AC
ENCODING 1452
SWIDTH 0 0
DWIDTH 0 0
BBX 5 5 5 16
BITMAP
08
08
08
08
F8
ENDCHAR
STARTCHAR 05AD
ENCODING 1453
SWIDTH 0 0
DWIDTH 0 0
BBX 4 5 11 -7
BITMAP
80
80
80
80
70
ENDCHAR
STARTCHAR 05AE
ENCODING 1454
SWIDTH 0 0
DWIDTH 0 0
BBX 6 4 -4 16
BITMAP
44
A4
94
88
ENDCHAR
STARTCHAR 05AF
ENCODING 1455
SWIDTH 0 0
DWIDTH 0 0
BBX 6 6 4 16
BITMAP
78
CC
84
84
CC
78
ENDCHAR
STARTCHAR 05B0
ENCODING 1456
SWIDTH 0 0
DWIDTH 0 0
BBX 2 6 7 -8
BITMAP
C0
C0
00
00
C0
C0
ENDCHAR
STARTCHAR 05B1
ENCODING 1457
SWIDTH 0 0
DWIDTH 0 0
BBX 10 6 3 -8
BITMAP
CCC0
CCC0
0000
0000
30C0
30C0
ENDCHAR
STARTCHAR 05B2
ENCODING 1458
SWIDTH 0 0
DWIDTH 0 0
BBX 11 6 3 -8
BITMAP
FE60
0060
0000
0000
0060
0060
ENDCHAR
STARTCHAR 05B3
ENCODING 1459
SWIDTH 0 0
DWIDTH 0 0
BBX 11 6 3 -8
BITMAP
FE60
1060
1000
1000
1060
1060
ENDCHAR
STARTCHAR 05B4
ENCODING 1460
SWIDTH 0 0
DWIDTH 0 0
BBX 2 2 7 -4
BITMAP
C0
C0
ENDCHAR
STARTCHAR 05B5
ENCODING 1461
SWIDTH 0 0
DWIDTH 0 0
BBX 6 2 5 -4
BITMAP
CC
CC
ENDCHAR
STARTCHAR 05B6
ENCODING 1462
SWIDTH 0 0
DWIDTH 0 0
BBX 6 6 5 -8
BITMAP
CC
CC
00
00
30
30
ENDCHAR
STARTCHAR 05B7
ENCODING 1463
SWIDTH 0 0
DWIDTH 0 0
BBX 7 1 5 -3
BITMAP
FE
ENDCHAR
STARTCHAR 05B8
ENCODING 1464
SWIDTH 0 0
DWIDTH 0 0
BBX 7 5 4 -7
BITMAP
FE
10
10
10
10
ENDCHAR
STARTCHAR 05B9
ENCODING 1465
SWIDTH 0 0
DWIDTH 0 0
BBX 2 2 -1 16
BITMAP
C0
C0
ENDCHAR
STARTCHAR 05BB
ENCODING 1467
SWIDTH 0 0
DWIDTH 0 0
BBX 10 6 4 -8
BITMAP
C000
C000
0C00
0C00
00C0
00C0
ENDCHAR
STARTCHAR 05BC
ENCODING 1468
SWIDTH 0 0
DWIDTH 0 0
BBX 2 2 6 6
BITMAP
C0
C0
ENDCHAR
STARTCHAR 05BD
ENCODING 1469
SWIDTH 0 0
DWIDTH 0 0
BBX 1 5 6 -7
BITMAP
80
80
80
80
80
ENDCHAR
STARTCHAR 05BE
ENCODING 1470
SWIDTH 360 0
DWIDTH 9 0
BBX 7 2 1 12
BITMAP
7E
FC
ENDCHAR
STARTCHAR 05BF
ENCODING 1471
SWIDTH 0 0
DWIDTH 0 0
BBX 7 1 3 16
BITMAP
FE
ENDCHAR
STARTCHAR 05C0
ENCODING 1472
SWIDTH 240 0
DWIDTH 6 0
BBX 2 14 2 0
BITMAP
C0
C0
C0
C0
C0
C0
C0
C0
C0
C0
C0
C0
C0
C0
ENDCHAR
STARTCHAR 05C1
ENCODING 1473
SWIDTH 0 0
DWIDTH 0 0
BBX 2 2 15 16
BITMAP
C0
C0
ENDCHAR
STARTCHAR 05C2
ENCODING 1474
SWIDTH 0 0
DWIDTH 0 0
BBX 2 2 2 16
BITMAP
C0
C0
ENDCHAR
STARTCHAR 05C3
ENCODING 1475
SWIDTH 240 0
DWIDTH 6 0
BBX 2 14 2 0
BITMAP
C0
C0
00
00
00
00
00
00
00
00
00
00
C0
C0
ENDCHAR
STARTCHAR 05C4
ENCODING 1476
SWIDTH 0 0
DWIDTH 0 0
BBX 2 2 6 16
BITMAP
C0
C0
ENDCHAR
STARTCHAR 05D0
ENCODING 1488
SWIDTH 640 0
DWIDTH 16 0
BBX 14 14 1 0
BITMAP
4018
E018
7018
1C18
3E30
2730
63E0
61E0
40E0
C060
C030
C038
C01C
C008
ENDCHAR
STARTCHAR 05D1
ENCODING 1489
SWIDTH 560 0
DWIDTH 14 0
BBX 14 14 0 0
BITMAP
3FC0
7FE0
0070
0030
0030
0030
0030
0030
0030
0030
0030
0030
7FFC
FFF8
ENDCHAR
STARTCHAR 05D2
ENCODING 1490
SWIDTH 440 0
DWIDTH 11 0
BBX 9 14 1 0
BITMAP
1000
3C00
0E00
0600
0600
0600
0700
0300
0300
0700
1F00
3B00
E380
4180
ENDCHAR
STARTCHAR 05D3
ENCODING 1491
SWIDTH 520 0
DWIDTH 13 0
BBX 13 14 0 0
BITMAP
7FF8
FFF0
0060
0060
0060
0060
0060
0060
0060
0060
0060
0060
0060
0060
ENDCHAR
STARTCHAR 05D4
ENCODING 1492
SWIDTH 720 0
DWIDTH 18 0
BBX 15 14 1 0
BITMAP
7FF8
FFFC
000E
0006
0006
0006
3006
3006
3006
3006
3006
3006
3006
3006
ENDCHAR
STARTCHAR 05D5
ENCODING 1493
SWIDTH 320 0
DWIDTH 8 0
BBX 5 14 1 0
BITMAP
60
F0
38
18
18
18
18
18
18
18
18
18
18
18
ENDCHAR
STARTCHAR 05D6
ENCODING 1494
SWIDTH 360 0
DWIDTH 9 0
BBX 8 14 0 0
BITMAP
40
F0
3C
1F
3A
30
30
30
30
30
30
30
30
30
ENDCHAR
STARTCHAR 05D7
ENCODING 1495
SWIDTH 720 0
DWIDTH 18 0
BBX 15 14 1 0
BITMAP
7FF8
FFFC
300E
3006
3006
3006
3006
3006
3006
3006
3006
3006
3006
3006
ENDCHAR
STARTCHAR 05D8
ENCODING 1496
SWIDTH 640 0
DWIDTH 16 0
BBX 14 14 1 0
BITMAP
C0F0
C1F8
C01C
C00C
C00C
400C
600C
6008
6018
6030
6060
21C0
3F80
3C00
ENDCHAR
STARTCHAR 05D9
ENCODING 1497
SWIDTH 320 0
DWIDTH 8 0
BBX 5 9 1 5
BITMAP
60
F0
38
18
18
18
18
38
30
ENDCHAR
STARTCHAR 05DA
ENCODING 1498
SWIDTH 520 0
DWIDTH 13 0
BBX 11 18 0 -4
BITMAP
7FE0
FFE0
0060
0060
0060
0060
0060
0060
0060
0060
0060
0060
0060
0060
0060
0060
0060
0060
ENDCHAR
STARTCHAR 05DB
ENCODING 1499
SWIDTH 560 0
DWIDTH 14 0
BBX 11 14 1 0
BITMAP
3F00
7FC0
01C0
00E0
0060
0060
0060
0060
0060
0040
00C0
00C0
7F80
FF80
ENDCHAR
STARTCHAR 05DC
ENCODING 1500
SWIDTH 520 0
DWIDTH 13 0
BBX 11 19 1 0
BITMAP
C000
C000
C000
C000
C000
FF80
FFC0
00E0
0060
0060
0060
0060
00C0
01C0
0180
0300
0E00
7800
6000
ENDCHAR
STARTCHAR 05DD
ENCODING 1501
SWIDTH 720 0
DWIDTH 18 0
BBX 15 14 1 0
BITMAP
7FF8
FFFC
300E
3006
3006
3006
3006
3006
3006
3006
3006
3006
3FFE
3FFC
ENDCHAR
STARTCHAR 05DE
ENCODING 1502
SWIDTH 680 0
DWIDTH 17 0
BBX 15 14 0 0
BITMAP
41F0
E3F8
771C
3C0C
1C0C
180C
1806
1806
3006
3006
3006
3006
60FE
61FC
ENDCHAR
STARTCHAR 05DF
ENCODING 1503
SWIDTH 320 0
DWIDTH 8 0
BBX 5 18 1 -4
BITMAP
60
F0
38
18
18
18
18
18
18
18
18
18
18
18
18
18
18
18
ENDCHAR
STARTCHAR 05E0
ENCODING 1504
SWIDTH 400 0
DWIDTH 10 0
BBX 8 14 0 0
BITMAP
0C
1E
07
03
03
03
03
03
03
03
03
03
7F
FE
ENDCHAR
STARTCHAR 05E1
ENCODING 1505
SWIDTH 680 0
DWIDTH 17 0
BBX 16 14 0 0
BITMAP
7FFC
FFFE
3007
3003
3003
1803
1803
1806
1806
180C
1818
0C70
0FC0
0F00
ENDCHAR
STARTCHAR 05E2
ENCODING 1506
SWIDTH 600 0
DWIDTH 15 0
BBX 14 16 0 -2
BITMAP
180C
180C
180C
0C0C
0C0C
0C0C
0C08
0618
0618
0630
0620
0360
03C0
0F00
7C00
E000
ENDCHAR
STARTCHAR 05E3
ENCODING 1507
SWIDTH 520 0
DWIDTH 13 0
BBX 11 18 0 -4
BITMAP
7000
7F00
5FC0
C1E0
C060
C060
F060
6060
0060
0060
0060
0060
0060
0060
0060
0060
0060
0060
ENDCHAR
STARTCHAR 05E4
ENCODING 1508
SWIDTH 560 0
DWIDTH 14 0
BBX 11 14 1 0
BITMAP
3000
3F00
2FC0
61E0
6060
6060
7860
3060
0060
0060
0060
0060
7FE0
FFC0
ENDCHAR
STARTCHAR 05E5
ENCODING 1509
SWIDTH 480 0
DWIDTH 12 0
BBX 11 18 0 -4
BITMAP
C060
E060
6060
70E0
30C0
39C0
1B80
1F00
0E00
0C00
0C00
0C00
0C00
0C00
0C00
0C00
0C00
0C00
ENDCHAR
STARTCHAR 05E6
ENCODING 1510
SWIDTH 560 0
DWIDTH 14 0
BBX 13 14 0 0
BITMAP
2018
7018
3018
3818
1830
0C30
0E60
07C0
0380
01C0
00E0
0070
7FF8
FFF0
ENDCHAR
STARTCHAR 05E7
ENCODING 1511
SWIDTH 680 0
DWIDTH 17 0
BBX 15 18 1 -4
BITMAP
7FF8
FFFC
000E
0006
0006
0006
3006
300C
3018
3038
3070
31C0
3380
3600
3000
3000
3000
3000
ENDCHAR
STARTCHAR 05E8
ENCODING 1512
SWIDTH 520 0
DWIDTH 13 0
BBX 10 14 1 0
BITMAP
7F00
FF80
01C0
00C0
00C0
00C0
00C0
00C0
00C0
00C0
00C0
00C0
00C0
00C0
ENDCHAR
STARTCHAR 05E9
ENCODING 1513
SWIDTH 720 0
DWIDTH 18 0
BBX 16 14 1 0
BITMAP
C183
C183
C183
C183
C183
6382
6306
6706
7E0C
781C
6038
30E0
3FC0
3E00
ENDCHAR
STARTCHAR 05EA
ENCODING 1514
SWIDTH 680 0
DWIDTH 17 0
BBX 15 14 0 0
BITMAP
3FF8
7FFC
180E
1806
1806
1806
1806
1806
1806
0C06
0C06
0E06
7E06
FC06
ENDCHAR
STARTCHAR 05F0
ENCODING 1520
SWIDTH 600 0
DWIDTH 15 0
BBX 12 14 1 0
BITMAP
60C0
F1E0
3870
1830
1830
1830
1830
1830
1830
1830
1830
1830
1830
1830
ENDCHAR
STARTCHAR 05F1
ENCODING 1521
SWIDTH 600 0
DWIDTH 15 0
BBX 12 14 1 0
BITMAP
60C0
F1E0
3870
1830
1830
1830
1830
3830
3030
0030
0030
0030
0030
0030
ENDCHAR
STARTCHAR 05F2
ENCODING 1522
SWIDTH 600 0
DWIDTH 15 0
BBX 12 9 1 5
BITMAP
60C0
F1E0
3870
1830
1830
1830
1830
3870
3060
ENDCHAR
STARTCHAR 05F3
ENCODING 1523
SWIDTH 280 0
DWIDTH 7 0
BBX 5 6 1 10
BITMAP
38
30
70
60
60
C0
ENDCHAR
STARTCHAR 05F4
ENCODING 1524
SWIDTH 480 0
DWIDTH 12 0
BBX 10 6 1 10
BITMAP
39C0
3180
7380
6300
6300
C600
ENDCHAR
STARTCHAR 060C
ENCODING 1548
SWIDTH 320 0
DWIDTH 8 0
BBX 3 7 2 0
BITMAP
20
40
C0
C0
E0
E0
E0
ENDCHAR
STARTCHAR 061B
ENCODING 1563
SWIDTH 320 0
DWIDTH 8 0
BBX 2 14 3 0
BITMAP
40
80
80
80
C0
C0
00
00
00
00
00
00
C0
C0
ENDCHAR
STARTCHAR 061F
ENCODING 1567
SWIDTH 440 0
DWIDTH 11 0
BBX 9 18 1 0
BITMAP
1F00
7F80
E080
C000
E000
F000
7800
3E00
0F00
0700
0300
0300
0300
0300
0000
0000
0300
0300
ENDCHAR
STARTCHAR 0621
ENCODING 1569
SWIDTH 440 0
DWIDTH 11 0
BBX 9 11 1 0
BITMAP
0780
3F80
7800
E000
C000
E000
7800
3F80
3F80
FE00
C000
ENDCHAR
STARTCHAR 0622
ENCODING 1570
SWIDTH 320 0
DWIDTH 8 0
BBX 8 25 0 0
BITMAP
71
FF
8E
00
00
18
18
18
18
18
18
18
18
18
18
18
18
18
18
18
18
18
18
18
18
ENDCHAR
STARTCHAR 0623
ENCODING 1571
SWIDTH 320 0
DWIDTH 8 0
BBX 6 29 1 0
BITMAP
0C
30
40
40
30
1C
70
80
00
30
30
30
30
30
30
30
30
30
30
30
30
30
30
30
30
30
30
30
30
ENDCHAR
STARTCHAR 0624
ENCODING 1572
SWIDTH 480 0
DWIDTH 12 0
BBX 11 28 0 -10
BITMAP
0180
0600
0800
0800
0600
0380
0E00
1000
0000
0780
0FC0
1CC0
18E0
3060
3060
3860
3FE0
0FE0
00C0
00C0
0180
0380
0700
0E00
1C00
3800
7000
E000
ENDCHAR
STARTCHAR 0625
ENCODING 1573
SWIDTH 320 0
DWIDTH 8 0
BBX 6 30 1 -10
BITMAP
30
30
30
30
30
30
30
30
30
30
30
30
30
30
30
30
30
30
30
30
00
00
0C
30
40
40
30
1C
70
80
ENDCHAR
STARTCHAR 0626
ENCODING 1574
SWIDTH 960 0
DWIDTH 24 0
BBX 22 24 1 -5
BITMAP
0C0000
300000
400000
400000
300000
1C003C
7000FC
8001C0
000300
000300
200600
600600
400600
400600
C007FC
C003FC
C0000C
C0001C
C00018
E00070
6000E0
7807C0
3FFF00
07F800
ENDCHAR
STARTCHAR 0627
ENCODING 1575
SWIDTH 320 0
DWIDTH 8 0
BBX 2 20 3 0
BITMAP
C0
C0
C0
C0
C0
C0
C0
C0
C0
C0
C0
C0
C0
C0
C0
C0
C0
C0
C0
C0
ENDCHAR
STARTCHAR 0628
ENCODING 1576
SWIDTH 1040 0
DWIDTH 26 0
BBX 24 16 1 -5
BITMAP
000003
000003
000003
400003
C00003
C00003
C00003
E00006
78007C
3FFFF8
0FFF80
000000
000000
004000
00E000
004000
ENDCHAR
STARTCHAR 0629
ENCODING 1577
SWIDTH 560 0
DWIDTH 14 0
BBX 12 17 1 0
BITMAP
1080
39C0
1080
0000
0000
0000
0600
0F80
1BC0
30E0
6070
C030
C030
C030
E0E0
7FC0
3F00
ENDCHAR
STARTCHAR 062A
ENCODING 1578
SWIDTH 1040 0
DWIDTH 26 0
BBX 24 14 1 0
BITMAP
004200
00E700
004200
000003
000003
000003
400003
C00003
C00003
C00003
E00006
78007C
3FFFF8
0FFF80
ENDCHAR
STARTCHAR 062B
ENCODING 1579
SWIDTH 1040 0
DWIDTH 26 0
BBX 24 17 1 0
BITMAP
001000
003800
001000
004400
00EE00
004400
000003
000003
000003
400003
C00003
C00003
C00003
E00006
78007C
3FFFF8
0FFF80
ENDCHAR
STARTCHAR 062C
ENCODING 1580
SWIDTH 640 0
DWIDTH 16 0
BBX 14 20 1 -10
BITMAP
FE00
FFFC
01FC
0700
1C00
3800
7000
6000
E040
C0E0
C040
C000
C000
C000
E000
6000
7000
3C0C
1FFC
07F0
ENDCHAR
STARTCHAR 062D
ENCODING 1581
SWIDTH 640 0
DWIDTH 16 0
BBX 14 20 1 -10
BITMAP
FE00
FFFC
01FC
0700
1C00
3800
7000
6000
E000
C000
C000
C000
C000
C000
E000
6000
7000
3C0C
1FFC
07F0
ENDCHAR
STARTCHAR 062E
ENCODING 1582
SWIDTH 640 0
DWIDTH 16 0
BBX 14 25 1 -10
BITMAP
0100
0380
0100
0000
0000
FE00
FFFC
01FC
0700
1C00
3800
7000
6000
E000
C000
C000
C000
C000
C000
E000
6000
7000
3C0C
1FFC
07F0
ENDCHAR
STARTCHAR 062F
ENCODING 1583
SWIDTH 520 0
DWIDTH 13 0
BBX 11 14 1 0
BITMAP
0600
0F00
0780
0380
01C0
00C0
00E0
00E0
0060
0060
0060
80E0
FFC0
7F00
ENDCHAR
STARTCHAR 0630
ENCODING 1584
SWIDTH 520 0
DWIDTH 13 0
BBX 11 19 1 0
BITMAP
0400
0E00
0400
0000
0000
0600
0F00
0780
0380
01C0
00C0
00E0
00E0
0060
0060
0060
80E0
FFC0
7F00
ENDCHAR
STARTCHAR 0631
ENCODING 1585
SWIDTH 440 0
DWIDTH 11 0
BBX 11 19 -1 -10
BITMAP
0700
0380
0180
01C0
00C0
00E0
00E0
0060
0060
00C0
00C0
0180
0380
0700
0E00
1C00
3800
7000
E000
ENDCHAR
STARTCHAR 0632
ENCODING 1586
SWIDTH 440 0
DWIDTH 11 0
BBX 11 24 -1 -10
BITMAP
0400
0E00
0400
0000
0000
0700
0380
0180
01C0
00C0
00E0
00E0
0060
0060
00C0
00C0
0180
0380
0700
0E00
1C00
3800
7000
E000
ENDCHAR
STARTCHAR 0633
ENCODING 1587
SWIDTH 1520 0
DWIDTH 38 0
BBX 36 19 1 -8
BITMAP
0000000060
0000000070
0000000030
0000C03030
0000603030
0000603030
0000703030
4000303030
C00038F8E0
C0003FDFC0
C0003F8F80
C000300000
C000300000
C000200000
E000600000
7001C00000
7C07800000
1FFE000000
07F8000000
ENDCHAR
STARTCHAR 0634
ENCODING 1588
SWIDTH 1520 0
DWIDTH 38 0
BBX 36 25 1 -8
BITMAP
0000001000
0000003800
0000001000
0000004400
000000EE00
0000004400
0000000060
0000000070
0000000030
0000C03030
0000603030
0000603030
0000703030
4000303030
C00038F8E0
C0003FDFC0
C0003F8F80
C000300000
C000300000
C000200000
E000600000
7001C00000
7C07800000
1FFE000000
07F8000000
ENDCHAR
STARTCHAR 0635
ENCODING 1589
SWIDTH 1600 0
DWIDTH 40 0
BBX 38 19 1 -8
BITMAP
00000000F0
00000003F8
0000000718
0000C00C1C
000060180C
000060300C
000070600C
400030C018
C0003F80F8
C0003FFFE0
C00033FE00
C000300000
C000300000
C000200000
E000600000
7001C00000
7C07800000
1FFE000000
07F8000000
ENDCHAR
STARTCHAR 0636
ENCODING 1590
SWIDTH 1600 0
DWIDTH 40 0
BBX 38 25 1 -8
BITMAP
0000000020
0000000070
0000000020
0000000000
0000000000
0000000000
00000000F0
00000003F8
0000000718
0000C00C1C
000060180C
000060300C
000070600C
400030C018
C0003F80F8
C0003FFFE0
C00033FE00
C000300000
C000300000
C000200000
E000600000
7001C00000
7C07800000
1FFE000000
07F8000000
ENDCHAR
STARTCHAR 0637
ENCODING 1591
SWIDTH 800 0
DWIDTH 20 0
BBX 19 20 0 0
BITMAP
030000
030000
030000
030000
030000
030000
030000
030000
030000
030780
031FC0
0378C0
02E0E0
078060
070060
060060
0C00C0
180FC0
FFFF00
FFF000
ENDCHAR
STARTCHAR 0638
ENCODING 1592
SWIDTH 800 0
DWIDTH 20 0
BBX 19 20 0 0
BITMAP
030000
030000
030000
030200
030700
030200
030000
030000
030000
030780
031FC0
0378C0
02E0E0
078060
070060
060060
0C00C0
180FC0
FFFF00
FFF000
ENDCHAR
STARTCHAR 0639
ENCODING 1593
SWIDTH 640 0
DWIDTH 16 0
BBX 13 23 2 -10
BITMAP
07E0
1FE0
3800
3000
3000
3800
1C00
1E00
07E0
0FE0
1C00
3000
6000
C000
C000
C000
C000
C000
E000
7000
3808
1FF8
07E0
ENDCHAR
STARTCHAR 063A
ENCODING 1594
SWIDTH 640 0
DWIDTH 16 0
BBX 13 29 2 -10
BITMAP
0080
01C0
0080
0000
0000
0000
07E0
1FE0
3800
3000
3000
3800
1C00
1E00
07E0
0FE0
1C00
3000
6000
C000
C000
C000
C000
C000
E000
7000
3808
1FF8
07E0
ENDCHAR
STARTCHAR 0640
ENCODING 1600
SWIDTH 440 0
DWIDTH 11 0
BBX 11 2 0 0
BITMAP
FFE0
FFE0
ENDCHAR
STARTCHAR 0641
ENCODING 1601
SWIDTH 1240 0
DWIDTH 31 0
BBX 29 21 1 -1
BITMAP
00000040
000000E0
00000040
00000000
00000000
00000000
000000E0
000001F0
00000330
00000318
00000618
00000618
40000718
C00007F8
C00003F8
C0000010
C0000030
E00001E0
78001FC0
3FFFFF00
0FFFC000
ENDCHAR
STARTCHAR 0642
ENCODING 1602
SWIDTH 880 0
DWIDTH 22 0
BBX 21 25 1 -10
BITMAP
000210
000738
000210
000000
000000
000000
0001C0
0003E0
000660
000630
000C30
000C30
000E30
400FF0
4007F0
C00030
C00030
C00020
C00060
C000C0
E001C0
600380
780F00
3FFC00
0FF000
ENDCHAR
STARTCHAR 0643
ENCODING 1603
SWIDTH 1160 0
DWIDTH 29 0
BBX 25 20 1 0
BITMAP
00000180
00000180
00000180
00000180
00060180
00180180
00200180
00380180
000E0180
00020180
000C0180
00380180
C0000180
C0000180
C0000180
C0000180
E0000300
78007E00
3FFFF800
0FFF0000
ENDCHAR
STARTCHAR 0644
ENCODING 1604
SWIDTH 960 0
DWIDTH 24 0
BBX 20 28 1 -8
BITMAP
000030
000030
000030
000030
000030
000030
000030
000030
000030
000030
000030
000030
000030
000030
000030
000030
000030
C00030
C00030
C00030
C00030
C00030
C00020
C00060
6000C0
780780
3FFF00
0FF800
ENDCHAR
STARTCHAR 0645
ENCODING 1605
SWIDTH 560 0
DWIDTH 14 0
BBX 11 21 2 -10
BITMAP
1C00
3F00
3380
3180
31C0
30E0
3FE0
7FE0
6020
C000
C000
C000
C000
C000
C000
C000
C000
C000
C000
C000
C000
ENDCHAR
STARTCHAR 0646
ENCODING 1606
SWIDTH 880 0
DWIDTH 22 0
BBX 20 20 1 -8
BITMAP
001000
003800
001000
000000
000000
000000
000030
000030
400030
400030
C00030
C00030
C00030
C00020
C00020
E00040
7001C0
7C0780
3FFE00
07F000
ENDCHAR
STARTCHAR 0647
ENCODING 1607
SWIDTH 560 0
DWIDTH 14 0
BBX 12 11 1 0
BITMAP
0600
0F80
1BC0
30E0
6070
C030
C030
C030
E0E0
7FC0
3F00
ENDCHAR
STARTCHAR 0648
ENCODING 1608
SWIDTH 480 0
DWIDTH 12 0
BBX 11 19 0 -10
BITMAP
0780
0FC0
1CC0
18E0
3060
3060
3860
3FE0
0FE0
00C0
00C0
0180
0380
0700
0E00
1C00
3800
7000
E000
ENDCHAR
STARTCHAR 0649
ENCODING 1609
SWIDTH 960 0
DWIDTH 24 0
BBX 22 19 1 -5
BITMAP
00003C
0000FC
0001C0
000300
000300
200600
600600
400600
400600
C007FC
C003FC
C0000C
C0001C
C00018
E00070
6000E0
7807C0
3FFF00
07F800
ENDCHAR
STARTCHAR 064A
ENCODING 1610
SWIDTH 960 0
DWIDTH 24 0
BBX 22 24 1 -10
BITMAP
00003C
0000FC
0001C0
000300
000300
200600
600600
400600
400600
C007FC
C003FC
C0000C
C0001C
C00018
E00070
6000E0
7807C0
3FFF00
0FF800
000000
000000
021000
073800
021000
ENDCHAR
STARTCHAR 064B
ENCODING 1611
SWIDTH 0 0
DWIDTH 0 0
BBX 9 6 4 14
BITMAP
0180
3E00
C000
0180
3E00
C000
ENDCHAR
STARTCHAR 064C
ENCODING 1612
SWIDTH 0 0
DWIDTH 0 0
BBX 11 7 4 14
BITMAP
0180
0240
E440
1440
1240
21E0
7E00
ENDCHAR
STARTCHAR 064D
ENCODING 1613
SWIDTH 0 0
DWIDTH 0 0
BBX 9 6 4 -10
BITMAP
0180
3E00
C000
0180
3E00
C000
ENDCHAR
STARTCHAR 064E
ENCODING 1614
SWIDTH 0 0
DWIDTH 0 0
BBX 9 3 4 14
BITMAP
0180
3E00
C000
ENDCHAR
STARTCHAR 064F
ENCODING 1615
SWIDTH 0 0
DWIDTH 0 0
BBX 9 7 4 14
BITMAP
0C00
1200
2200
2200
1C00
0F80
F000
ENDCHAR
STARTCHAR 0650
ENCODING 1616
SWIDTH 0 0
DWIDTH 0 0
BBX 9 3 4 -10
BITMAP
0180
3E00
C000
ENDCHAR
STARTCHAR 0651
ENCODING 1617
SWIDTH 0 0
DWIDTH 0 0
BBX 9 7 4 14
BITMAP
0080
8880
8880
8880
9880
9700
6000
ENDCHAR
STARTCHAR 0652
ENCODING 1618
SWIDTH 0 0
DWIDTH 0 0
BBX 7 7 4 14
BITMAP
10
28
44
82
82
84
78
ENDCHAR
STARTCHAR 0660
ENCODING 1632
SWIDTH 640 0
DWIDTH 16 0
BBX 5 5 5 6
BITMAP
20
70
F8
70
20
ENDCHAR
STARTCHAR 0661
ENCODING 1633
SWIDTH 640 0
DWIDTH 16 0
BBX 2 18 7 0
BITMAP
C0
C0
C0
C0
C0
C0
C0
C0
C0
C0
C0
C0
C0
C0
C0
C0
C0
C0
ENDCHAR
STARTCHAR 0662
ENCODING 1634
SWIDTH 640 0
DWIDTH 16 0
BBX 10 18 4 0
BITMAP
C040
C040
C040
E0C0
F180
FF80
DE00
C000
C000
C000
C000
C000
C000
C000
C000
C000
C000
C000
ENDCHAR
STARTCHAR 0663
ENCODING 1635
SWIDTH 640 0
DWIDTH 16 0
BBX 13 18 2 0
BITMAP
C118
C118
C198
E2F0
FEE0
FC00
C000
C000
C000
C000
C000
C000
C000
C000
C000
C000
C000
C000
ENDCHAR
STARTCHAR 0664
ENCODING 1636
SWIDTH 640 0
DWIDTH 16 0
BBX 9 18 3 0
BITMAP
0300
1F00
3C00
7000
6000
7000
3C00
0F00
1E00
3800
6000
C000
C000
E000
7000
3E00
0F80
0180
ENDCHAR
STARTCHAR 0665
ENCODING 1637
SWIDTH 640 0
DWIDTH 16 0
BBX 12 13 2 0
BITMAP
0200
0F80
1DC0
30C0
70E0
6070
C030
C030
C030
C060
E0E0
7FC0
1F00
ENDCHAR
STARTCHAR 0666
ENCODING 1638
SWIDTH 640 0
DWIDTH 16 0
BBX 9 18 2 0
BITMAP
8080
FF80
7F80
0180
0180
0180
0180
0180
0180
0180
0180
0180
0180
0180
0180
0180
0180
0180
ENDCHAR
STARTCHAR 0667
ENCODING 1639
SWIDTH 640 0
DWIDTH 16 0
BBX 16 18 0 0
BITMAP
C003
6007
6006
3006
300C
180C
1818
0C18
0C30
0630
0630
0360
0360
01C0
01C0
01C0
0080
0080
ENDCHAR
STARTCHAR 0668
ENCODING 1640
SWIDTH 640 0
DWIDTH 16 0
BBX 16 18 0 0
BITMAP
0100
0100
0300
0380
0380
06C0
06C0
0C60
0C60
1C30
1830
1818
3018
300C
600C
6006
C003
C003
ENDCHAR
STARTCHAR 0669
ENCODING 1641
SWIDTH 640 0
DWIDTH 16 0
BBX 8 18 3 0
BITMAP
1C
3E
67
E3
C3
C3
E3
7F
1F
03
03
03
03
03
03
03
03
03
ENDCHAR
STARTCHAR 066A
ENCODING 1642
SWIDTH 680 0
DWIDTH 17 0
BBX 15 18 1 0
BITMAP
0002
0004
0008
1010
3810
7C20
3840
1080
0100
0100
0210
0438
087C
1038
1010
2000
4000
8000
ENDCHAR
STARTCHAR 066B
ENCODING 1643
SWIDTH 320 0
DWIDTH 8 0
BBX 3 7 2 -4
BITMAP
E0
E0
E0
60
60
40
80
ENDCHAR
STARTCHAR 066C
ENCODING 1644
SWIDTH 320 0
DWIDTH 8 0
BBX 3 7 2 15
BITMAP
20
40
C0
C0
E0
E0
E0
ENDCHAR
STARTCHAR 066D
ENCODING 1645
SWIDTH 480 0
DWIDTH 12 0
BBX 7 9 2 2
BITMAP
10
10
10
FE
7C
38
38
6C
44
ENDCHAR
STARTCHAR 0670
ENCODING 1648
SWIDTH 0 0
DWIDTH 0 0
BBX 1 6 4 14
BITMAP
80
80
80
80
80
80
ENDCHAR
STARTCHAR 0671
ENCODING 1649
SWIDTH 320 0
DWIDTH 8 0
BBX 8 28 0 0
BITMAP
06
0D
09
09
C6
24
18
00
18
18
18
18
18
18
18
18
18
18
18
18
18
18
18
18
18
18
18
18
ENDCHAR
STARTCHAR 0672
ENCODING 1650
SWIDTH 320 0
DWIDTH 8 0
BBX 8 29 0 0
BITMAP
03
04
08
0C
C3
22
1C
00
00
18
18
18
18
18
18
18
18
18
18
18
18
18
18
18
18
18
18
18
18
ENDCHAR
STARTCHAR 0673
ENCODING 1651
SWIDTH 320 0
DWIDTH 8 0
BBX 8 28 0 -8
BITMAP
18
18
18
18
18
18
18
18
18
18
18
18
18
18
18
18
18
18
18
18
00
03
04
08
0C
C3
22
1C
ENDCHAR
STARTCHAR 0674
ENCODING 1652
SWIDTH 0 0
DWIDTH 0 0
BBX 6 8 0 18
BITMAP
0C
30
40
40
30
1C
70
80
ENDCHAR
STARTCHAR 0675
ENCODING 1653
SWIDTH 320 0
DWIDTH 8 0
BBX 9 26 3 0
BITMAP
0180
0600
0800
0800
0600
0380
CE00
D000
C000
C000
C000
C000
C000
C000
C000
C000
C000
C000
C000
C000
C000
C000
C000
C000
C000
C000
ENDCHAR
STARTCHAR 0676
ENCODING 1654
SWIDTH 480 0
DWIDTH 12 0
BBX 14 28 0 -10
BITMAP
000C
0030
0040
0040
0030
001C
0070
0080
0000
0780
0FC0
1CC0
18E0
3060
3060
3860
3FE0
0FE0
00C0
00C0
0180
0380
0700
0E00
1C00
3800
7000
E000
ENDCHAR
STARTCHAR 0677
ENCODING 1655
SWIDTH 480 0
DWIDTH 12 0
BBX 12 29 0 -10
BITMAP
3830
64C0
4500
4580
38C0
1E30
E0E0
0300
0000
0000
0780
0FC0
1CC0
18E0
3060
3060
3860
3FE0
0FE0
00C0
00C0
0180
0380
0700
0E00
1C00
3800
7000
E000
ENDCHAR
STARTCHAR 0678
ENCODING 1656
SWIDTH 960 0
DWIDTH 24 0
BBX 29 28 1 -5
BITMAP
00000018
00000060
00000080
00000080
00000060
00000038
000000E0
00000100
00000000
00003C00
0000FC00
0001C000
00030000
00030000
20060000
60060000
40060000
40060000
C007FC00
C003FC00
C0000C00
C0001C00
C0001800
E0007000
6000E000
7807C000
3FFF0000
07F80000
ENDCHAR
STARTCHAR 0679
ENCODING 1657
SWIDTH 1040 0
DWIDTH 26 0
BBX 24 17 1 0
BITMAP
002000
002000
002E00
003200
002200
00FC00
000003
000003
000003
400003
C00003
C00003
C00003
E00006
78007C
3FFFF8
0FFF80
ENDCHAR
STARTCHAR 067A
ENCODING 1658
SWIDTH 1040 0
DWIDTH 26 0
BBX 24 18 1 0
BITMAP
002000
007000
002000
000000
000000
002000
007000
002003
000003
000003
400003
C00003
C00003
C00003
E00006
78007C
3FFFF8
0FFF80
ENDCHAR
STARTCHAR 067B
ENCODING 1659
SWIDTH 1040 0
DWIDTH 26 0
BBX 24 21 1 -10
BITMAP
000003
000003
000003
400003
C00003
C00003
C00003
E00006
78007C
3FFFF8
0FFF80
000000
000000
004000
00E000
004000
000000
000000
004000
00E000
004000
ENDCHAR
STARTCHAR 067C
ENCODING 1660
SWIDTH 1040 0
DWIDTH 26 0
BBX 24 18 1 -5
BITMAP
008800
01DC00
008803
000003
000003
400003
C00003
C00003
C00003
E00006
78007C
3FFFF8
0FFF80
004600
008200
008200
008400
007800
ENDCHAR
STARTCHAR 067D
ENCODING 1661
SWIDTH 1040 0
DWIDTH 26 0
BBX 24 17 1 0
BITMAP
004400
00EE00
004400
001000
003800
001000
000003
000003
000003
400003
C00003
C00003
C00003
E00006
78007C
3FFFF8
0FFF80
ENDCHAR
STARTCHAR 067E
ENCODING 1662
SWIDTH 1040 0
DWIDTH 26 0
BBX 24 19 1 -8
BITMAP
000003
000003
000003
400003
C00003
C00003
C00003
E00006
78007C
3FFFF8
0FFF80
000000
000000
011000
03B800
011000
004000
00E000
004000
ENDCHAR
STARTCHAR 067F
ENCODING 1663
SWIDTH 1040 0
DWIDTH 26 0
BBX 24 16 1 0
BITMAP
021000
073800
021000
004200
00E700
004203
000003
000003
400003
C00003
C00003
C00003
E00006
78007C
3FFFF8
0FFF80
ENDCHAR
STARTCHAR 0680
ENCODING 1664
SWIDTH 1040 0
DWIDTH 26 0
BBX 24 20 1 -9
BITMAP
000003
000003
000003
400003
C00003
C00003
C00003
E00006
78007C
3FFFF8
0FFF80
000000
000000
000000
008400
01CE00
008400
001080
0039C0
001080
ENDCHAR
STARTCHAR 0681
ENCODING 1665
SWIDTH 640 0
DWIDTH 16 0
BBX 14 29 1 -10
BITMAP
0060
0180
0200
0200
0180
00E0
0380
0400
0000
FE00
FFFC
01FC
0700
1C00
3800
7000
6000
E000
C000
C000
C000
C000
C000
E000
6000
7000
3C0C
1FFC
07F0
ENDCHAR
STARTCHAR 0682
ENCODING 1666
SWIDTH 640 0
DWIDTH 16 0
BBX 14 30 1 -10
BITMAP
0100
0380
0100
0000
0000
0100
0380
0100
0000
0000
FE00
FFFC
01FC
0700
1C00
3800
7000
6000
E000
C000
C000
C000
C000
C000
E000
6000
7000
3C0C
1FFC
07F0
ENDCHAR
STARTCHAR 0683
ENCODING 1667
SWIDTH 640 0
DWIDTH 16 0
BBX 14 20 1 -10
BITMAP
FE00
FFFC
01FC
0700
1C00
3800
7000
6000
E210
C738
C210
C000
C000
C000
E000
6000
7000
3C0C
1FFC
07F0
ENDCHAR
STARTCHAR 0684
ENCODING 1668
SWIDTH 640 0
DWIDTH 16 0
BBX 14 20 1 -10
BITMAP
FE00
FFFC
01FC
0700
1C00
3800
7080
61C0
E080
C000
C000
C080
C1C0
C080
E000
6000
7000
3C0C
1FFC
07F0
ENDCHAR
STARTCHAR 0685
ENCODING 1669
SWIDTH 640 0
DWIDTH 16 0
BBX 14 28 1 -10
BITMAP
0100
0380
0100
0440
0EE0
0440
0000
0000
FE00
FFFC
01FC
0700
1C00
3800
7000
6000
E000
C000
C000
C000
C000
C000
E000
6000
7000
3C0C
1FFC
07F0
ENDCHAR
STARTCHAR 0686
ENCODING 1670
SWIDTH 640 0
DWIDTH 16 0
BBX 14 20 1 -10
BITMAP
FE00
FFFC
01FC
0700
1C00
3800
7000
6110
E3B8
C110
C040
C0E0
C040
C000
E000
6000
7000
3C0C
1FFC
07F0
ENDCHAR
STARTCHAR 0687
ENCODING 1671
SWIDTH 640 0
DWIDTH 16 0
BBX 15 20 1 -10
BITMAP
FE00
FFFC
01FC
0700
1C00
3800
7000
6000
E420
CE70
C420
C084
C1CE
C084
E000
6000
7000
3C0C
1FFC
07F0
ENDCHAR
STARTCHAR 0688
ENCODING 1672
SWIDTH 520 0
DWIDTH 13 0
BBX 11 22 1 0
BITMAP
0400
0400
05C0
0640
0440
1F80
0000
0000
0600
0F00
0780
0380
01C0
00C0
00E0
00E0
0060
0060
0060
80E0
FFC0
7F00
ENDCHAR
STARTCHAR 0689
ENCODING 1673
SWIDTH 520 0
DWIDTH 13 0
BBX 11 19 1 -5
BITMAP
0600
0F00
0780
0380
01C0
00C0
00E0
00E0
0060
0060
0060
80E0
FFC0
7F00
1180
2080
2080
2100
1E00
ENDCHAR
STARTCHAR 068A
ENCODING 1674
SWIDTH 520 0
DWIDTH 13 0
BBX 11 19 1 -5
BITMAP
0600
0F00
0780
0380
01C0
00C0
00E0
00E0
0060
0060
0060
80E0
FFC0
7F00
0000
0000
0800
1C00
0800
ENDCHAR
STARTCHAR 068B
ENCODING 1675
SWIDTH 520 0
DWIDTH 13 0
BBX 11 27 1 -5
BITMAP
0400
0400
05C0
0640
0440
1F80
0000
0000
0600
0F00
0780
0380
01C0
00C0
00E0
00E0
0060
0060
0060
80E0
FFC0
7F00
0000
0000
0800
1C00
0800
ENDCHAR
STARTCHAR 068C
ENCODING 1676
SWIDTH 520 0
DWIDTH 13 0
BBX 11 19 1 0
BITMAP
1080
39C0
1080
0000
0000
0600
0F00
0780
0380
01C0
00C0
00E0
00E0
0060
0060
0060
80E0
FFC0
7F00
ENDCHAR
STARTCHAR 068D
ENCODING 1677
SWIDTH 520 0
DWIDTH 13 0
BBX 11 19 1 -5
BITMAP
0600
0F00
0780
0380
01C0
00C0
00E0
00E0
0060
0060
0060
80E0
FFC0
7F00
0000
0000
2100
7380
2100
ENDCHAR
STARTCHAR 068E
ENCODING 1678
SWIDTH 520 0
DWIDTH 13 0
BBX 11 22 1 0
BITMAP
0200
0700
0200
0880
1DC0
0880
0000
0000
0600
0F00
0780
0380
01C0
00C0
00E0
00E0
0060
0060
0060
80E0
FFC0
7F00
ENDCHAR
STARTCHAR 068F
ENCODING 1679
SWIDTH 520 0
DWIDTH 13 0
BBX 11 23 1 0
BITMAP
0880
1DC0
0880
0200
0700
0200
0000
0000
0000
0600
0F00
0780
0380
01C0
00C0
00E0
00E0
0060
0060
0060
80E0
FFC0
7F00
ENDCHAR
STARTCHAR 0690
ENCODING 1680
SWIDTH 520 0
DWIDTH 13 0
BBX 11 22 1 0
BITMAP
4200
E700
4200
0840
1CE0
0840
0000
0000
0600
0F00
0780
0380
01C0
00C0
00E0
00E0
0060
0060
0060
80E0
FFC0
7F00
ENDCHAR
STARTCHAR 0691
ENCODING 1681
SWIDTH 440 0
DWIDTH 11 0
BBX 11 27 -1 -10
BITMAP
0800
0800
0B80
0C80
0880
3F00
0000
0000
0700
0380
0180
01C0
00C0
00E0
00E0
0060
0060
00C0
00C0
0180
0380
0700
0E00
1C00
3800
7000
E000
ENDCHAR
STARTCHAR 0692
ENCODING 1682
SWIDTH 440 0
DWIDTH 11 0
BBX 11 28 -1 -10
BITMAP
3080
1900
0A00
0E00
0C00
0400
0000
0000
0000
0700
0380
0180
01C0
00C0
00E0
00E0
0060
0060
00C0
00C0
0180
0380
0700
0E00
1C00
3800
7000
E000
ENDCHAR
STARTCHAR 0693
ENCODING 1683
SWIDTH 440 0
DWIDTH 11 0
BBX 12 19 -1 -10
BITMAP
0300
0180
01C0
00C0
00C0
00E0
0060
0060
0060
00C0
00C0
01C0
0380
07E0
0E30
1E10
3A30
7220
E1C0
ENDCHAR
STARTCHAR 0694
ENCODING 1684
SWIDTH 440 0
DWIDTH 11 0
BBX 11 19 -1 -10
BITMAP
0700
0380
0180
01C0
00C0
00E0
00E0
0060
0060
00C0
00C0
0180
0380
0700
0E00
1C00
3840
70E0
E040
ENDCHAR
STARTCHAR 0695
ENCODING 1685
SWIDTH 440 0
DWIDTH 11 0
BBX 11 25 -1 -16
BITMAP
0700
0380
0180
01C0
00C0
00E0
00E0
0060
0060
00C0
00C0
0180
0380
0700
0E00
1C00
3800
7000
E000
0C20
0640
0280
0380
0300
0100
ENDCHAR
STARTCHAR 0696
ENCODING 1686
SWIDTH 440 0
DWIDTH 11 0
BBX 11 19 -1 -10
BITMAP
0700
0380
0180
01C0
00C0
00E0
10E0
3860
1060
00C0
00C0
0180
0380
0700
0E00
1C00
3840
70E0
E040
ENDCHAR
STARTCHAR 0697
ENCODING 1687
SWIDTH 440 0
DWIDTH 11 0
BBX 11 24 -1 -10
BITMAP
2100
7380
2100
0000
0000
0700
0380
0180
01C0
00C0
00E0
00E0
0060
0060
00C0
00C0
0180
0380
0700
0E00
1C00
3800
7000
E000
ENDCHAR
STARTCHAR 0698
ENCODING 1688
SWIDTH 440 0
DWIDTH 11 0
BBX 11 27 -1 -10
BITMAP
0200
0700
0200
0880
1DC0
0880
0000
0000
0700
0380
0180
01C0
00C0
00E0
00E0
0060
0060
00C0
00C0
0180
0380
0700
0E00
1C00
3800
7000
E000
ENDCHAR
STARTCHAR 0699
ENCODING 1689
SWIDTH 440 0
DWIDTH 11 0
BBX 12 27 -1 -10
BITMAP
2100
7380
2100
0420
0E70
0420
0000
0000
0700
0380
0180
01C0
00C0
00E0
00E0
0060
0060
00C0
00C0
0180
0380
0700
0E00
1C00
3800
7000
E000
ENDCHAR
STARTCHAR 069A
ENCODING 1690
SWIDTH 1520 0
DWIDTH 38 0
BBX 36 23 1 -8
BITMAP
0000001000
0000003800
0000001000
0000000000
0000000060
0000000070
0000000030
0000C03030
0000603030
0000603030
0000703030
4000303030
C00038F8E0
C0003FDFC0
C0003F8F80
C000300000
C000300000
C000200200
E000600700
7001C00200
7C07800000
1FFE000000
07F8000000
ENDCHAR
STARTCHAR 069B
ENCODING 1691
SWIDTH 1520 0
DWIDTH 38 0
BBX 36 19 1 -8
BITMAP
0000000060
0000000070
0000000030
0000C03030
0000603030
0000603030
0000703030
4000303030
C00038F8E0
C0003FDFC0
C0003F8F80
C000300000
C000300000
C000200880
E000601DC0
7001C00880
7C07800200
1FFE000700
07F8000200
ENDCHAR
STARTCHAR 069C
ENCODING 1692
SWIDTH 1520 0
DWIDTH 38 0
BBX 36 25 1 -8
BITMAP
0000001000
0000003800
0000001000
0000004400
000000EE00
0000004400
0000000060
0000000070
0000000030
0000C03030
0000603030
0000603030
0000703030
4000303030
C00038F8E0
C0003FDFC0
C0003F8F80
C000300000
C000300000
C000200880
E000601DC0
7001C00880
7C07800200
1FFE000700
07F8000200
ENDCHAR
STARTCHAR 069D
ENCODING 1693
SWIDTH 1600 0
DWIDTH 40 0
BBX 38 19 1 -8
BITMAP
00000000F0
00000003F8
0000000718
0000C00C1C
000060180C
000060300C
000070600C
400030C018
C0003F80F8
C0003FFFE0
C00033FE00
C000300000
C000300000
C000208400
E00061CE00
7001C08400
7C07800000
1FFE000000
07F8000000
ENDCHAR
STARTCHAR 069E
ENCODING 1694
SWIDTH 1600 0
DWIDTH 40 0
BBX 38 28 1 -8
BITMAP
0000000020
0000000070
0000000020
0000000088
00000001DC
0000000088
0000000000
0000000000
0000000000
00000000F0
00000003F8
0000000718
0000C00C1C
000060180C
000060300C
000070600C
400030C018
C0003F80F8
C0003FFFE0
C00033FE00
C000300000
C000300000
C000200000
E000600000
7001C00000
7C07800000
1FFE000000
07F8000000
ENDCHAR
STARTCHAR 069F
ENCODING 1695
SWIDTH 800 0
DWIDTH 20 0
BBX 19 20 0 0
BITMAP
030100
030380
030100
030440
030EE0
030440
030000
030000
030000
030780
031FC0
0378C0
02E0E0
078060
070060
060060
0C00C0
180FC0
FFFF00
FFF000
ENDCHAR
STARTCHAR 06A0
ENCODING 1696
SWIDTH 640 0
DWIDTH 16 0
BBX 13 32 2 -10
BITMAP
0080
01C0
0080
0220
0770
0220
0000
0000
0000
07E0
1FE0
3800
3000
3000
3800
1C00
1E00
07E0
0FE0
1C00
3000
6000
C000
C000
C000
C000
C000
E000
7000
3808
1FF8
07E0
ENDCHAR
STARTCHAR 06A1
ENCODING 1697
SWIDTH 1240 0
DWIDTH 31 0
BBX 29 15 1 -1
BITMAP
000000E0
000001F0
00000330
00000318
00000618
00000618
40000718
C00007F8
C00003F8
C0000010
C0000030
E00001E0
78001FC0
3FFFFF00
0FFFC000
ENDCHAR
STARTCHAR 06A2
ENCODING 1698
SWIDTH 1240 0
DWIDTH 31 0
BBX 29 19 1 -5
BITMAP
000000E0
000001F0
00000330
00000318
00000618
00000618
40000718
C00007F8
C00003F8
C0000010
C0000030
E00001E0
78001FC0
3FFFFF00
0FFFC000
00000000
00000040
000000E0
00000040
ENDCHAR
STARTCHAR 06A3
ENCODING 1699
SWIDTH 1240 0
DWIDTH 31 0
BBX 29 25 1 -5
BITMAP
00000040
000000E0
00000040
00000000
00000000
00000000
000000E0
000001F0
00000330
00000318
00000618
00000618
40000718
C00007F8
C00003F8
C0000010
C0000030
E00001E0
78001FC0
3FFFFF00
0FFFC000
00000000
00002000
00007000
00002000
ENDCHAR
STARTCHAR 06A4
ENCODING 1700
SWIDTH 1240 0
DWIDTH 31 0
BBX 29 24 1 -1
BITMAP
00000040
000000E0
00000040
00000110
000003B8
00000110
00000000
00000000
00000000
000000E0
000001F0
00000330
00000318
00000618
00000618
40000718
C00007F8
C00003F8
C0000010
C0000030
E00001E0
78001FC0
3FFFFF00
0FFFC000
ENDCHAR
STARTCHAR 06A5
ENCODING 1701
SWIDTH 1240 0
DWIDTH 31 0
BBX 29 22 1 -8
BITMAP
000000E0
000001F0
00000330
00000318
00000618
00000618
40000718
C00007F8
C00003F8
C0000010
C0000030
E00001E0
78001FC0
3FFFFF00
0FFFC000
00000000
00000110
000003B8
00000110
00000040
000000E0
00000040
ENDCHAR
STARTCHAR 06A6
ENCODING 1702
SWIDTH 1240 0
DWIDTH 31 0
BBX 30 23 1 -1
BITMAP
00000840
00001CE0
00000840
00000108
0000039C
00000108
00000000
00000000
000000E0
000001F0
00000330
00000318
00000618
00000618
40000718
C00007F8
C00003F8
C0000010
C0000030
E00001E0
78001FC0
3FFFFF00
0FFFC000
ENDCHAR
STARTCHAR 06A7
ENCODING 1703
SWIDTH 880 0
DWIDTH 22 0
BBX 20 25 1 -10
BITMAP
000080
0001C0
000080
000000
000000
000000
0001C0
0003E0
000660
000630
000C30
000C30
000E30
400FF0
4007F0
C00030
C00030
C00020
C00060
C000C0
E001C0
600380
780F00
3FFC00
0FF000
ENDCHAR
STARTCHAR 06A8
ENCODING 1704
SWIDTH 880 0
DWIDTH 22 0
BBX 20 28 1 -10
BITMAP
000080
0001C0
000080
000220
000770
000220
000000
000000
000000
0001C0
0003E0
000660
000630
000C30
000C30
000E30
400FF0
4007F0
C00030
C00030
C00020
C00060
C000C0
E001C0
600380
780F00
3FFC00
0FF000
ENDCHAR
STARTCHAR 06A9
ENCODING 1705
SWIDTH 1080 0
DWIDTH 27 0
BBX 26 20 1 0
BITMAP
00000040
000003C0
00000F80
00003E00
0001F000
0003C000
00038000
0001E000
0000F000
00003800
00001C00
00000E00
40000600
C0000700
C0000300
C0000300
E0000300
78003E00
3FFFFC00
0FFFC000
ENDCHAR
STARTCHAR 06AA
ENCODING 1706
SWIDTH 920 0
DWIDTH 23 0
BBX 22 16 0 -6
BITMAP
00C000
03C000
070000
0C0000
180000
300000
200000
300000
3FFFE0
0FFFF8
00001C
00000C
000004
E0001C
FFFFF8
1FFFC0
ENDCHAR
STARTCHAR 06AB
ENCODING 1707
SWIDTH 1080 0
DWIDTH 27 0
BBX 26 20 1 0
BITMAP
00000040
000003C0
00000F80
00003F80
0001FCC0
0003C840
00038840
0001E880
0000F700
00003800
00001C00
00000E00
40000600
C0000700
C0000300
C0000300
E0000300
78003E00
3FFFFC00
0FFFC000
ENDCHAR
STARTCHAR 06AC
ENCODING 1708
SWIDTH 1160 0
DWIDTH 29 0
BBX 25 24 1 0
BITMAP
00000800
00001C00
00000800
00000000
00000180
00000180
00000180
00000180
00060180
00180180
00200180
00380180
000E0180
00020180
000C0180
00380180
C0000180
C0000180
C0000180
C0000180
E0000300
78007E00
3FFFF800
0FFF0000
ENDCHAR
STARTCHAR 06AD
ENCODING 1709
SWIDTH 1160 0
DWIDTH 29 0
BBX 25 24 1 0
BITMAP
00002000
00007000
00002000
00008800
0001DD80
00008980
00000180
00000180
00060180
00180180
00200180
00380180
000E0180
00020180
000C0180
00380180
C0000180
C0000180
C0000180
C0000180
E0000300
78007E00
3FFFF800
0FFF0000
ENDCHAR
STARTCHAR 06AE
ENCODING 1710
SWIDTH 1160 0
DWIDTH 29 0
BBX 25 28 1 -8
BITMAP
00000180
00000180
00000180
00000180
00060180
00180180
00200180
00380180
000E0180
00020180
000C0180
00380180
C0000180
C0000180
C0000180
C0000180
E0000300
78007E00
3FFFF800
0FFF0000
00000000
00000000
02200000
07700000
02200000
00800000
01C00000
00800000
ENDCHAR
STARTCHAR 06AF
ENCODING 1711
SWIDTH 1080 0
DWIDTH 27 0
BBX 26 23 1 0
BITMAP
00000040
000003C0
00000F80
00003E40
0001F3C0
0003CF80
00023E00
0001F000
0003C000
00038000
0001E000
0000F000
00003800
00001C00
00000E00
40000600
C0000700
C0000300
C0000300
E0000300
78003E00
3FFFFC00
0FFFC000
ENDCHAR
STARTCHAR 06B0
ENCODING 1712
SWIDTH 1080 0
DWIDTH 27 0
BBX 26 23 1 0
BITMAP
00000040
000003C0
00000F80
00003E40
0001F3C0
0003CF80
00023F80
0001FCC0
0003C840
00038840
0001E880
0000F700
00003800
00001C00
00000E00
40000600
C0000700
C0000300
C0000300
E0000300
78003E00
3FFFFC00
0FFFC000
ENDCHAR
STARTCHAR 06B1
ENCODING 1713
SWIDTH 1080 0
DWIDTH 27 0
BBX 26 26 1 0
BITMAP
00010800
00039C00
00010800
00000040
000003C0
00000F80
00003E40
0001F3C0
0003CF80
00023E00
0001F000
0003C000
00038000
0001E000
0000F000
00003800
00001C00
00000E00
40000600
C0000700
C0000300
C0000300
E0000300
78003E00
3FFFFC00
0FFFC000
ENDCHAR
STARTCHAR 06B2
ENCODING 1714
SWIDTH 1080 0
DWIDTH 27 0
BBX 26 28 1 -5
BITMAP
00000040
000003C0
00000F80
00003E40
0001F3C0
0003CF80
00023E00
0001F000
0003C000
00038000
0001E000
0000F000
00003800
00001C00
00000E00
40000600
C0000700
C0000300
C0000300
E0000300
78003E00
3FFFFC00
0FFFC000
00000000
00000000
02100000
07380000
02100000
ENDCHAR
STARTCHAR 06B3
ENCODING 1715
SWIDTH 1080 0
DWIDTH 27 0
BBX 26 33 1 -10
BITMAP
00000040
000003C0
00000F80
00003E40
0001F3C0
0003CF80
00023E00
0001F000
0003C000
00038000
0001E000
0000F000
00003800
00001C00
00000E00
40000600
C0000700
C0000300
C0000300
E0000300
78003E00
3FFFFC00
0FFFC000
00000000
00000000
00800000
01C00000
00800000
00000000
00000000
00800000
01C00000
00800000
ENDCHAR
STARTCHAR 06B4
ENCODING 1716
SWIDTH 1080 0
DWIDTH 27 0
BBX 26 29 1 0
BITMAP
00004000
0000E000
00004000
00011000
0003B800
00011000
00000040
000003C0
00000F80
00003E40
0001F3C0
0003CF80
00023E00
0001F000
0003C000
00038000
0001E000
0000F000
00003800
00001C00
00000E00
40000600
C0000700
C0000300
C0000300
E0000300
78003E00
3FFFFC00
0FFFC000
ENDCHAR
STARTCHAR 06B5
ENCODING 1717
SWIDTH 960 0
DWIDTH 24 0
BBX 23 36 1 -8
BITMAP
0000C2
000064
000028
000038
000030
000010
000000
000000
000030
000030
000030
000030
000030
000030
000030
000030
000030
000030
000030
000030
000030
000030
000030
000030
000030
C00030
C00030
C00030
C00030
C00030
C00020
C00060
6000C0
780780
3FFF00
0FF800
ENDCHAR
STARTCHAR 06B6
ENCODING 1718
SWIDTH 960 0
DWIDTH 24 0
BBX 21 34 1 -8
BITMAP
000010
000038
000010
000000
000000
000000
000030
000030
000030
000030
000030
000030
000030
000030
000030
000030
000030
000030
000030
000030
000030
000030
000030
C00030
C00030
C00030
C00030
C00030
C00020
C00060
6000C0
780780
3FFF00
0FF800
ENDCHAR
STARTCHAR 06B7
ENCODING 1719
SWIDTH 960 0
DWIDTH 24 0
BBX 23 37 1 -8
BITMAP
000010
000038
000010
000044
0000EE
000044
000000
000000
000000
000030
000030
000030
000030
000030
000030
000030
000030
000030
000030
000030
000030
000030
000030
000030
000030
000030
C00030
C00030
C00030
C00030
C00030
C00020
C00060
6000C0
780780
3FFF00
0FF800
ENDCHAR
STARTCHAR 06BA
ENCODING 1722
SWIDTH 880 0
DWIDTH 22 0
BBX 20 14 1 -8
BITMAP
000030
000030
400030
400030
C00030
C00030
C00030
C00020
C00020
E00040
7001C0
7C0780
3FFE00
07F000
ENDCHAR
STARTCHAR 06BB
ENCODING 1723
SWIDTH 880 0
DWIDTH 22 0
BBX 20 22 1 -8
BITMAP
002000
002000
002E00
003200
002200
00FC00
000000
000000
000030
000030
400030
400030
C00030
C00030
C00030
C00020
C00020
E00040
7001C0
7C0780
3FFE00
07F000
ENDCHAR
STARTCHAR 06BC
ENCODING 1724
SWIDTH 880 0
DWIDTH 22 0
BBX 20 25 1 -13
BITMAP
001000
003800
001000
000000
000000
000000
000030
000030
400030
400030
C00030
C00030
C00030
C00020
C00020
E00060
7001C0
7C0780
3FFE00
07F800
011800
020800
020800
021000
01E000
ENDCHAR
STARTCHAR 06BD
ENCODING 1725
SWIDTH 880 0
DWIDTH 22 0
BBX 20 23 1 -8
BITMAP
001000
003800
001000
004400
00EE00
004400
000000
000000
000000
000030
000030
400030
400030
C00030
C00030
C00030
C00020
C00020
E00040
7001C0
7C0780
3FFE00
07F000
ENDCHAR
STARTCHAR 06BE
ENCODING 1726
SWIDTH 640 0
DWIDTH 16 0
BBX 18 12 -3 0
BITMAP
03C000
03F800
01FE00
03FF00
071F80
060D80
070DC0
0318C0
03F8C0
03F0C0
0FFF80
FE1F00
ENDCHAR
STARTCHAR 06C0
ENCODING 1728
SWIDTH 560 0
DWIDTH 14 0
BBX 12 21 1 0
BITMAP
0180
0600
0800
0800
0600
0380
0E00
1000
0000
0000
0600
0F80
1BC0
30E0
6070
C030
C030
C030
E0E0
7FC0
3F00
ENDCHAR
STARTCHAR 06C1
ENCODING 1729
SWIDTH 760 0
DWIDTH 19 0
BBX 19 8 0 0
BITMAP
007800
00FC00
01CE00
038700
070300
8E0380
FC01E0
7000E0
ENDCHAR
STARTCHAR 06C2
ENCODING 1730
SWIDTH 760 0
DWIDTH 19 0
BBX 19 18 0 0
BITMAP
000C00
003000
004000
004000
003000
001C00
007000
008000
000000
000000
007800
00FC00
01CE00
038700
070300
8E0380
FC01E0
7000E0
ENDCHAR
STARTCHAR 06C3
ENCODING 1731
SWIDTH 760 0
DWIDTH 19 0
BBX 19 14 0 0
BITMAP
004200
00E700
004200
000000
000000
000000
007800
00FC00
01CE00
038700
070300
8E0380
FC01E0
7000E0
ENDCHAR
STARTCHAR 06C4
ENCODING 1732
SWIDTH 480 0
DWIDTH 12 0
BBX 12 19 -1 -10
BITMAP
03C0
07E0
0E60
0C70
1830
1830
1C30
1FF0
07F0
0060
0060
38C0
45C0
8580
8700
8600
7C00
3800
7000
ENDCHAR
STARTCHAR 06C5
ENCODING 1733
SWIDTH 480 0
DWIDTH 12 0
BBX 12 19 -1 -10
BITMAP
03C0
07E0
0E60
0C70
1830
1830
1C30
1FF0
07F0
0060
0060
00C0
E0C0
3180
1F00
0E00
1C00
3800
7000
ENDCHAR
STARTCHAR 06C6
ENCODING 1734
SWIDTH 480 0
DWIDTH 12 0
BBX 11 27 0 -10
BITMAP
0C20
0640
0280
0380
0300
0100
0000
0000
0780
0FC0
1CC0
18E0
3060
3060
3860
3FE0
0FE0
00C0
00C0
0180
0380
0700
0E00
1C00
3800
7000
E000
ENDCHAR
STARTCHAR 06C7
ENCODING 1735
SWIDTH 480 0
DWIDTH 12 0
BBX 12 28 0 -10
BITMAP
0180
0240
0440
0440
0380
01F0
1E00
0000
0000
0780
0FC0
1CC0
18E0
3060
3060
3860
3FE0
0FE0
00C0
00C0
0180
0380
0700
0E00
1C00
3800
7000
E000
ENDCHAR
STARTCHAR 06C8
ENCODING 1736
SWIDTH 480 0
DWIDTH 12 0
BBX 11 28 0 -10
BITMAP
0100
0100
0100
0100
0100
0100
0000
0000
0000
0780
0FC0
1CC0
18E0
3060
3060
3860
3FE0
0FE0
00C0
00C0
0180
0380
0700
0E00
1C00
3800
7000
E000
ENDCHAR
STARTCHAR 06C9
ENCODING 1737
SWIDTH 480 0
DWIDTH 12 0
BBX 11 28 0 -10
BITMAP
0100
0180
0380
0280
04C0
0860
0000
0000
0000
0780
0FC0
1CC0
18E0
3060
3060
3860
3FE0
0FE0
00C0
00C0
0180
0380
0700
0E00
1C00
3800
7000
E000
ENDCHAR
STARTCHAR 06CA
ENCODING 1738
SWIDTH 480 0
DWIDTH 12 0
BBX 11 25 0 -10
BITMAP
0840
1CE0
0840
0000
0000
0000
0780
0FC0
1CC0
18E0
3060
3060
3860
3FE0
0FE0
00C0
00C0
0180
0380
0700
0E00
1C00
3800
7000
E000
ENDCHAR
STARTCHAR 06CB
ENCODING 1739
SWIDTH 480 0
DWIDTH 12 0
BBX 11 28 0 -10
BITMAP
0100
0380
0100
0440
0EE0
0440
0000
0000
0000
0780
0FC0
1CC0
18E0
3060
3060
3860
3FE0
0FE0
00C0
00C0
0180
0380
0700
0E00
1C00
3800
7000
E000
ENDCHAR
STARTCHAR 06CC
ENCODING 1740
SWIDTH 960 0
DWIDTH 24 0
BBX 22 19 1 -5
BITMAP
00003C
0000FC
0001C0
000300
000300
200600
600600
400600
400600
C007FC
C003FC
C0000C
C0001C
C00018
E00070
6000E0
7807C0
3FFF00
07F800
ENDCHAR
STARTCHAR 06CD
ENCODING 1741
SWIDTH 960 0
DWIDTH 24 0
BBX 26 19 -3 -5
BITMAP
000003C0
00000FC0
00001C00
00003000
F0003000
9E006000
0E006000
04006000
0C006000
0C007FC0
0C003FC0
0C0000C0
0C0001C0
0C000180
0E000700
06000E00
07807C00
03FFF000
00FF8000
ENDCHAR
STARTCHAR 06CE
ENCODING 1742
SWIDTH 960 0
DWIDTH 24 0
BBX 22 23 1 -5
BITMAP
00C200
006400
002800
003800
00303C
0010FC
0001C0
000300
000300
200600
600600
400600
400600
C007FC
C003FC
C0000C
C0001C
C00018
E00070
6000E0
7807C0
3FFF00
07F800
ENDCHAR
STARTCHAR 06D0
ENCODING 1744
SWIDTH 960 0
DWIDTH 24 0
BBX 22 29 1 -15
BITMAP
00003C
0000FC
0001C0
000300
000300
200600
600600
400600
400600
C007FC
C003FC
C0000C
C0001C
C00018
E00070
6000E0
7807C0
3FFF00
0FF800
000000
000000
008000
01C000
008000
000000
000000
008000
01C000
008000
ENDCHAR
STARTCHAR 06D1
ENCODING 1745
SWIDTH 960 0
DWIDTH 24 0
BBX 22 26 1 -12
BITMAP
00003C
0000FC
0001C0
000300
000300
200600
600600
400600
400600
C007FC
C003FC
C0000C
C0001C
C00018
E00070
6000E0
7807C0
3FFF00
0FF800
000000
022000
077000
022000
008000
01C000
008000
ENDCHAR
STARTCHAR 06D2
ENCODING 1746
SWIDTH 840 0
DWIDTH 21 0
BBX 20 13 1 -2
BITMAP
0003C0
000FC0
001C00
003800
007000
01E000
078000
1F0000
7C0000
F00000
E00000
FFFFF0
7FFFF0
ENDCHAR
STARTCHAR 06D3
ENCODING 1747
SWIDTH 840 0
DWIDTH 21 0
BBX 20 18 1 -2
BITMAP
018000
060000
080000
080000
060000
0383C0
0E0FC0
101C00
003800
007000
01E000
078000
1F0000
7C0000
F00000
E00000
FFFFF0
7FFFF0
ENDCHAR
STARTCHAR 06D4
ENCODING 1748
SWIDTH 520 0
DWIDTH 13 0
BBX 11 2 1 6
BITMAP
FFE0
FFE0
ENDCHAR
STARTCHAR 06D5
ENCODING 1749
SWIDTH 560 0
DWIDTH 14 0
BBX 12 11 1 0
BITMAP
0600
0F80
1BC0
30E0
6070
C030
C030
C030
E0E0
7FC0
3F00
ENDCHAR
STARTCHAR 06D6
ENCODING 1750
SWIDTH 0 0
DWIDTH 0 0
BBX 18 10 0 14
BITMAP
010000
010000
010000
0101C0
011240
011440
3EEF80
C00000
800000
FC0000
ENDCHAR
STARTCHAR 06D7
ENCODING 1751
SWIDTH 0 0
DWIDTH 0 0
BBX 14 10 0 14
BITMAP
0094
0080
008C
0094
009C
0084
3F78
C000
8000
FC00
ENDCHAR
STARTCHAR 06D8
ENCODING 1752
SWIDTH 0 0
DWIDTH 0 0
BBX 5 4 0 14
BITMAP
30
48
48
B8
ENDCHAR
STARTCHAR 06D9
ENCODING 1753
SWIDTH 0 0
DWIDTH 0 0
BBX 5 7 0 14
BITMAP
88
48
28
28
18
28
78
ENDCHAR
STARTCHAR 06DA
ENCODING 1754
SWIDTH 0 0
DWIDTH 0 0
BBX 5 7 0 14
BITMAP
F8
40
80
90
80
80
78
ENDCHAR
STARTCHAR 06DB
ENCODING 1755
SWIDTH 0 0
DWIDTH 0 0
BBX 4 3 0 14
BITMAP
20
00
90
ENDCHAR
STARTCHAR 06DC
ENCODING 1756
SWIDTH 0 0
DWIDTH 0 0
BBX 13 7 0 14
BITMAP
0008
0448
0248
83F0
8200
8400
7800
ENDCHAR
STARTCHAR 06DD
ENCODING 1757
SWIDTH 1200 0
DWIDTH 30 0
BBX 29 29 0 -5
BITMAP
00020000
00030000
00050000
00078000
00000000
001FC000
00603000
008F8800
01108400
02088200
02D05A00
04A02900
35000540
A5000578
F5000550
24C01960
04401100
04603100
02800A00
02471200
01296400
00988800
00603000
001FC000
00000000
00050000
00078000
00020000
00030000
ENDCHAR
STARTCHAR 06DE
ENCODING 1758
SWIDTH 880 0
DWIDTH 22 0
BBX 19 19 1 0
BITMAP
004000
00A000
00A000
011800
0EEE00
0A0A00
1E0F00
100100
6802C0
880220
6802C0
100100
1E0F00
0A0A00
0EEE00
031000
012000
00A000
004000
ENDCHAR
STARTCHAR 06DF
ENCODING 1759
SWIDTH 0 0
DWIDTH 0 0
BBX 3 3 0 14
BITMAP
E0
E0
E0
ENDCHAR
STARTCHAR 06E0
ENCODING 1760
SWIDTH 0 0
DWIDTH 0 0
BBX 3 3 0 14
BITMAP
E0
E0
E0
ENDCHAR
STARTCHAR 06E1
ENCODING 1761
SWIDTH 0 0
DWIDTH 0 0
BBX 6 4 0 14
BITMAP
F0
0C
10
E0
ENDCHAR
STARTCHAR 06E2
ENCODING 1762
SWIDTH 0 0
DWIDTH 0 0
BBX 5 8 0 14
BITMAP
60
50
48
78
80
80
80
80
ENDCHAR
STARTCHAR 06E3
ENCODING 1763
SWIDTH 0 0
DWIDTH 0 0
BBX 13 7 0 -9
BITMAP
0008
0448
0248
83F0
8200
8400
7800
ENDCHAR
STARTCHAR 06E4
ENCODING 1764
SWIDTH 240 0
DWIDTH 6 0
BBX 3 1 0 14
BITMAP
E0
ENDCHAR
STARTCHAR 06E5
ENCODING 1765
SWIDTH 440 0
DWIDTH 11 0
BBX 4 7 1 14
BITMAP
70
90
90
F0
20
40
80
ENDCHAR
STARTCHAR 06E6
ENCODING 1766
SWIDTH 400 0
DWIDTH 10 0
BBX 6 6 2 14
BITMAP
18
10
20
40
80
FC
ENDCHAR
STARTCHAR 06E7
ENCODING 1767
SWIDTH 0 0
DWIDTH 0 0
BBX 6 6 1 14
BITMAP
18
10
20
40
80
FC
ENDCHAR
STARTCHAR 06E8
ENCODING 1768
SWIDTH 0 0
DWIDTH 0 0
BBX 7 7 0 14
BITMAP
10
00
02
82
82
84
78
ENDCHAR
STARTCHAR 06E9
ENCODING 1769
SWIDTH 640 0
DWIDTH 16 0
BBX 14 19 1 0
BITMAP
0100
0280
0C40
1020
1020
1020
3870
2010
2010
2010
6018
4008
4008
4008
4008
4008
4008
4008
FFFC
ENDCHAR
STARTCHAR 06EA
ENCODING 1770
SWIDTH 0 0
DWIDTH 0 0
BBX 5 5 0 -7
BITMAP
20
50
88
50
20
ENDCHAR
STARTCHAR 06EB
ENCODING 1771
SWIDTH 240 0
DWIDTH 6 0
BBX 5 5 0 14
BITMAP
20
50
88
50
20
ENDCHAR
STARTCHAR 06EC
ENCODING 1772
SWIDTH 240 0
DWIDTH 6 0
BBX 5 5 0 14
BITMAP
70
F8
F8
F8
70
ENDCHAR
STARTCHAR 06ED
ENCODING 1773
SWIDTH 0 0
DWIDTH 0 0
BBX 5 8 0 -10
BITMAP
60
50
48
78
80
80
80
80
ENDCHAR
STARTCHAR 06F0
ENCODING 1776
SWIDTH 640 0
DWIDTH 16 0
BBX 5 5 5 6
BITMAP
20
70
F8
70
20
ENDCHAR
STARTCHAR 06F1
ENCODING 1777
SWIDTH 640 0
DWIDTH 16 0
BBX 2 18 7 0
BITMAP
C0
C0
C0
C0
C0
C0
C0
C0
C0
C0
C0
C0
C0
C0
C0
C0
C0
C0
ENDCHAR
STARTCHAR 06F2
ENCODING 1778
SWIDTH 640 0
DWIDTH 16 0
BBX 10 18 4 0
BITMAP
C040
C040
C040
E0C0
F180
FF80
DE00
C000
C000
C000
C000
C000
C000
C000
C000
C000
C000
C000
ENDCHAR
STARTCHAR 06F3
ENCODING 1779
SWIDTH 640 0
DWIDTH 16 0
BBX 13 18 2 0
BITMAP
C118
C118
C198
E2F0
FEE0
FC00
C000
C000
C000
C000
C000
C000
C000
C000
C000
C000
C000
C000
ENDCHAR
STARTCHAR 06F4
ENCODING 1780
SWIDTH 640 0
DWIDTH 16 0
BBX 10 18 3 0
BITMAP
01C0
07C0
0E00
C800
E800
FC00
DF00
C7C0
C0C0
C000
C000
C000
C000
C000
C000
C000
C000
C000
ENDCHAR
STARTCHAR 06F5
ENCODING 1781
SWIDTH 640 0
DWIDTH 16 0
BBX 14 18 1 0
BITMAP
0100
0380
0780
0DC0
0CE0
1860
3870
3030
7038
6018
6018
C01C
C00C
C00C
C20C
C71C
FDF8
78F0
ENDCHAR
STARTCHAR 06F6
ENCODING 1782
SWIDTH 640 0
DWIDTH 16 0
BBX 8 18 3 0
BITMAP
03
0F
3C
70
60
C0
80
80
C1
7F
3F
0E
1C
38
70
E0
C0
80
ENDCHAR
STARTCHAR 06F7
ENCODING 1783
SWIDTH 640 0
DWIDTH 16 0
BBX 16 18 0 0
BITMAP
C003
6007
6006
3006
300C
180C
1818
0C18
0C30
0630
0630
0360
0360
01C0
01C0
01C0
0080
0080
ENDCHAR
STARTCHAR 06F8
ENCODING 1784
SWIDTH 640 0
DWIDTH 16 0
BBX 16 18 0 0
BITMAP
0100
0100
0300
0380
0380
06C0
06C0
0C60
0C60
1C30
1830
1818
3018
300C
600C
6006
C003
C003
ENDCHAR
STARTCHAR 06F9
ENCODING 1785
SWIDTH 640 0
DWIDTH 16 0
BBX 8 18 3 0
BITMAP
1C
3E
67
E3
C3
C3
E3
7F
1F
03
03
03
03
03
03
03
03
03
ENDCHAR
STARTCHAR 0901
ENCODING 2305
SWIDTH 0 0
DWIDTH 0 0
BBX 11 6 -10 18
BITMAP
0400
0E00
8420
60C0
7FC0
1F00
ENDCHAR
STARTCHAR 0902
ENCODING 2306
SWIDTH 0 0
DWIDTH 0 0
BBX 3 3 -5 18
BITMAP
40
E0
40
ENDCHAR
STARTCHAR 0903
ENCODING 2307
SWIDTH 200 0
DWIDTH 5 0
BBX 3 10 1 2
BITMAP
40
E0
40
00
00
00
00
40
E0
40
ENDCHAR
STARTCHAR 0905
ENCODING 2309
SWIDTH 760 0
DWIDTH 19 0
BBX 19 16 1 0
BITMAP
1F1FE0
3F9FE0
21C600
00C600
00C600
01C600
1F8600
1F0600
018E00
80FE00
C0F600
60C600
30C600
1FC600
0F0600
000600
ENDCHAR
STARTCHAR 0906
ENCODING 2310
SWIDTH 1040 0
DWIDTH 26 0
BBX 26 16 1 0
BITMAP
1F1FFFC0
3F9FFFC0
21C60C00
00C60C00
00C60C00
01C60C00
1F860C00
1F060C00
018E0C00
80FE0C00
C0F60C00
60C60C00
30C60C00
1FC60C00
0F060C00
00060C00
ENDCHAR
STARTCHAR 0907
ENCODING 2311
SWIDTH 520 0
DWIDTH 13 0
BBX 14 20 0 -4
BITMAP
FFFC
FFFC
0180
0180
1F80
7F80
6000
6000
67C0
3FE0
1870
0030
0030
3070
3FE0
1F80
0600
0300
0180
0180
ENDCHAR
STARTCHAR 0908
ENCODING 2312
SWIDTH 520 0
DWIDTH 13 0
BBX 14 27 0 -4
BITMAP
01E0
07F0
0710
0600
0600
0200
0100
FFFC
FFFC
0180
0180
1F80
7F80
6000
6000
67C0
3FE0
1870
0030
0030
3070
3FE0
1F80
0600
0300
0180
0180
ENDCHAR
STARTCHAR 0909
ENCODING 2313
SWIDTH 600 0
DWIDTH 15 0
BBX 16 16 0 0
BITMAP
FFFF
FFFF
0030
0018
0018
0038
07F0
07E0
0030
4010
6018
3018
3018
1C38
0FF0
03E0
ENDCHAR
STARTCHAR 090A
ENCODING 2314
SWIDTH 720 0
DWIDTH 18 0
BBX 19 16 0 0
BITMAP
FFFFE0
FFFFE0
003000
001800
001800
003800
07F000
07E000
003700
401F80
6018C0
3018C0
3018C0
1C3980
0FF080
03E000
ENDCHAR
STARTCHAR 090B
ENCODING 2315
SWIDTH 880 0
DWIDTH 22 0
BBX 22 18 0 -2
BITMAP
FFFFFC
FFFFFC
006000
006000
3E6700
7FE380
61FF80
007F00
01E180
07E180
0E61C0
3C6380
706600
406600
006600
00670C
0003FC
0001F8
ENDCHAR
STARTCHAR 090C
ENCODING 2316
SWIDTH 760 0
DWIDTH 19 0
BBX 20 16 0 0
BITMAP
FFFFF0
FFFFF0
001800
001800
1E3E00
3FFF00
70E380
60C180
61C780
608F80
601C00
301800
181800
1C1840
040FC0
000780
ENDCHAR
STARTCHAR 090D
ENCODING 2317
SWIDTH 600 0
DWIDTH 15 0
BBX 16 26 0 -4
BITMAP
0401
0306
03FE
00F8
0000
0000
FFFF
FFFF
3030
3030
3030
3030
3030
3030
3030
3030
3070
1C20
0E00
0700
01C0
00E0
0070
0030
0030
0010
ENDCHAR
STARTCHAR 090E
ENCODING 2318
SWIDTH 600 0
DWIDTH 15 0
BBX 16 27 0 -4
BITMAP
4000
4000
21E0
3FE0
1E30
0010
0010
FFFF
FFFF
3030
3030
3030
3030
3030
3030
3030
3030
3070
1C20
0E00
0700
01C0
00E0
0070
0030
0030
0010
ENDCHAR
STARTCHAR 090F
ENCODING 2319
SWIDTH 600 0
DWIDTH 15 0
BBX 16 20 0 -4
BITMAP
FFFF
FFFF
3030
3030
3030
3030
3030
3030
3030
3030
3070
1C20
0E00
0700
01C0
00E0
0070
0030
0030
0010
ENDCHAR
STARTCHAR 0910
ENCODING 2320
SWIDTH 600 0
DWIDTH 15 0
BBX 16 27 0 -4
BITMAP
3E00
3F00
0380
00C0
0060
0060
0030
FFFF
FFFF
3030
3030
3030
3030
3030
3030
3030
3030
3070
1C20
0E00
0700
01C0
00E0
0070
0030
0030
0010
ENDCHAR
STARTCHAR 0911
ENCODING 2321
SWIDTH 1040 0
DWIDTH 26 0
BBX 26 22 1 0
BITMAP
00010040
0000C180
0000FF80
00003E00
00000000
00000000
1F1FFFC0
3F9FFFC0
21C60C00
00C60C00
00C60C00
01C60C00
1F860C00
1F060C00
018E0C00
80FE0C00
C0F60C00
60C60C00
30C60C00
1FC60C00
0F060C00
00060C00
ENDCHAR
STARTCHAR 0912
ENCODING 2322
SWIDTH 1040 0
DWIDTH 26 0
BBX 26 23 1 0
BITMAP
00100000
00100000
00087800
000FF800
00078C00
00000400
00000400
1F1FFFC0
3F9FFFC0
21C60C00
00C60C00
00C60C00
01C60C00
1F860C00
1F060C00
018E0C00
80FE0C00
C0F60C00
60C60C00
30C60C00
1FC60C00
0F060C00
00060C00
ENDCHAR
STARTCHAR 0913
ENCODING 2323
SWIDTH 1040 0
DWIDTH 26 0
BBX 26 23 1 0
BITMAP
000F8000
000FC000
0000E000
00003000
00001800
00001800
00000C00
1F1FFFC0
3F9FFFC0
21C60C00
00C60C00
00C60C00
01C60C00
1F860C00
1F060C00
018E0C00
80FE0C00
C0F60C00
60C60C00
30C60C00
1FC60C00
0F060C00
00060C00
ENDCHAR
STARTCHAR 0914
ENCODING 2324
SWIDTH 1040 0
DWIDTH 26 0
BBX 26 23 1 0
BITMAP
000F8000
000FC000
0000E000
000F3000
000FD800
00007800
00001C00
1F1FFFC0
3F9FFFC0
21C60C00
00C60C00
00C60C00
01C60C00
1F860C00
1F060C00
018E0C00
80FE0C00
C0F60C00
60C60C00
30C60C00
1FC60C00
0F060C00
00060C00
ENDCHAR
STARTCHAR 0915
ENCODING 2325
SWIDTH 720 0
DWIDTH 18 0
BBX 19 16 0 0
BITMAP
FFFFE0
FFFFE0
00C000
00C000
1CCE00
3CDF00
70F380
60E180
60C180
60C180
71C180
3FC300
1EC300
00C600
00C200
00C000
ENDCHAR
STARTCHAR 0916
ENCODING 2326
SWIDTH 720 0
DWIDTH 18 0
BBX 19 16 0 0
BITMAP
FFFFE0
FFFFE0
0C0600
0C7600
0CF600
0D8600
7D8600
798600
318E00
30FE00
187600
1C0600
0E0E00
07FE00
01FE00
000600
ENDCHAR
STARTCHAR 0917
ENCODING 2327
SWIDTH 560 0
DWIDTH 14 0
BBX 15 16 0 0
BITMAP
FFFE
FFFE
1860
1860
1860
1860
1860
1860
1860
7860
7860
3860
1060
0060
0060
0060
ENDCHAR
STARTCHAR 0918
ENCODING 2328
SWIDTH 680 0
DWIDTH 17 0
BBX 18 16 0 0
BITMAP
FFFFC0
FFFFC0
600C00
600C00
600C00
700C00
3F0C00
1F0C00
380C00
301C00
303C00
387C00
1FEC00
0F8C00
000C00
000C00
ENDCHAR
STARTCHAR 0919
ENCODING 2329
SWIDTH 680 0
DWIDTH 17 0
BBX 18 16 0 0
BITMAP
FFFFC0
FFFFC0
003000
003000
07F000
1FF000
180200
180700
19F200
0FF800
C61C00
C00C00
600C00
381C00
1FF800
07E000
ENDCHAR
STARTCHAR 091A
ENCODING 2330
SWIDTH 640 0
DWIDTH 16 0
BBX 17 16 0 0
BITMAP
FFFF80
FFFF80
001800
001800
001800
FF1800
FF1800
181800
301800
303800
303800
38F800
1FD800
0F1800
001800
001800
ENDCHAR
STARTCHAR 091B
ENCODING 2331
SWIDTH 600 0
DWIDTH 15 0
BBX 16 16 0 0
BITMAP
FFFF
FFFF
0060
1C78
7CFC
60CC
60CC
70CC
3E6C
1E7C
3838
3038
3070
38E0
1FC0
0F80
ENDCHAR
STARTCHAR 091C
ENCODING 2332
SWIDTH 680 0
DWIDTH 17 0
BBX 18 16 0 0
BITMAP
FFFFC0
FFFFC0
000C00
000C00
000C00
03FC00
83FC00
418C00
60CC00
30CC00
38CC00
1FCC00
078C00
000C00
000C00
000C00
ENDCHAR
STARTCHAR 091D
ENCODING 2333
SWIDTH 760 0
DWIDTH 19 0
BBX 20 20 0 -4
BITMAP
FFFFF0
FFFFF0
018300
018300
1F8300
7F8300
600300
600700
67DF00
3FFB00
187300
003300
003300
307300
3FE300
1F8300
060000
030000
018000
018000
ENDCHAR
STARTCHAR 091E
ENCODING 2334
SWIDTH 720 0
DWIDTH 18 0
BBX 19 16 0 0
BITMAP
FFFFE0
FFFFE0
000600
000600
0F0600
1F8600
118600
00CE00
80FE00
C0F600
60C600
31C600
1F8600
0F0600
000600
000600
ENDCHAR
STARTCHAR 091F
ENCODING 2335
SWIDTH 520 0
DWIDTH 13 0
BBX 14 16 0 0
BITMAP
FFFC
FFFC
0180
0180
0180
0F80
1F80
3800
7000
6000
6000
6000
7000
3830
1FF0
0FE0
ENDCHAR
STARTCHAR 0920
ENCODING 2336
SWIDTH 560 0
DWIDTH 14 0
BBX 15 16 0 0
BITMAP
FFFE
FFFE
0180
0180
0180
01C0
0F60
3E30
3018
6018
6018
6018
6038
3870
1FE0
0FC0
ENDCHAR
STARTCHAR 0921
ENCODING 2337
SWIDTH 600 0
DWIDTH 15 0
BBX 16 16 0 0
BITMAP
FFFF
FFFF
0030
0030
07F0
1FF0
1800
1800
19F0
0FF8
C61C
C00C
600C
381C
1FF8
07E0
ENDCHAR
STARTCHAR 0922
ENCODING 2338
SWIDTH 560 0
DWIDTH 14 0
BBX 15 16 0 0
BITMAP
FFFE
FFFE
00C0
00C0
07C0
1FC0
3800
7000
60F0
61F0
6198
6198
7198
38B8
1FF0
07C0
ENDCHAR
STARTCHAR 0923
ENCODING 2339
SWIDTH 680 0
DWIDTH 17 0
BBX 18 16 0 0
BITMAP
FFFFC0
FFFFC0
318C00
318C00
318C00
318C00
318C00
318C00
318C00
318C00
318C00
1F8C00
0F0C00
000C00
000C00
000C00
ENDCHAR
STARTCHAR 0924
ENCODING 2340
SWIDTH 560 0
DWIDTH 14 0
BBX 15 16 0 0
BITMAP
FFFE
FFFE
0060
0060
0060
1FE0
3FE0
7060
6060
6060
6060
3060
3060
1860
0860
0460
ENDCHAR
ENDFONT
